<?xml version="1.0" encoding="utf-8"?>
<!-- Generator: Adobe Illustrator 27.5.0, SVG Export Plug-In . SVG Version: 6.00 Build 0)  -->
<svg version="1.1" xmlns="http://www.w3.org/2000/svg" xmlns:xlink="http://www.w3.org/1999/xlink" x="0px" y="0px"
	 viewBox="0 0 500 500" style="enable-background:new 0 0 500 500;" xml:space="preserve">
<g id="BACKGROUND">
	<rect style="fill:#FFFFFF;" width="500" height="500"/>
</g>
<g id="OBJECTS">
	<path style="fill:#F5E3DA;" d="M452.914,137.953c1.128-7.073,1.241-14.285,0.165-21.432c-3.935-26.134-25.729-49.679-52.067-51.867
		c-23.875-1.983-45.805,12.34-64.766,26.983c-18.961,14.643-38.59,30.883-62.37,33.787c-23.94,2.923-47.215-8.322-71.206-10.788
		c-22.713-2.334-46.182,3.539-65.118,16.298c-10.859,7.317-20.496,17.238-24.721,29.632c-8.069,23.666,5.027,50.033-0.423,74.436
		c-4.768,21.349-22.517,36.873-38.349,51.967c-19.635,18.719-32.993,38.178-29.257,65.992c3.172,23.609,17.469,47.235,40.852,55.251
		c22.438,7.692,47.153-0.004,68.63-10.073c21.477-10.069,42.474-22.751,66.029-25.546c6.341-0.752,13.201-0.644,18.54,2.859
		c8.182,5.368,9.895,16.404,14.664,24.949c8.634,15.471,28.371,22.491,45.859,19.65c14.227-2.311,24.443-9.609,34.776-18.801
		c8.065-7.175,20.116-11.975,24.527-22.202c4.474-10.373,5.944-18.536,16.076-25.894c13.346-9.693,31.098-11.25,45.093-19.98
		c17.853-11.136,27.13-35.906,17.751-54.742c-5.238-10.52-15.014-17.87-23.403-26.1c-8.389-8.23-16.025-18.951-14.859-30.644
		c1.46-14.657,15.516-24.079,26.324-34.085C439.751,174.559,449.917,156.744,452.914,137.953z"/>
	<g>
		
			<rect x="204.64" y="84.442" style="fill:none;stroke:#000000;stroke-linecap:round;stroke-linejoin:round;stroke-miterlimit:10;" width="220.661" height="324.776"/>
		
			<rect x="207.747" y="87.55" style="fill:none;stroke:#000000;stroke-linecap:round;stroke-linejoin:round;stroke-miterlimit:10;" width="220.661" height="324.776"/>
		
			<rect x="210.855" y="90.658" style="fill:none;stroke:#000000;stroke-linecap:round;stroke-linejoin:round;stroke-miterlimit:10;" width="220.661" height="324.776"/>
	</g>
	<g>
		<polygon style="stroke:#000000;stroke-miterlimit:10;" points="414.664,118.162 411.322,106.507 402.112,114.073 		"/>
		<g>
			<path style="stroke:#000000;stroke-width:3;stroke-miterlimit:10;" d="M407.612,113.644
				c-4.526,9.627-14.175,16.439-25.516,16.784c-13.944,0.425-25.93-9.062-29.18-22.077l-3.802,0.116
				c3.371,15.082,17.09,26.174,33.095,25.686c12.783-0.39,23.66-8.063,28.768-18.911
				C409.856,114.71,408.734,114.177,407.612,113.644z"/>
			<path style="stroke:#000000;stroke-width:3;stroke-miterlimit:10;" d="M380.206,68.409c-12.595,0.384-23.339,7.84-28.538,18.435
				l3.37,1.6c4.618-9.374,14.129-15.97,25.282-16.31c14.525-0.443,26.927,9.869,29.541,23.722l3.764-0.115
				C410.917,79.828,396.789,67.904,380.206,68.409z"/>
		</g>
		<path style="stroke:#000000;stroke-miterlimit:10;" d="M347.72,84.019l3.112,11.181l9.504-7.085
			C356.149,86.695,351.938,85.344,347.72,84.019z"/>
	</g>
	<g>
		
			<line style="fill:none;stroke:#000000;stroke-linecap:round;stroke-linejoin:round;stroke-miterlimit:10;" x1="127.045" y1="110.155" x2="122.657" y2="114.658"/>
		<g>
			
				<line style="fill:none;stroke:#000000;stroke-linecap:round;stroke-linejoin:round;stroke-miterlimit:10;" x1="58.617" y1="304.327" x2="53.696" y2="309.377"/>
			<path style="fill:none;stroke:#000000;stroke-linecap:round;stroke-linejoin:round;stroke-miterlimit:10;" d="M53.955,304.327
				c0.958-0.823,1.821-1.758,2.564-2.779"/>
		</g>
		<path style="fill:none;stroke:#000000;stroke-linecap:round;stroke-linejoin:round;stroke-miterlimit:10;" d="M439.608,282.518
			c1.565-1.727,3.131-3.454,4.696-5.181"/>
		<path style="fill:none;stroke:#000000;stroke-linecap:round;stroke-linejoin:round;stroke-miterlimit:10;" d="M220.179,264.701
			c1.565-1.727,3.131-3.454,4.696-5.181"/>
		<path style="fill:none;stroke:#000000;stroke-linecap:round;stroke-linejoin:round;stroke-miterlimit:10;" d="M385.724,102.313
			c-2.257,1.761-4.338,3.677-6.212,5.721"/>
		<path style="fill:none;stroke:#000000;stroke-linecap:round;stroke-linejoin:round;stroke-miterlimit:10;" d="M122.627,109.252
			c-2.888,2.888-5.775,5.775-8.663,8.663"/>
		<g>
			<path style="fill:none;stroke:#000000;stroke-linecap:round;stroke-linejoin:round;stroke-miterlimit:10;" d="M400.487,396.01
				c-1.032,1.104-2.064,2.209-3.095,3.314"/>
			
				<line style="fill:none;stroke:#000000;stroke-linecap:round;stroke-linejoin:round;stroke-miterlimit:10;" x1="401.844" y1="390.44" x2="394.197" y2="398.175"/>
		</g>
		<path style="fill:none;stroke:#000000;stroke-linecap:round;stroke-miterlimit:10;" d="M195.055,339.291
			c0,1.143-0.927,2.07-2.07,2.07c-1.143,0-2.07-0.927-2.07-2.07c0-1.143,0.927-2.07,2.07-2.07
			C194.128,337.221,195.055,338.147,195.055,339.291z"/>
		<path style="fill:none;stroke:#000000;stroke-linecap:round;stroke-linejoin:round;stroke-miterlimit:10;" d="M204.05,65.596
			c-1.017,1.174-2.792,1.301-3.966,0.285c-1.174-1.017-1.301-2.792-0.285-3.966"/>
		<path style="fill:none;stroke:#000000;stroke-miterlimit:10;" d="M221.038,267.524c-1.017,1.174-2.792,1.301-3.966,0.285
			c-1.174-1.017-1.301-2.792-0.285-3.966"/>
		<path style="fill:none;stroke:#000000;stroke-miterlimit:10;" d="M452.495,145.823c-1.017,1.174-2.792,1.301-3.966,0.285
			c-1.174-1.017-1.302-2.792-0.285-3.966"/>
		<path style="fill:none;stroke:#000000;stroke-miterlimit:10;" d="M81.914,247.607c0,1.332-1.06,2.411-2.368,2.411
			c-1.308,0-2.368-1.08-2.368-2.411c0-1.332,1.06-2.411,2.368-2.411C80.854,245.196,81.914,246.276,81.914,247.607z"/>
		<path style="fill:none;stroke:#000000;stroke-linecap:round;stroke-linejoin:round;stroke-miterlimit:10;" d="M114.683,421.478
			c1.289-1.215,2.577-2.431,3.866-3.646"/>
	</g>
	<g>
		<g id="XMLID_19_">
			<g id="XMLID_20_">
				<g id="XMLID_23_">
					<g id="XMLID_24_">
						<path id="XMLID_25_" style="fill:#F09B86;" d="M161.135,424.272c-3.035,1.196-6.875,0.975-10.629,0.601
							c-8.181-1.091-6.701-0.754-7.577-7.04c-0.895-6.425-2.165-22.856-1.388-29.297c0.233-1.934,0.642-3.911,1.751-5.512
							c1.653-2.386,4.549-3.528,7.294-4.472c1.959-0.674,3.944-1.316,6-1.572c3.673-0.458,7.607,0.436,10.376,2.892
							c4.224,3.747,2.307,8.763,2.126,13.875c-0.28,7.884-1.813,19.942-2.59,27.453
							C166.164,424.422,163.436,423.366,161.135,424.272z"/>
					</g>
				</g>
			</g>
		</g>
		<g id="XMLID_4_">
			<g id="XMLID_11_">
				<g id="XMLID_12_">
					<g id="XMLID_13_">
						<path id="XMLID_18_" style="fill:#222221;" d="M142.474,424.866c-0.052-1.971,0.034-3.942,0.339-5.902
							c4.266,0.06,8.532,0.121,12.798,0.181c2.133,0.03,4.266,0.06,6.399,0.091c1.772,0.025,3.776-0.357,5.498,0.033
							c0.091,1.825,0.383,3.64,0.868,5.401c0.11,0.399,0.245,0.818,0.562,1.084c0.277,0.231,0.648,0.307,1.003,0.373
							c7.156,1.333,14.686,2.146,20.821,6.065c1.207,0.771,2.481,2.191,1.794,3.449c-0.796,1.457-5.018,1.489-6.474,1.617
							c-2.765,0.243-5.547-0.045-8.304-0.257c-5.75-0.442-11.528-0.511-17.286-0.206c-1.658,0.088-3.781,0.374-5.361-0.294
							c-1.31-0.553-1.753-2.328-3.002-2.739c-0.097,1.011-0.29,2.013-0.576,2.988c-0.027,0.09-0.056,0.184-0.12,0.252
							c-0.111,0.118-0.293,0.129-0.455,0.131c-1.726,0.026-3.988,0.467-5.672,0.035c-1.821-0.468-1.772-2.167-2.003-3.811
							C142.908,430.549,142.549,427.708,142.474,424.866z"/>
					</g>
				</g>
			</g>
		</g>
		<g id="XMLID_101_">
			<g id="XMLID_44_">
				<path style="fill:#222221;" d="M116.56,152.404c-1.267,3.892-2.689,7.741-3.692,11.714c-0.29,1.149-0.087,2.252-0.535,3.395
					c-0.408,1.041-1.091,1.973-1.727,2.883c-1.165,1.667-2.27,3.806-1.387,5.638c0.563,1.167,1.829,1.864,3.105,2.092
					c1.276,0.228,2.584,0.062,3.873-0.07c7.131-0.726,14.323-0.365,21.482-0.002c0.745-5.249,1.346-10.519,1.801-15.801
					c0.389-4.512,1.054-9.489-0.478-13.862c-1.721-4.915-5.959-7.966-11.289-7.447c-3.337,0.325-6.493,2.19-8.387,4.957
					C117.991,147.852,117.292,150.156,116.56,152.404z"/>
			</g>
		</g>
		<g id="XMLID_148_">
			<g id="XMLID_551_">
				<g id="XMLID_149_">
					<path id="XMLID_2510_" style="fill:#F09B86;" d="M198.163,207.378c-0.428-0.779-0.943-1.518-1.492-2.215
						c-2.559-3.247-6.236-6.103-9.58-8.492c-4.359-3.115-8.766-6.161-13.048-9.384c-3.707-2.791-7.662-6.354-12.043-8.077
						c-2.482-0.976-5.456-2.652-8.124-1.664c-2.486,0.92-4.605,3.074-5.757,5.421c-1.194,2.432-1.572,5.197-1.527,7.907
						c0.035,2.072,0.329,4.203,1.37,5.994c1.467,2.523,4.183,4.017,6.822,5.263c3.372,1.592,6.621,3.303,10.079,4.825
						c4.31,1.897,8.367,4.37,12.028,7.332c2.547,2.061,5.037,4.429,8.208,5.248c2.618,0.676,5.048-0.193,6.931-1.999
						c1.715-1.646,3.669-1.654,5.587-3.137c0.542-0.419,1.064-0.896,1.371-1.509c0.379-0.757,0.393-1.648,0.26-2.484
						C199.078,209.337,198.685,208.327,198.163,207.378z"/>
				</g>
			</g>
		</g>
		<g id="XMLID_144_">
			<g id="XMLID_875_">
				<g id="XMLID_549_">
					<g id="XMLID_1576_">
						<path id="XMLID_2506_" style="fill:#F09B86;" d="M75.44,424.892c1.34,0.369,2.708,0.708,4.009,0.716
							c3.153,0.02,6.312,0.092,9.465,0.059c1.768-0.018,1.767-0.468,2.478-2.056c0.637-1.421,1.273-2.842,1.901-4.266
							c2.555-5.788,5.007-11.629,7.046-17.622c0.835-2.455,1.561-5.307,0.198-7.513c-0.841-1.361-2.325-2.18-3.793-2.815
							c-4.463-1.931-9.415-2.718-14.256-2.265c-2.17,0.203-4.449,0.718-6.001,2.249c-1.289,1.271-1.895,3.063-2.425,4.794
							c-1.96,6.403-3.461,12.948-4.486,19.565c-0.544,3.512-0.693,7.561,3.445,8.509C73.802,424.427,74.616,424.665,75.44,424.892z"
							/>
					</g>
				</g>
			</g>
		</g>
		<g id="XMLID_111_">
			<g id="XMLID_116_">
				<g id="XMLID_543_">
					<g id="XMLID_138_">
						<path id="XMLID_2496_" style="fill:#4764A8;" d="M157.212,231.061c0.809,4.672,1.618,9.345,2.426,14.017
							c0.059,0.342,0.096,0.752-0.167,0.978c-0.142,0.122-0.339,0.156-0.524,0.184c-13.888,2.122-27.776,4.245-41.663,6.367
							c-0.933,0.142-1.892,0.284-2.811,0.074c-0.238-0.054-0.483-0.141-0.637-0.329c-0.269-0.328-0.159-0.809-0.084-1.227
							c0.656-3.66-2.267-6.725-2.829-10.19c-0.406-2.506,0.617-6.935,3.097-8.296c1.367-0.75,3.171-0.565,4.661-0.585
							c2.471-0.033,4.941-0.072,7.412-0.117c4.886-0.089,9.772-0.201,14.657-0.335C146.237,231.452,151.725,231.271,157.212,231.061
							z"/>
					</g>
				</g>
			</g>
		</g>
		<g id="XMLID_90_">
			<g id="XMLID_92_">
				<g id="XMLID_540_">
					<g id="XMLID_93_">
						<path id="XMLID_2491_" style="fill:#222221;" d="M139.238,144.456c-0.494,2.215-0.226,4.878-0.16,6.645
							c0.119,3.172,0.675,7.552-1.056,10.319c-1.686,2.695-3.889,5.066-6.435,6.969c-1.956,1.461-2.729,3.201-3.942,5.227
							c-0.602,1.005-1.506,1.915-0.694,3.122c0.453,0.675,1.221,1.068,1.986,1.344c1.75,0.631,3.631,0.79,5.489,0.866
							c4.023,0.165,8.051-0.035,12.073-0.235c0.577-0.029,1.176-0.063,1.686-0.335c0.818-0.436,1.22-1.377,1.47-2.27
							c0.459-1.645,0.606-3.376,0.43-5.075c-0.176-1.702-0.672-3.365-0.755-5.074c-0.096-1.962,0.354-3.909,0.422-5.872
							c0.095-2.718-0.541-5.403-1.172-8.048c-0.544-2.279-1.088-4.557-1.632-6.836c-0.574-2.403-2.683-5.874-5.646-4.049
							C140.156,141.858,139.548,143.069,139.238,144.456z"/>
					</g>
				</g>
			</g>
		</g>
		<g id="XMLID_54_">
			<g id="XMLID_56_">
				<g id="XMLID_537_">
					<g id="XMLID_76_">
						<path id="XMLID_2486_" style="fill:#4764A8;" d="M86.931,308.023c-3.707,9.566-6.327,19.554-7.787,29.709
							c-1.307,9.097-1.692,18.341-3.711,27.307c-3.228,14.337-10.556,27.621-12.659,42.166c12.573,4.208,28.167,4.642,41.376,5.08
							c1.3,0.043,6.812-25.845,7.328-27.722c3.046-11.078,6.092-22.156,9.138-33.234c3.397-12.354,6.801-24.727,9.217-37.319
							c1.13-5.89,1.612-11.629,3.799-17.223c2.163-5.533,4.491-11.029,5.835-16.836c1.583-6.842,1.758-13.922,1.24-20.902
							c-0.226-3.05-0.274-6.423-0.808-9.397c-0.458-2.55-1.684-4.871-2.004-7.475c-0.421-3.429-2.097-6.702-5.189-8.141
							c-3.032-1.412-8.202-1.362-9.158-4.543c0.615,2.047-6.497,7.321-7.738,8.592c-11.345,11.624-11.672,26.042-16.241,40.745
							c-2.452,7.891-6.538,15.155-9.922,22.694C88.685,303.666,87.779,305.834,86.931,308.023z"/>
					</g>
				</g>
			</g>
		</g>
		<g id="XMLID_49_">
			<g id="XMLID_52_">
				<g id="XMLID_534_">
					<g id="XMLID_1556_">
						<path style="fill:#4764A8;" d="M136.908,324.883c0.177,1.65,0.317,3.313,0.408,4.993c0.721,13.331,0.899,26.691,0.534,40.036
							c-0.173,6.345-0.473,12.717-1.741,18.936c-1.722,6.888-1.134,13.823-1.653,20.788c11.854,1.099,23.783,0.964,35.686,0.828
							c1.161-0.013,3.022,0.047,3.8-0.943c0.523-0.665,0.697-1.532,0.855-2.363c0.456-2.391,0.912-4.781,1.368-7.172
							c0.236-1.237,0.473-2.483,0.467-3.743c-0.044-8.932,2.077-17.249,1.602-26.334c-0.65-12.434-1.303-24.869-1.984-37.301
							c-1.36-24.835-3.061-49.701-7.053-74.274c-1.228-7.563-4.736-13.612-8.485-20.3c-2.035-3.632-3.22-5.5-7.031-7.115
							c-2.289-0.97-6.159-2.944-8.694-1.858c-3.396,1.455-5.762,4.767-6.903,8.234c-0.954,2.895-3.88,4.91-4.561,7.867
							c-0.57,2.479,0.551,6.373,0.556,8.993c0.015,8.605-0.936,17.327-1.4,25.921c-0.285,5.28-1.19,11.194-0.45,16.449
							C133.589,306.183,135.88,315.314,136.908,324.883z"/>
					</g>
				</g>
			</g>
		</g>
		<g id="XMLID_51_">
			<g id="XMLID_862_">
				<g id="XMLID_530_">
					<g id="XMLID_46_">
						<path id="XMLID_2475_" style="fill:#F09B86;" d="M154.642,177.962c-0.728-1.034-2.601-0.65-3.688-0.833
							c-1.892-0.318-3.753-0.826-5.544-1.515c-0.685-0.264-1.401-0.586-1.799-1.203c-0.312-0.482-0.384-1.076-0.447-1.647
							c-0.167-1.498-0.334-2.995-0.502-4.493c-0.211-1.892,0.108-2.574,1.522-3.815c1.848-1.623,2.282-4.303,2.397-6.76
							c0.181-3.853-0.136-7.729-0.94-11.501c-0.237-1.112-0.529-2.245-1.187-3.172c-1.653-2.333-4.849-2.949-7.424-2.187
							c-5.315,1.573-11.472,5.788-11.958,11.78c-0.224,2.763,0.414,5.512,0.93,8.235c0.649,3.426,1.108,6.986,0.293,10.376
							c-0.815,3.39-3.147,6.607-6.495,7.581c-1.039,0.302-2.168,0.396-3.078,0.98c-1.309,0.841-0.958,1.623-0.612,2.696
							c0.428,1.325,0.638,2.763,1.064,4.151c0.041,0.139,0.089,0.276,0.134,0.414c0.013,0.037,0.024,0.076,0.038,0.113
							c0.615,1.781,1.648,3.391,3.171,4.648c3.206,2.933,7.951,4.436,12.372,4.159c0.167-0.011,0.335-0.033,0.503-0.046
							c0.067,0.001,0.135,0.005,0.201,0.006c8.544,0.119,17.426-4.412,19.84-13.068c0.006-0.022,0.009-0.043,0.015-0.065
							C154.24,180.996,155.405,179.048,154.642,177.962z"/>
					</g>
				</g>
			</g>
		</g>
		<g id="XMLID_40_">
			<g id="XMLID_30_">
				<g id="XMLID_524_">
					<g id="XMLID_43_">
						<path id="XMLID_2467_" style="fill:#D16E4F;" d="M152.42,177.593c-1.702,2.175-0.545,6.166-2.584,8.329
							c-1.794,1.901-5.282,5.94-15.632,5.212c-6.796-0.478-13.317-8.572-15.712-11.872c-1.689,0.363-4.625,1.498-5.159,1.747
							c-0.72,1.304,0.191,16.28-0.384,23.116c-0.819,9.733,0.088,19.036-0.81,29.288l45.238,0.775c0-4.046,0.365-8.1,0.606-12.137
							c0.274-4.597-0.072-9.014,1.205-13.419c1.831,0.574,3.731,0.925,5.646,1.043c2.292-6.307,5.274-12.331,8.361-18.279
							c0.485-0.935,2.079-2.937,1.941-4.011c-0.172-1.339-2.015-2.139-3.026-2.845c-2.822-1.969-5.709-3.847-8.655-5.625
							c-2.574-1.554-7.732-4.167-10.547-1.826C152.723,177.243,152.562,177.412,152.42,177.593z"/>
					</g>
				</g>
			</g>
		</g>
		<g id="XMLID_55_">
			<g id="XMLID_21_">
				<g id="XMLID_509_">
					<g id="XMLID_22_">
						<path style="fill:#222221;" d="M81.136,419.062c-1.039-0.039-12.392-0.921-12.383-0.967c-0.361,1.802-0.721,3.605-1.082,5.407
							c-0.063,0.312-0.129,0.634-0.305,0.899c-0.248,0.373-0.676,0.58-1.087,0.758c-6.688,2.905-14.407,2.965-20.898,6.288
							c-0.431,0.221-0.868,0.466-1.166,0.847c-0.579,0.741-0.485,1.841-0.026,2.661c0.679,1.213,1.583,1.954,2.619,2.412h25.465
							c2.301-0.451,4.375-1.381,6.459-3.45c0.202-0.201,0.444-0.424,0.726-0.385c0.305,0.042,0.478,0.364,0.596,0.649
							c0.402,0.968,0.749,1.959,1.04,2.966c2.302,0.135,4.604,0.27,6.906,0.405c1.953-3.856,3.75-7.986,4.673-12.22
							c0.456-2.092,0.885-4.191,1.31-6.294C89.768,418.721,85.387,419.219,81.136,419.062z"/>
					</g>
				</g>
			</g>
		</g>
		<g id="XMLID_42_">
			<g id="XMLID_836_">
				<g id="XMLID_503_">
					<g id="XMLID_1518_">
						<path id="XMLID_2434_" style="fill:#F09B86;" d="M121.463,243.352c-0.206,0.542-2.622,3.289-3.105,3.38
							c-4.989,0.936-3.947,0.24-4.464,0.198c-8.734-7.31-18.312-29.719-20.086-39.748c-0.684-3.865,0.274-7.869,1.12-11.702
							c0.378-1.713,3.141-7.334,7.436-10.407c2.327-1.665,6.222-3.188,11.731-4.031c0.981,1.519,1.438,3.631,2.33,5.963
							c1.258,3.29,2.53,6.636,2.715,10.194c0.112,2.149-0.153,4.372-1.235,6.269c-0.485,0.851-1.78,1.662-2.113,2.465
							c-0.54,1.301,0.321,2.787,0.891,4.068c3.208,7.208,5.221,14.946,5.933,22.803C122.94,236.379,122.747,239.971,121.463,243.352
							z"/>
					</g>
				</g>
			</g>
		</g>
		<g id="XMLID_47_">
			<g id="XMLID_702_">
				<g id="XMLID_428_">
					<g id="XMLID_1445_">
						<path id="XMLID_2345_" style="fill:#F09B86;" d="M109.815,231.771c-2.611,4.149-2.108,9.555,1.375,13.005
							c1.244,1.232,2.583,2.32,4.24,2.947c0.453,0.172,0.923,0.344,1.408,0.324c0.578-0.024,1.106-0.319,1.602-0.617
							c7.689-4.62,13.616-11.79,17.866-19.689c4.25-7.899,7.638-17.866,10.751-25.797c0.093-0.236-6.268-5.702-7.413-5.942
							c0,0-4.522,5.585-6.845,8.186c-6.91,7.734-16.399,16.59-22.826,27.327C109.92,231.603,109.867,231.689,109.815,231.771z"/>
					</g>
				</g>
			</g>
		</g>
		<g id="XMLID_131_">
			<g id="XMLID_413_">
				<g id="XMLID_45_">
					<path id="XMLID_2320_" style="fill:#F09B86;" d="M181.007,209.786c-0.711,0.696-1.371,1.443-1.972,2.235
						c-5.04,6.639-11.943,11.989-18.036,17.655c-0.236,0.219-0.478,0.449-0.596,0.749c-0.779,1.994,2.364,9.41,5.05,8.772
						c6.812-1.619,13.503-6.118,19.183-10.024c3.502-2.408,7.073-4.833,10.003-7.942c2.592-2.751,5.424-7.288,4.621-11.238
						c-1.133-5.568-8.187-6.168-12.475-4.194C184.649,206.783,182.687,208.14,181.007,209.786z"/>
				</g>
			</g>
		</g>
		<g id="XMLID_117_">
			<g id="XMLID_378_">
				<g id="XMLID_1422_">
					<path id="XMLID_2316_" style="fill:#F09B86;" d="M145.45,183.726c-2.403,2.213-4.148,5.203-3.424,8.567
						c0.346,1.607,2.88,1.21,2.532-0.407c-0.531-2.467,0.759-4.558,2.521-6.179C148.288,184.594,146.669,182.604,145.45,183.726z"/>
				</g>
			</g>
		</g>
		<g id="XMLID_17_">
			<g id="XMLID_33_">
				<g id="XMLID_989_">
					<path id="XMLID_2312_" style="fill:#8CC9DE;" d="M172.059,204.683h-24.487c-0.967,0-1.752-0.784-1.752-1.752v-35.345
						c0-0.968,0.784-1.752,1.752-1.752h25.246c0.548,0,0.993,0.445,0.993,0.993v36.104
						C173.811,203.899,173.026,204.683,172.059,204.683z"/>
				</g>
			</g>
		</g>
		<g id="XMLID_59_">
			<g id="XMLID_60_">
				<g id="XMLID_371_">
					<g id="XMLID_62_">
						<path id="XMLID_2308_" style="fill:#F09B86;" d="M155.715,182.975c-3.837,0.853-7.286,1.84-10.728,4.601
							c-2.139,1.716-0.084,3.284,1.354,2.317c3.089-2.077,6.454-3.523,10.087-4.331C158.114,185.188,157.4,182.6,155.715,182.975z"
							/>
					</g>
				</g>
			</g>
			<g id="XMLID_95_">
				<g id="XMLID_369_">
					<g id="XMLID_65_">
						<path id="XMLID_2304_" style="fill:#F09B86;" d="M158.502,185.589c-4.389,1.11-8.488,3.044-12.556,4.992
							c-1.557,0.745-0.197,3.06,1.354,2.317c3.865-1.851,7.743-3.666,11.914-4.721C160.889,187.754,160.18,185.165,158.502,185.589z
							"/>
					</g>
				</g>
			</g>
			<g id="XMLID_108_">
				<g id="XMLID_367_">
					<g id="XMLID_66_">
						<path id="XMLID_2300_" style="fill:#F09B86;" d="M158.327,189.291c-0.827-0.19-1.695,0.167-2.485,0.401
							c-0.997,0.295-1.979,0.638-2.943,1.026c-1.893,0.764-3.705,1.677-5.442,2.749c-1.467,0.906-0.12,3.228,1.354,2.317
							c1.448-0.894,2.948-1.701,4.519-2.36c0.758-0.318,1.529-0.603,2.309-0.859c0.38-0.125,0.762-0.243,1.146-0.354
							c0.1-0.029,0.816-0.178,0.892-0.276c0.431,0.086,0.9-0.021,1.203-0.359c0.013-0.014,0.026-0.029,0.039-0.043
							C159.559,190.819,159.362,189.529,158.327,189.291z"/>
					</g>
				</g>
			</g>
			<g id="XMLID_109_">
				<g id="XMLID_365_">
					<g id="XMLID_67_">
						<path id="XMLID_2296_" style="fill:#F09B86;" d="M156.543,192.99c-2.928,0.89-5.385,2.158-7.993,3.733
							c-1.476,0.891-0.129,3.213,1.354,2.317c2.405-1.452,4.652-2.641,7.352-3.462C158.904,195.076,158.202,192.486,156.543,192.99z
							"/>
					</g>
				</g>
			</g>
		</g>
		<g id="XMLID_61_">
			<g id="XMLID_362_">
				<g id="XMLID_68_">
					<path id="XMLID_2291_" style="fill:#F09B86;" d="M151.08,196.531c0.258,0.335,0.288,0.809,0.258,1.23
						c-0.039,0.543-0.353,1.023-0.666,1.469c-1.229,1.745-2.72,3.457-4.745,4.132c-1.819,0.607-3.93,0.247-5.445-0.93
						c-1.515-1.176-2.524-1.22-2.387-3.132c0.059-0.823,0.956-3.149,1.263-3.914c0.779-1.944,3.534-7.365,6.054-7.841
						C147.28,187.192,148.427,193.08,151.08,196.531z"/>
				</g>
			</g>
		</g>
		<g id="XMLID_16_">
			<g id="XMLID_91_">
				<g id="XMLID_85_">
					<path id="XMLID_2283_" style="fill:#222221;" d="M161.233,169.424c0,0.635-0.514,1.149-1.149,1.149
						c-0.635,0-1.149-0.514-1.149-1.149c0-0.634,0.514-1.149,1.149-1.149C160.719,168.276,161.233,168.79,161.233,169.424z"/>
				</g>
			</g>
		</g>
		<path style="fill:#D16E4F;" d="M93.646,212.984c3.958-0.738,7.975-0.916,11.978-1.44c4.988-0.653,9.924-1.523,14.936-1.993
			c0.039-0.038,0.085-0.068,0.119-0.112c0.277-0.35,0.354-0.814,0.415-1.257c1.27-9.303-0.993-19.067-2.222-28.281
			c-0.036-0.272-0.089-0.575-0.309-0.74c-0.225-0.169-0.537-0.13-0.815-0.083c-5.005,0.844-10.167,1.747-14.427,4.507
			c-0.423,0.274-0.806,0.597-1.204,0.903c-2.465,2.295-4.507,4.944-5.797,7.409c-3.478,6.641-3.325,13.866-2.836,21.101
			C93.537,212.993,93.592,212.988,93.646,212.984z"/>
		<path style="fill:none;stroke:#222221;stroke-linecap:round;stroke-linejoin:round;stroke-miterlimit:10;" d="M195.3,208.801
			c0.86,0.093,1.648,0.682,1.981,1.481c0.332,0.799,0.195,1.773-0.345,2.449"/>
		<path style="fill:none;stroke:#222221;stroke-linecap:round;stroke-linejoin:round;stroke-miterlimit:10;" d="M112.889,242.907
			c0.301,0.958,1.082,1.753,2.034,2.072c0.953,0.319,2.054,0.154,2.871-0.43"/>
		<g id="XMLID_26_">
			<g id="XMLID_27_">
				<path style="fill:#222221;" d="M128.373,167.242c0.371-1.632,0.742-3.263,1.187-4.875c0.586-2.123,1.295-4.223,2.305-6.186
					c0.911-1.77,1.521-3.51,2.357-5.295c0.929-1.986,3.098-3.386,5.233-3.637c1.445-0.171,2.92-0.048,4.352-0.308
					c2.1-0.381,4.128-1.732,4.813-3.754c0.685-2.021-0.388-4.615-2.454-5.15c-1.685-0.436-3.105,0.53-4.722,0.699
					c-1.708,0.179-2.268-0.306-3.808-0.588c-3.384-0.62-6.241,0.236-9.352,1.627c-2.062,0.922-4.124,1.844-6.186,2.766
					c-1.391,0.622-2.816,1.267-3.892,2.345c-2.63,2.635-2.428,6.952-4.161,10.247c-1.458,2.773-4.263,4.758-5.282,7.72
					c-0.441,1.281-0.513,2.66-0.883,3.962c-0.574,2.022-1.859,3.848-2.035,5.942c-0.296,3.532,4.604,5.349,7.418,5.854
					c1.712,0.307,3.449,0.481,5.188,0.52c2.056,0.046,4.954,0.072,6.483-1.528c0.59-0.618,0.929-1.429,1.223-2.231
					C127.127,172.727,127.749,169.985,128.373,167.242z"/>
			</g>
		</g>
		<path style="fill:#F09B86;" d="M131.371,159.86c-1.263,0.416-2.705,0.249-3.839-0.445c-0.523-0.32-0.988-0.755-1.261-1.304
			c-0.352-0.708-0.354-1.555-0.121-2.31c0.575-1.868,2.661-3.133,4.583-2.779c1.464,0.27,1.86,1.129,2.411,2.513
			C133.694,156.919,132.173,158.606,131.371,159.86z"/>
		<path style="fill:none;stroke:#222221;stroke-linecap:round;stroke-linejoin:round;stroke-miterlimit:10;" d="M142.122,233.984
			c0.433,4.941,0.489,9.914,0.167,14.863c-0.137,2.111-0.354,4.261-1.21,6.196c-0.856,1.935-2.458,3.648-4.518,4.13"/>
		<path style="fill:#F09B86;" d="M162.446,229.471c-1.016,0.338-2.037,0.624-3.067,0.809c-0.906,0.162-1.811,0.325-2.717,0.487
			c-1.026,0.184-2.648,0.38-3.303,1.3c-0.714,1.002-0.401,2.707-0.189,3.808c0.334,1.736,0.7,3.519,1.675,4.993
			c1.412,2.134,3.418,2.672,5.673,1.598c2.969-1.413,5.936-2.864,8.572-4.841c2.369-1.777,4.841-3.925,5.272-6.855
			c0.23-1.564-0.359-3.408-1.826-3.997c-1.039-0.418-2.214-0.109-3.284,0.221C166.983,227.696,164.728,228.712,162.446,229.471z"/>
		<path style="fill:#F09B86;" d="M159.676,240.03c-3.438,1.427-6.977,2.187-10.675,2.315c-0.206-0.063-0.429-0.091-0.686-0.03
			c-0.176,0.042-0.351,0.083-0.527,0.125c-1.445,0.342-1.122,2.583,0.348,2.573c4.242-0.028,8.315-0.829,12.237-2.456
			C161.908,241.919,161.234,239.383,159.676,240.03z"/>
		<path style="fill:#F09B86;" d="M157.484,233.802c-4.39,0.935-8.808,1.666-13.268,2.174c-1.656,0.189-1.675,2.811,0,2.62
			c4.693-0.535,9.345-1.284,13.965-2.268C159.828,235.978,159.131,233.451,157.484,233.802z"/>
		<path style="fill:#F09B86;" d="M155.58,237.631c-3.349,0.814-6.723,1.25-10.169,1.316c-1.684,0.032-1.689,2.652,0,2.62
			c3.675-0.071,7.294-0.541,10.865-1.409C157.914,239.759,157.22,237.232,155.58,237.631z"/>
		<path style="fill:#F09B86;" d="M156.937,230.893l-12.505,1.741c-1.663,0.232-0.955,2.757,0.697,2.527l12.505-1.741
			C159.296,233.188,158.588,230.663,156.937,230.893z"/>
		<path style="fill:none;stroke:#222221;stroke-linecap:round;stroke-linejoin:round;stroke-miterlimit:10;" d="M132.366,301.75
			c2.813-7.531,5.791-16.431,8-24.161"/>
		<path style="fill:none;stroke:#222221;stroke-linecap:round;stroke-linejoin:round;stroke-miterlimit:10;" d="M98.526,322.387
			c2.895,1.303,6.04,2.047,9.212,2.176"/>
		<path style="fill:none;stroke:#222221;stroke-linecap:round;stroke-linejoin:round;stroke-miterlimit:10;" d="M155.103,326.608
			c2.639,0.45,5.411,0.08,7.84-1.047"/>
		<path style="fill:none;stroke:#222221;stroke-linecap:round;stroke-linejoin:round;stroke-miterlimit:10;" d="M128.521,154.777
			c0.784-0.3,1.743-0.063,2.297,0.568c0.553,0.631,0.663,1.613,0.262,2.351"/>
		<path style="fill:none;stroke:#222221;stroke-linecap:round;stroke-linejoin:round;stroke-miterlimit:10;" d="M139.65,159.324
			c1.296,0.514,2.835,0.367,4.011-0.383"/>
		<path style="fill:none;stroke:#222221;stroke-linecap:round;stroke-linejoin:round;stroke-miterlimit:10;" d="M116.838,209.657
			c0.458-0.038,0.916-0.077,1.374-0.115c-1.771-5.321-2.413-11.014-1.871-16.596"/>
		<path style="fill:none;stroke:#222221;stroke-linecap:round;stroke-linejoin:round;stroke-miterlimit:10;" d="M177.083,214.838
			c2.054-2.091,4.446-3.848,7.055-5.184"/>
		<path style="fill:none;stroke:#222221;stroke-linecap:round;stroke-linejoin:round;stroke-miterlimit:10;" d="M120.422,217.436
			c-0.595,2.696-1.327,5.361-2.194,7.982"/>
		<path style="fill:none;stroke:#222221;stroke-linecap:round;stroke-linejoin:round;stroke-miterlimit:10;" d="M146.012,164.092
			c-2.691,1.626-6.053,2.101-9.088,1.283"/>
		<path style="fill:none;stroke:#222221;stroke-linecap:round;stroke-linejoin:round;stroke-miterlimit:10;" d="M145.658,183.989
			c-2.212,1.612-3.709,4.171-4.029,6.89"/>
		<path style="fill:none;stroke:#222221;stroke-linecap:round;stroke-linejoin:round;stroke-miterlimit:10;" d="M150.364,199.427
			c-0.909,1.878-2.483,3.425-4.377,4.301"/>
	</g>
	<g>
		<g>
			<path style="fill:#222221;" d="M272.797,384.247L272.797,384.247c0.669,1.419,0.251,3.023-0.934,3.582l-35.359,16.674
				c-1.185,0.559-2.688-0.139-3.357-1.558l0,0c-0.669-1.419-0.251-3.022,0.934-3.581l35.361-16.674
				C270.625,382.13,272.128,382.828,272.797,384.247z"/>
			<path style="fill:#F5E3DA;stroke:#222221;stroke-linecap:round;stroke-miterlimit:10;" d="M294.432,382.964
				c-1.046,8.899-9.108,15.266-18.007,14.221c-8.9-1.046-15.266-9.108-14.221-18.007c1.046-8.9,9.108-15.266,18.007-14.221
				C289.111,366.003,295.477,374.065,294.432,382.964z"/>
			<path style="fill:#8CC9DE;" d="M291.372,382.605c-0.847,7.209-7.378,12.367-14.588,11.52s-12.367-7.378-11.52-14.588
				c0.847-7.209,7.378-12.367,14.588-11.52C287.061,368.864,292.219,375.395,291.372,382.605z"/>
		</g>
		<path style="fill:none;stroke:#222221;stroke-linecap:round;stroke-linejoin:round;stroke-miterlimit:10;" d="M268.125,382.022
			c1.151,5.308,6.221,9.061,11.62,8.627"/>
	</g>
	<g>
		<rect x="234.34" y="292.807" style="fill:#F5B09F;" width="119.056" height="62.11"/>
		<g>
			<g>
				
					<polyline style="fill:none;stroke:#222221;stroke-width:2;stroke-linecap:round;stroke-linejoin:round;stroke-miterlimit:10;" points="
					239.352,319.817 274.047,304.929 289.591,323.179 354.264,293.884 				"/>
				<polygon style="fill:#222221;" points="342.051,292.197 357.595,291.722 351.489,303.729 				"/>
			</g>
			<g>
				<rect x="241.85" y="322.699" style="fill:#4764A8;" width="6.586" height="29.056"/>
				<rect x="254.063" y="316.144" style="fill:#4764A8;" width="6.688" height="35.61"/>
				<rect x="266.276" y="311.648" style="fill:#4764A8;" width="6.444" height="40.106"/>
				<rect x="278.489" y="319.349" style="fill:#4764A8;" width="5.955" height="32.405"/>
				<rect x="290.702" y="325.983" style="fill:#4764A8;" width="6.814" height="25.772"/>
				<rect x="302.914" y="322.699" style="fill:#4764A8;" width="6.586" height="29.056"/>
				<rect x="315.127" y="314.956" style="fill:#4764A8;" width="6.559" height="36.799"/>
				<rect x="327.34" y="309.874" style="fill:#4764A8;" width="6.188" height="41.881"/>
				<rect x="339.553" y="304.887" style="fill:#4764A8;" width="6.54" height="46.867"/>
			</g>
		</g>
		<path style="fill:none;stroke:#000000;stroke-linecap:round;stroke-miterlimit:10;" d="M334.694,355.19
			c7.249,0.138,9.249,0.138,16.125,0"/>
		<path style="fill:none;stroke:#000000;stroke-linecap:round;stroke-miterlimit:10;" d="M248.125,355.19
			c27.818,0.138,34.818,0.138,62.501,0"/>
	</g>
	<g>
		<g>
			<g>
				<rect x="168.195" y="77.19" style="fill:#F5B09F;" width="121.436" height="59.64"/>
			</g>
			<g>
				
					<line style="fill:none;stroke:#FFFFFF;stroke-width:3;stroke-linecap:round;stroke-miterlimit:10;" x1="183.92" y1="90.622" x2="282.337" y2="90.622"/>
				
					<line style="fill:none;stroke:#FFFFFF;stroke-width:3;stroke-linecap:round;stroke-miterlimit:10;" x1="183.92" y1="104.108" x2="282.337" y2="104.108"/>
				
					<line style="fill:none;stroke:#FFFFFF;stroke-width:3;stroke-linecap:round;stroke-miterlimit:10;" x1="183.92" y1="117.593" x2="282.337" y2="117.593"/>
			</g>
		</g>
		<g>
			<g>
				<rect x="193.059" y="95.838" style="fill:#D16E4F;" width="121.436" height="59.64"/>
			</g>
			<g>
				
					<line style="fill:none;stroke:#FFFFFF;stroke-width:3;stroke-linecap:round;stroke-miterlimit:10;" x1="208.783" y1="109.27" x2="307.201" y2="109.27"/>
				
					<line style="fill:none;stroke:#FFFFFF;stroke-width:3;stroke-linecap:round;stroke-miterlimit:10;" x1="208.783" y1="122.755" x2="307.201" y2="122.755"/>
				
					<line style="fill:none;stroke:#FFFFFF;stroke-width:3;stroke-linecap:round;stroke-miterlimit:10;" x1="208.783" y1="136.241" x2="307.201" y2="136.241"/>
			</g>
		</g>
		<path style="fill:none;stroke:#000000;stroke-linecap:round;stroke-miterlimit:10;" d="M280.494,155.067
			c7.665-0.012,15.665-0.012,23.563,0"/>
		<path style="fill:none;stroke:#000000;stroke-linecap:round;stroke-miterlimit:10;" d="M199.078,155.067
			c25.08-0.012,49.08-0.012,74.28,0"/>
		
			<line style="fill:none;stroke:#000000;stroke-linecap:round;stroke-miterlimit:10;" x1="192.517" y1="100.506" x2="192.517" y2="146.779"/>
	</g>
	<g>
		<rect x="320.24" y="155.585" style="fill:#F5B09F;" width="121.435" height="60.546"/>
		<g>
			<g>
				
					<rect x="437.05" y="173.345" transform="matrix(0.4831 -0.8756 0.8756 0.4831 54.2131 494.8029)" style="fill:#D16E4F;" width="18.226" height="56.285"/>
				<polygon style="fill:#EDBF34;" points="403.687,178.053 417.12,195.872 425.924,179.914 				"/>
				<polygon style="fill:#FFFFFF;" points="403.687,178.053 417.12,195.872 425.924,179.914 				"/>
				<polygon style="fill:#222221;" points="410.05,186.493 414.22,178.934 403.687,178.053 				"/>
				
					<line style="fill:none;stroke:#222221;stroke-linecap:round;stroke-linejoin:round;stroke-miterlimit:10;" x1="469.509" y1="217.429" x2="419.758" y2="189.98"/>
				
					<line style="fill:none;stroke:#222221;stroke-linecap:round;stroke-linejoin:round;stroke-miterlimit:10;" x1="472.098" y1="212.736" x2="422.347" y2="185.287"/>
			</g>
			<rect x="327.719" y="164.838" style="fill:#FFFFFF;" width="19.683" height="19.683"/>
			<rect x="363.977" y="164.838" style="fill:#FFFFFF;" width="19.683" height="19.683"/>
			<rect x="327.719" y="187.629" style="fill:#FFFFFF;" width="19.683" height="19.683"/>
			<rect x="363.977" y="187.629" style="fill:#FFFFFF;" width="19.683" height="19.683"/>
			<g>
				
					<polyline style="fill:none;stroke:#222221;stroke-width:2;stroke-linecap:round;stroke-linejoin:round;stroke-miterlimit:10;" points="
					328.754,169.874 339.114,180.233 353.618,162.622 				"/>
				
					<polyline style="fill:none;stroke:#222221;stroke-width:2;stroke-linecap:round;stroke-linejoin:round;stroke-miterlimit:10;" points="
					328.754,192.665 339.114,203.025 353.618,185.413 				"/>
			</g>
			<g>
				
					<polyline style="fill:none;stroke:#222221;stroke-width:2;stroke-linecap:round;stroke-linejoin:round;stroke-miterlimit:10;" points="
					367.085,169.874 377.445,180.233 391.949,162.622 				"/>
				
					<polyline style="fill:none;stroke:#222221;stroke-width:2;stroke-linecap:round;stroke-linejoin:round;stroke-miterlimit:10;" points="
					367.085,192.665 377.445,203.025 391.949,185.413 				"/>
			</g>
			<polyline style="fill:none;stroke:#222221;stroke-linecap:round;stroke-linejoin:round;stroke-miterlimit:10;" points="
				449.438,193.743 475.206,207.104 466.401,223.061 432.862,204.448 			"/>
		</g>
		<path style="fill:none;stroke:#000000;stroke-linecap:round;stroke-linejoin:round;stroke-miterlimit:10;" d="M404.288,215.894
			c5.352,0,10.704,0,16.056,0"/>
		<path style="fill:none;stroke:#000000;stroke-linecap:round;stroke-linejoin:round;stroke-miterlimit:10;" d="M330.474,215.894
			c21.685,0.161,44.685,0.161,66.777,0"/>
	</g>
	<g>
		<rect x="288.713" y="222.471" style="fill:#F5B09F;" width="121.435" height="62.239"/>
		<g>
			<g>
				<circle style="fill:#FFFFFF;" cx="321.23" cy="256.156" r="19.9"/>
				<path style="fill:#D16E4F;" d="M321.23,256.156l-0.793-26.867c0.264-0.008,0.529-0.012,0.793-0.012
					c14.745,0,26.879,12.134,26.879,26.879H321.23z"/>
				<path style="fill:#4764A8;" d="M321.23,256.156l-14.175,18.557c-0.298-0.228-0.591-0.463-0.879-0.705
					c-5.229-4.409-8.265-10.9-8.298-17.739L321.23,256.156z"/>
			</g>
			<g>
				<defs>
					<path id="SVGID_1_" d="M400.435,257.722c-2.012,10.528-12.215,17.456-22.743,15.443c-10.528-2.012-17.456-12.215-15.444-22.743
						c2.012-10.528,12.215-17.456,22.743-15.443C395.52,236.992,402.448,247.194,400.435,257.722z M370.929,252.082
						c-1.098,5.742,2.681,11.306,8.423,12.404c5.742,1.098,11.306-2.681,12.404-8.423c1.098-5.742-2.681-11.306-8.423-12.403
						C377.591,242.561,372.027,246.34,370.929,252.082z"/>
				</defs>
				<clipPath id="SVGID_00000071556265664235912970000005871212626147051672_">
					<use xlink:href="#SVGID_1_"  style="overflow:visible;"/>
				</clipPath>
				<g style="clip-path:url(#SVGID_00000071556265664235912970000005871212626147051672_);">
					<g>
						<path style="fill:#D16E4F;" d="M400.435,257.722c-2.012,10.528-12.215,17.456-22.743,15.443
							c-10.528-2.012-17.456-12.215-15.444-22.743c2.012-10.528,12.215-17.456,22.743-15.443
							C395.52,236.992,402.448,247.194,400.435,257.722z M370.929,252.082c-1.098,5.742,2.681,11.306,8.423,12.404
							c5.742,1.098,11.306-2.681,12.404-8.423c1.098-5.742-2.681-11.306-8.423-12.403
							C377.591,242.561,372.027,246.34,370.929,252.082z"/>
					</g>
					<g>
						<defs>
							<path id="SVGID_00000114044330004952657380000004219179203504607362_" d="M400.435,257.722
								c-2.012,10.528-12.215,17.456-22.743,15.443c-10.528-2.012-17.456-12.215-15.444-22.743
								c2.012-10.528,12.215-17.456,22.743-15.443C395.52,236.992,402.448,247.194,400.435,257.722z M371.125,252.119
								c-1.077,5.633,2.63,11.093,8.264,12.17c5.634,1.077,11.093-2.63,12.17-8.264c1.077-5.633-2.63-11.093-8.264-12.17
								C377.662,242.779,372.202,246.486,371.125,252.119z"/>
						</defs>
						<clipPath id="SVGID_00000042016037066038780230000004633383747951320226_">
							<use xlink:href="#SVGID_00000114044330004952657380000004219179203504607362_"  style="overflow:visible;"/>
						</clipPath>
						<polygon style="clip-path:url(#SVGID_00000042016037066038780230000004633383747951320226_);fill:#FFFFFF;" points="
							354.579,248.719 381.505,254.311 366.5,230.868 						"/>
						
							<polygon style="clip-path:url(#SVGID_00000042016037066038780230000004633383747951320226_);fill:#8CC9DE;stroke:#8CC9DE;stroke-miterlimit:10;" points="
							361.608,236.938 383.616,253.428 381.06,227.872 						"/>
						<polygon style="clip-path:url(#SVGID_00000042016037066038780230000004633383747951320226_);fill:#4764A8;" points="
							380.162,228.639 381.256,254.231 402.152,237.843 						"/>
						<polygon style="clip-path:url(#SVGID_00000042016037066038780230000004633383747951320226_);" points="390.774,277.749 
							381.907,254.388 368.436,274.729 						"/>
					</g>
				</g>
			</g>
			<path style="fill:none;stroke:#222221;stroke-linecap:round;stroke-linejoin:round;stroke-miterlimit:10;" d="M324.599,275.698
				c-3.616,0.675-7.381,0.299-10.794-1.073"/>
			<path style="fill:none;stroke:#222221;stroke-linecap:round;stroke-linejoin:round;stroke-miterlimit:10;" d="M339.866,262.964
				c-2.011,5.257-6.242,9.516-11.454,11.622"/>
			<path style="fill:none;stroke:#222221;stroke-linecap:round;stroke-linejoin:round;stroke-miterlimit:10;" d="M374.76,256.306
				c0.617,2.208,2.301,3.929,4.51,4.563"/>
			<path style="fill:none;stroke:#222221;stroke-linecap:round;stroke-linejoin:round;stroke-miterlimit:10;" d="M380.315,247.041
				c-2.865,0.413-5.021,2.64-5.642,5.423"/>
			<path style="fill:none;stroke:#222221;stroke-linecap:round;stroke-linejoin:round;stroke-miterlimit:10;" d="M384.152,260.581
				c4.55-2.111,5.668-8.503,1.863-11.861"/>
		</g>
		<path style="fill:none;stroke:#000000;stroke-linecap:round;stroke-miterlimit:10;" d="M298.877,282.491"/>
		<path style="fill:none;stroke:#000000;stroke-linecap:round;stroke-miterlimit:10;" d="M381.724,284.563
			c6.686,0,13.373,0,20.059,0"/>
		<path style="fill:none;stroke:#000000;stroke-linecap:round;stroke-miterlimit:10;" d="M300.603,284.563
			c4.36,0.084,1.721,0.154,6.081,0.209"/>
	</g>
	<g>
		<g>
			<path style="fill:none;stroke:#000000;stroke-linecap:round;stroke-linejoin:round;stroke-miterlimit:10;" d="M236.841,176.949
				l-4.87,6.356c-0.3,0.497-0.473,1.078-0.473,1.698v32.535c0,1.839,1.517,3.33,3.388,3.33l31.317-0.117
				c0.422,0.027,2.087,0.078,2.878-0.7c1.14-1.121,3.999-3.505,5.264-4.551c0.335-0.277,0.355-0.772,0.048-1.079L236.841,176.949z"
				/>
			<path style="fill:#8CC9DE;stroke:#8CC9DE;stroke-miterlimit:10;" d="M272.826,215.732h-33.283c-1.82,0-3.295-1.475-3.295-3.296
				v-33.534c0-1.82,1.475-3.296,3.296-3.296h33.283c1.82,0,3.295,1.475,3.295,3.296v33.534
				C276.121,214.257,274.646,215.732,272.826,215.732z"/>
			<path style="fill:none;stroke:#000000;stroke-miterlimit:10;" d="M276.121,212.437c0,1.82-1.475,3.296-3.295,3.296h-8.136"/>
			<line style="fill:none;stroke:#000000;stroke-miterlimit:10;" x1="276.121" y1="186.491" x2="276.121" y2="202.376"/>
			<path style="fill:none;stroke:#000000;stroke-miterlimit:10;" d="M236.247,187.527v-8.624c0-1.82,1.475-3.296,3.296-3.296h33.283
				c1.82,0,3.295,1.475,3.295,3.296"/>
			<path style="fill:none;stroke:#000000;stroke-miterlimit:10;" d="M252.258,215.732h-12.716c-1.82,0-3.295-1.475-3.295-3.296
				v-12.478"/>
		</g>
		<g>
			<polygon style="fill:none;stroke:#000000;stroke-miterlimit:10;" points="267.525,192.171 256.607,181.673 244.74,192.171 
				250.436,192.171 250.436,209.201 261.829,209.201 261.829,192.171 			"/>
		</g>
	</g>
	<g>
		<g>
			<path style="fill:#D16E4F;" d="M369.514,389.538c-0.144-9.257-8.014-16.582-17.373-15.93c-7.894,0.55-14.371,6.922-15.014,14.809
				c-0.464,5.681,1.992,10.784,6.01,14.013c2.463,1.979,4.139,4.77,4.516,7.907l1.049,8.73l10.093-0.157l0.776-8.761
				c0.277-3.13,1.836-5.973,4.23-8.009C367.361,399.111,369.593,394.578,369.514,389.538z"/>
			<path style="fill:none;stroke:#222221;stroke-linecap:round;stroke-miterlimit:10;" d="M356.478,413.045
				c0.671-3.639,1.341-7.279,2.012-10.919c0.477-2.585,0.953-5.171,1.429-7.756c0.364-1.972,2.125-5.648-1.084-6.279
				c-1.197-0.235-2.553,0.774-2.457,1.99c0.022,0.27,0.112,0.543,0.299,0.739c0.529,0.555,1.601,0.126,1.777-0.62
				c0.176-0.746-0.361-1.521-1.057-1.842c-1.328-0.61-3.111,0.376-3.3,1.825c-0.018,0.14-0.021,0.293,0.058,0.409
				c0.189,0.279,0.654,0.111,0.829-0.177c0.366-0.602,0.001-1.45-0.62-1.782c-0.621-0.332-1.389-0.25-2.049-0.004
				c-0.972,0.362-1.906,1.362-1.537,2.332c0.071,0.187,0.207,0.37,0.402,0.413c0.118,0.026,0.242-0.004,0.352-0.053
				c1.881-0.849-0.699-3.659-2.481-2.776c-1.067,0.528-1.622,1.773-1.676,2.962c-0.054,1.189,0.304,2.353,0.631,3.498
				c1.591,5.571,2.531,11.329,2.794,17.117c0.034,0.739-0.05,0.747-0.31,1.44"/>
			<path style="fill:none;stroke:#222221;stroke-linecap:round;stroke-miterlimit:10;" d="M328.396,385.612
				c2.93,0.408,1.982,0.276,4.962,0.69"/>
			
				<line style="fill:none;stroke:#222221;stroke-linecap:round;stroke-miterlimit:10;" x1="332.761" y1="373.541" x2="336.559" y2="376.993"/>
			<path style="fill:none;stroke:#222221;stroke-linecap:round;stroke-miterlimit:10;" d="M348.453,365.721
				c0.247,1.271,0.498,3.368,0.745,4.639"/>
			<path style="fill:none;stroke:#222221;stroke-linecap:round;stroke-miterlimit:10;" d="M359.097,365.273
				c-0.359,2.731-0.605,4.604-0.751,5.715"/>
			<path style="fill:none;stroke:#222221;stroke-linecap:round;stroke-miterlimit:10;" d="M374.427,376.237
				c-2.515,1.762-2.343,1.642-4.932,3.456"/>
			<path style="fill:none;stroke:#222221;stroke-linecap:round;stroke-miterlimit:10;" d="M373.348,387.412
				c3.036,0.2,2.281,0.15,5.335,0.351"/>
			<path style="fill:none;stroke:#222221;stroke-linecap:round;stroke-miterlimit:10;" d="M362.064,379.38
				c3.042,2.204,4.874,5.984,4.718,9.738"/>
			<path style="fill:none;stroke:#222221;stroke-linecap:round;stroke-miterlimit:10;" d="M366.106,394.56
				c-0.541,1.837-1.569,3.529-2.949,4.857"/>
		</g>
		<path style="fill:#4764A8;" d="M357.759,422.721h-8.43c-0.947,0-1.714-0.768-1.714-1.714v-8.667h11.859v8.667
			C359.473,421.953,358.706,422.721,357.759,422.721z"/>
	</g>
	<g>
		<g>
			<path style="fill:#8CC9DE;stroke:#8CC9DE;stroke-miterlimit:10;" d="M411.151,331.448c-0.142,0.005-0.282,0.022-0.427,0.012
				c-2.165-0.155-3.776-2.016-3.598-4.157c0.177-2.141,2.076-3.751,4.241-3.596c0.148,0.01,0.287,0.048,0.429,0.074
				c-0.123-1.495-0.395-2.99-0.819-4.466c-0.114,0.069-0.22,0.149-0.343,0.208c-1.963,0.937-4.307,0.13-5.236-1.802
				c-0.928-1.931-0.09-4.256,1.873-5.193c0.132-0.063,0.269-0.098,0.404-0.146c-0.881-1.261-1.873-2.416-2.958-3.456
				c-0.066,0.12-0.12,0.244-0.2,0.359c-1.236,1.777-3.685,2.241-5.471,1.036c-1.786-1.205-2.232-3.621-0.996-5.398
				c0.087-0.125,0.193-0.229,0.292-0.341c-1.392-0.645-2.845-1.156-4.339-1.524c0.004,0.144,0.021,0.287,0.008,0.435
				c-0.177,2.141-2.076,3.751-4.24,3.596c-2.165-0.155-3.775-2.016-3.598-4.157c0.014-0.168,0.056-0.326,0.091-0.486
				c-1.533,0.127-3.067,0.404-4.585,0.836c0.088,0.135,0.182,0.265,0.254,0.414c0.929,1.932,0.09,4.257-1.873,5.193
				c-1.963,0.936-4.308,0.13-5.237-1.802c-0.081-0.169-0.132-0.345-0.187-0.519c-1.317,0.896-2.522,1.906-3.608,3.01
				c0.165,0.08,0.332,0.157,0.489,0.263c1.786,1.204,2.232,3.621,0.996,5.398c-1.236,1.777-3.685,2.241-5.471,1.036
				c-0.17-0.115-0.316-0.249-0.462-0.384c-0.686,1.414-1.231,2.89-1.624,4.407c0.198-0.016,0.396-0.031,0.599-0.017
				c2.164,0.155,3.776,2.016,3.598,4.157c-0.177,2.141-2.076,3.751-4.24,3.596c-0.219-0.016-0.428-0.06-0.634-0.11
				c0.118,1.545,0.393,3.09,0.833,4.616c0.17-0.116,0.341-0.231,0.533-0.322c1.963-0.936,4.307-0.13,5.236,1.802
				c0.929,1.932,0.09,4.257-1.873,5.193c-0.2,0.095-0.406,0.161-0.613,0.221c0.91,1.304,1.939,2.493,3.066,3.561
				c0.089-0.184,0.18-0.367,0.301-0.54c1.236-1.777,3.686-2.241,5.471-1.036c1.786,1.204,2.232,3.621,0.996,5.398
				c-0.121,0.174-0.263,0.325-0.405,0.474c1.429,0.655,2.921,1.169,4.455,1.534c-0.013-0.19-0.027-0.381-0.011-0.577
				c0.177-2.141,2.076-3.751,4.24-3.596c2.165,0.155,3.775,2.016,3.598,4.157c-0.016,0.195-0.062,0.38-0.105,0.566
				c1.545-0.14,3.092-0.432,4.621-0.883c-0.096-0.145-0.197-0.286-0.275-0.447c-0.929-1.931-0.09-4.256,1.873-5.193
				c1.963-0.937,4.308-0.13,5.236,1.802c0.076,0.157,0.121,0.32,0.174,0.482c1.296-0.899,2.482-1.909,3.55-3.012
				c-0.14-0.072-0.284-0.134-0.417-0.224c-1.786-1.204-2.232-3.621-0.996-5.398c1.236-1.777,3.686-2.241,5.471-1.036
				c0.131,0.089,0.24,0.196,0.356,0.297C410.251,334.376,410.773,332.931,411.151,331.448z M390.348,336.748
				c-6.054,1.315-12.015-2.473-13.288-8.444c-1.272-5.971,2.618-11.9,8.672-13.214c6.054-1.315,12.015,2.473,13.287,8.445
				C400.292,329.506,396.402,335.434,390.348,336.748z"/>
			<path style="fill:none;stroke:#222221;stroke-linecap:round;stroke-linejoin:round;stroke-miterlimit:10;" d="M385.078,312.018
				c7.771-1.688,15.423,3.175,17.056,10.841c1.633,7.665-3.36,15.274-11.132,16.962c-7.771,1.688-15.424-3.174-17.057-10.84
				C372.312,321.315,377.307,313.706,385.078,312.018z"/>
		</g>
		<g>
			<g>
				<g>
					<g>
						<g>
							<g>
								<path style="fill:#8CC9DE;stroke:#8CC9DE;stroke-miterlimit:10;" d="M446.084,323.851c-0.707-1.011-1.501-1.937-2.371-2.77
									c-0.053,0.096-0.096,0.196-0.16,0.288c-0.991,1.424-2.954,1.796-4.385,0.831c-1.431-0.965-1.789-2.903-0.798-4.327
									c0.07-0.1,0.155-0.184,0.234-0.273c-1.116-0.517-2.28-0.927-3.477-1.222c0.004,0.116,0.016,0.23,0.007,0.348
									c-0.142,1.716-1.664,3.007-3.398,2.883c-1.735-0.124-3.026-1.616-2.884-3.332c0.011-0.134,0.045-0.261,0.073-0.39
									c-1.228,0.102-2.458,0.324-3.675,0.67c0.07,0.108,0.146,0.212,0.204,0.332c0.744,1.548,0.072,3.411-1.501,4.162
									c-1.573,0.751-3.453,0.104-4.197-1.444c-0.065-0.136-0.106-0.276-0.15-0.416c-1.055,0.718-2.022,1.528-2.892,2.413
									c0.133,0.064,0.266,0.126,0.392,0.21c1.431,0.965,1.789,2.902,0.798,4.326c-0.991,1.424-2.954,1.796-4.385,0.831
									c-0.136-0.092-0.253-0.2-0.37-0.308c-0.549,1.133-0.987,2.316-1.302,3.532c0.158-0.013,0.317-0.025,0.48-0.014
									c1.735,0.124,3.026,1.616,2.884,3.332c-0.142,1.716-1.664,3.006-3.398,2.883c-0.176-0.013-0.343-0.048-0.508-0.088
									c0.095,1.238,0.315,2.477,0.667,3.7c0.136-0.093,0.274-0.185,0.427-0.259c1.573-0.751,3.452-0.104,4.197,1.444
									c0.744,1.548,0.072,3.412-1.501,4.162c-0.16,0.076-0.326,0.129-0.491,0.177c0.729,1.045,1.554,1.998,2.458,2.854
									c0.071-0.147,0.144-0.294,0.241-0.433c0.991-1.424,2.954-1.796,4.385-0.831c1.431,0.965,1.789,2.902,0.798,4.327
									c-0.097,0.14-0.21,0.261-0.325,0.38c1.145,0.525,2.341,0.938,3.571,1.229c-0.01-0.152-0.022-0.305-0.009-0.462
									c0.142-1.716,1.664-3.007,3.399-2.883c1.735,0.124,3.026,1.616,2.884,3.332c-0.013,0.156-0.049,0.305-0.084,0.454
									c1.238-0.112,2.478-0.346,3.703-0.707c-0.077-0.116-0.158-0.229-0.22-0.358c-0.744-1.548-0.072-3.412,1.501-4.162
									c1.573-0.751,3.453-0.104,4.197,1.444c0.061,0.126,0.097,0.257,0.139,0.386c1.039-0.721,1.989-1.53,2.845-2.414
									c-0.112-0.057-0.227-0.107-0.334-0.179c-1.432-0.965-1.789-2.902-0.798-4.327c0.99-1.424,2.954-1.796,4.385-0.831
									c0.105,0.071,0.192,0.157,0.286,0.238c0.527-1.111,0.946-2.27,1.248-3.458c-0.114,0.004-0.226,0.018-0.342,0.01
									c-1.735-0.124-3.026-1.616-2.884-3.332c0.142-1.716,1.664-3.007,3.399-2.882c0.119,0.009,0.23,0.039,0.344,0.059
									c-0.099-1.198-0.316-2.396-0.656-3.58c-0.092,0.056-0.176,0.119-0.275,0.166c-1.573,0.751-3.452,0.104-4.197-1.444
									c-0.744-1.548-0.072-3.411,1.501-4.162C445.866,323.917,445.976,323.889,446.084,323.851z M440.592,329.8
									c2.678,5.57,0.26,12.274-5.401,14.975c-5.661,2.701-12.422,0.375-15.1-5.195c-2.678-5.57-0.26-12.274,5.401-14.975
									C431.154,321.905,437.914,324.231,440.592,329.8z"/>
							</g>
						</g>
					</g>
				</g>
			</g>
			<path style="fill:none;stroke:#222221;stroke-linecap:round;stroke-linejoin:round;stroke-miterlimit:10;" d="M442.345,328.964
				c3.136,6.522,0.304,14.373-6.325,17.535c-6.629,3.162-14.546,0.438-17.682-6.084c-3.136-6.522-0.304-14.373,6.325-17.535
				C431.293,319.719,439.209,322.443,442.345,328.964z"/>
		</g>
	</g>
	<g>
		<path style="fill:none;stroke:#000000;stroke-linecap:round;stroke-linejoin:round;stroke-miterlimit:10;" d="M415.898,437.19
			c11.26-0.135,21.26-0.135,32.008,0"/>
		<path style="fill:none;stroke:#000000;stroke-linecap:round;stroke-linejoin:round;stroke-miterlimit:10;" d="M247.31,437.09
			c52.848-0.035,105.848-0.035,158.999,0.1"/>
		<path style="fill:none;stroke:#000000;stroke-linecap:round;stroke-linejoin:round;stroke-miterlimit:10;" d="M191.368,441.751
			c52.848-0.035,105.848-0.035,158.999,0.1"/>
		<path style="fill:none;stroke:#000000;stroke-linecap:round;stroke-linejoin:round;stroke-miterlimit:10;" d="M50.094,437.19
			c63.065-0.135,125.065-0.135,188.168-0.101"/>
	</g>
	<g>
		<path style="fill:none;stroke:#000000;stroke-width:3;stroke-miterlimit:10;" d="M244.243,242.169
			c14.173,0,25.662,11.49,25.662,25.662"/>
		<path style="fill:none;stroke:#000000;stroke-width:3;stroke-miterlimit:10;" d="M244.243,251.916
			c8.79,0,15.915,7.125,15.915,15.915"/>
		<path style="fill:none;stroke:#000000;stroke-width:3;stroke-miterlimit:10;" d="M244.243,260.398
			c4.105,0,7.433,3.328,7.433,7.433"/>
	</g>
</g>
</svg>
