<?xml version="1.0" encoding="utf-8"?>
<!-- Generator: Adobe Illustrator 27.5.0, SVG Export Plug-In . SVG Version: 6.00 Build 0)  -->
<svg version="1.1" xmlns="http://www.w3.org/2000/svg" xmlns:xlink="http://www.w3.org/1999/xlink" x="0px" y="0px"
	 viewBox="0 0 500 500" style="enable-background:new 0 0 500 500;" xml:space="preserve">
<g id="BACKGROUND">
	<rect style="fill:#FFFFFF;" width="500" height="500"/>
</g>
<g id="OBJECTS">
	<g>
		<rect x="62.686" y="66.603" style="fill:#F5E3DA;" width="374.627" height="246.967"/>
		<polyline style="fill:none;stroke:#E09A84;stroke-linecap:round;stroke-linejoin:round;stroke-miterlimit:10;" points="
			93.792,198.337 99.936,162.577 130.427,200.847 		"/>
		
			<rect x="319.599" y="222.623" style="fill:none;stroke:#E09A84;stroke-linecap:round;stroke-linejoin:round;stroke-miterlimit:10;" width="110.249" height="70.923"/>
		<g>
			<g>
				<defs>
					<path id="SVGID_1_" d="M366.54,248.53c-1.868,9.774-11.34,16.206-21.114,14.337c-9.774-1.868-16.205-11.34-14.337-21.114
						c1.868-9.774,11.34-16.205,21.114-14.337C361.977,229.285,368.409,238.757,366.54,248.53z M339.148,243.294
						c-1.019,5.33,2.489,10.496,7.819,11.515c5.33,1.019,10.496-2.489,11.515-7.819c1.019-5.33-2.489-10.496-7.819-11.515
						C345.332,234.456,340.167,237.964,339.148,243.294z"/>
				</defs>
				<clipPath id="SVGID_00000140012159863436068570000015657636771966848910_">
					<use xlink:href="#SVGID_1_"  style="overflow:visible;"/>
				</clipPath>
				<g style="clip-path:url(#SVGID_00000140012159863436068570000015657636771966848910_);">
					<g>
						<path style="fill:#D16E4F;" d="M366.54,248.53c-1.868,9.774-11.34,16.206-21.114,14.337
							c-9.774-1.868-16.205-11.34-14.337-21.114c1.868-9.774,11.34-16.205,21.114-14.337
							C361.977,229.285,368.409,238.757,366.54,248.53z M339.148,243.294c-1.019,5.33,2.489,10.496,7.819,11.515
							c5.33,1.019,10.496-2.489,11.515-7.819c1.019-5.33-2.489-10.496-7.819-11.515
							C345.332,234.456,340.167,237.964,339.148,243.294z"/>
					</g>
					<g>
						<defs>
							<path id="SVGID_00000153700180293206453580000009910436225941410177_" d="M366.54,248.53
								c-1.868,9.774-11.34,16.206-21.114,14.337c-9.774-1.868-16.205-11.34-14.337-21.114c1.868-9.774,11.34-16.205,21.114-14.337
								C361.977,229.285,368.409,238.757,366.54,248.53z M339.33,243.329c-1,5.23,2.442,10.298,7.672,11.298
								c5.23,1,10.298-2.442,11.298-7.672c1-5.23-2.442-10.298-7.672-11.298C345.398,234.658,340.33,238.099,339.33,243.329z"/>
						</defs>
						<clipPath id="SVGID_00000104701664556790473590000018361152072807450300_">
							<use xlink:href="#SVGID_00000153700180293206453580000009910436225941410177_"  style="overflow:visible;"/>
						</clipPath>
						<polygon style="clip-path:url(#SVGID_00000104701664556790473590000018361152072807450300_);fill:#87C2D6;" points="
							323.969,240.173 348.966,245.365 335.036,223.601 						"/>
						<polygon style="clip-path:url(#SVGID_00000104701664556790473590000018361152072807450300_);fill:#EDBF34;" points="
							330.494,229.235 350.926,244.544 348.553,220.819 						"/>
						<polygon style="clip-path:url(#SVGID_00000104701664556790473590000018361152072807450300_);fill:#4764A8;" points="
							347.72,221.531 348.735,245.29 368.134,230.075 						"/>
						<polygon style="clip-path:url(#SVGID_00000104701664556790473590000018361152072807450300_);" points="357.571,267.123 
							349.339,245.436 336.833,264.319 						"/>
					</g>
				</g>
			</g>
			<g>
				<g>
					<polygon style="fill:#8CC9DE;" points="383.9,253.927 382.409,286.592 374.029,286.608 375.521,253.943 					"/>
					<polygon style="fill:#8CC9DE;" points="396.585,248.903 394.888,286.552 386.509,286.568 388.206,248.919 					"/>
					<polygon style="fill:#8CC9DE;" points="411.525,243.038 409.694,286.528 401.234,286.568 403.065,243.077 					"/>
					<polygon style="fill:#EDBF34;" points="371.796,259.234 370.547,286.606 362.168,286.621 363.417,259.25 					"/>
					<polygon style="fill:#D16E4F;" points="359.642,266.02 358.685,286.619 350.306,286.635 351.263,266.035 					"/>
					<polygon style="fill:#D16E4F;" points="347.074,276.013 346.581,286.635 338.202,286.651 338.695,276.029 					"/>
				</g>
				<line style="fill:none;stroke:#1B2258;stroke-miterlimit:10;" x1="333.806" y1="286.894" x2="418.122" y2="286.544"/>
			</g>
			
				<ellipse transform="matrix(0.7071 -0.7071 0.7071 0.7071 -49.6025 363.9879)" style="fill:#D16E4F;" cx="414.571" cy="241.869" rx="10.918" ry="10.918"/>
		</g>
		
			<line style="fill:none;stroke:#E09A84;stroke-linecap:round;stroke-linejoin:round;stroke-miterlimit:10;" x1="185.051" y1="77.887" x2="185.051" y2="295.44"/>
		
			<line style="fill:none;stroke:#E09A84;stroke-linecap:round;stroke-linejoin:round;stroke-miterlimit:10;" x1="314.05" y1="77.887" x2="314.05" y2="295.44"/>
		<g>
			<rect x="80.907" y="207.007" style="fill:#FFFFFF;" width="28.637" height="25.381"/>
			<rect x="152.5" y="207.007" style="fill:#FFFFFF;" width="28.637" height="25.381"/>
			<rect x="116.704" y="207.007" style="fill:#FFFFFF;" width="28.637" height="25.381"/>
			<rect x="89.658" y="240.547" style="fill:#FFFFFF;" width="28.637" height="25.381"/>
			<rect x="134.204" y="239.64" style="fill:#FFFFFF;" width="28.637" height="25.381"/>
		</g>
		<path style="fill:#FFFFFF;" d="M122.731,150.65v-35.515c0-0.035-0.029-0.064-0.064-0.064h-4.449c-0.042,0-0.072,0.04-0.061,0.08
			c0.229,0.808,0.232,1.706-0.717,2.813c-0.734,0.856-1.849,1.36-2.955,1.141c-1.459-0.288-2.559-1.575-2.559-3.118
			c0-0.292,0.051-0.569,0.127-0.836c0.011-0.041-0.018-0.08-0.06-0.08h-4.677c-0.042,0-0.072,0.04-0.061,0.08
			c0.228,0.808,0.232,1.706-0.717,2.813c-0.734,0.856-1.849,1.36-2.956,1.141c-1.459-0.288-2.559-1.575-2.559-3.118
			c0-0.292,0.051-0.569,0.127-0.836c0.011-0.041-0.018-0.08-0.06-0.08h-4.677c-0.042,0-0.072,0.04-0.061,0.08
			c0.228,0.808,0.232,1.706-0.717,2.813c-0.734,0.856-1.849,1.36-2.956,1.141c-1.459-0.288-2.559-1.575-2.559-3.118
			c0-0.292,0.051-0.569,0.127-0.836c0.012-0.041-0.018-0.08-0.06-0.08h-4.677c-0.042,0-0.072,0.04-0.061,0.08
			c0.228,0.808,0.232,1.706-0.717,2.813c-0.734,0.856-1.849,1.36-2.956,1.141c-1.459-0.288-2.559-1.575-2.559-3.118
			c0-0.292,0.051-0.569,0.127-0.836c0.011-0.041-0.018-0.08-0.06-0.08h-4.442c-0.036,0-0.064,0.029-0.064,0.064l0.054,35.515
			H122.731z"/>
		<path style="fill:#EDBF34;" d="M177.897,145.211v-35.515c0-0.036-0.029-0.065-0.064-0.065h-4.449c-0.042,0-0.072,0.04-0.061,0.081
			c0.228,0.807,0.232,1.706-0.717,2.813c-0.734,0.856-1.849,1.36-2.956,1.141c-1.459-0.288-2.559-1.575-2.559-3.118
			c0-0.291,0.051-0.569,0.127-0.836c0.012-0.041-0.018-0.08-0.06-0.08h-4.677c-0.042,0-0.072,0.04-0.061,0.081
			c0.228,0.807,0.232,1.706-0.717,2.813c-0.734,0.856-1.849,1.36-2.956,1.141c-1.459-0.288-2.559-1.575-2.559-3.118
			c0-0.291,0.051-0.569,0.127-0.836c0.012-0.041-0.018-0.08-0.06-0.08h-4.677c-0.042,0-0.072,0.04-0.061,0.081
			c0.228,0.807,0.232,1.706-0.717,2.813c-0.734,0.856-1.849,1.36-2.955,1.141c-1.459-0.288-2.559-1.575-2.559-3.118
			c0-0.291,0.051-0.569,0.127-0.836c0.011-0.041-0.018-0.08-0.06-0.08h-4.677c-0.042,0-0.072,0.04-0.061,0.081
			c0.228,0.807,0.232,1.706-0.717,2.813c-0.734,0.856-1.849,1.36-2.956,1.141c-1.459-0.288-2.559-1.575-2.559-3.118
			c0-0.291,0.051-0.569,0.127-0.836c0.012-0.041-0.018-0.08-0.06-0.08h-4.443c-0.036,0-0.064,0.029-0.064,0.065l0.054,35.515
			H177.897z"/>
		<path style="fill:#FFFFFF;" d="M367.013,114.997c0.173,0.845,0.108,1.766-0.948,2.827c-0.817,0.822-1.998,1.253-3.115,0.945
			c-1.473-0.406-2.502-1.808-2.385-3.389c0.022-0.299,0.095-0.579,0.193-0.847c0.015-0.041-0.012-0.083-0.056-0.087l-4.792-0.355
			c-0.043-0.003-0.077,0.035-0.068,0.078c0.173,0.845,0.108,1.766-0.948,2.827c-0.817,0.822-1.998,1.253-3.115,0.945
			c-1.473-0.406-2.502-1.808-2.385-3.389c0.022-0.299,0.095-0.579,0.193-0.847c0.015-0.041-0.012-0.083-0.056-0.087l-4.792-0.355
			c-0.043-0.003-0.077,0.035-0.068,0.078c0.173,0.845,0.108,1.766-0.948,2.827c-0.817,0.822-1.998,1.253-3.115,0.945
			c-1.473-0.406-2.502-1.808-2.385-3.389c0.022-0.299,0.095-0.579,0.193-0.847c0.015-0.041-0.012-0.084-0.056-0.087l-4.792-0.355
			c-0.043-0.003-0.077,0.035-0.068,0.078c0.173,0.844,0.108,1.766-0.948,2.827c-0.817,0.822-1.998,1.253-3.115,0.945
			c-1.473-0.406-2.502-1.808-2.385-3.389c0.022-0.299,0.095-0.579,0.193-0.847c0.015-0.041-0.012-0.083-0.056-0.087l-4.551-0.337
			c-0.036-0.003-0.068,0.025-0.071,0.061l-3.445,38.581l48.948,4.267c0.036,0.003,3.625-39.211,3.625-39.211
			c0.003-0.036-0.025-0.068-0.061-0.071l-4.558-0.337C367.038,114.915,367.004,114.954,367.013,114.997z"/>
		<path style="fill:#EDBF34;" d="M392.151,165.003c0.162,0.847,0.086,1.767-0.982,2.815c-0.827,0.811-2.013,1.228-3.126,0.906
			c-1.468-0.424-2.48-1.839-2.343-3.418c0.026-0.298,0.102-0.577,0.204-0.844c0.015-0.041-0.011-0.084-0.055-0.087l-4.787-0.414
			c-0.043-0.004-0.077,0.034-0.069,0.077c0.162,0.847,0.086,1.767-0.982,2.815c-0.827,0.811-2.013,1.228-3.126,0.906
			c-1.468-0.424-2.48-1.839-2.343-3.418c0.026-0.298,0.103-0.577,0.204-0.844c0.015-0.041-0.011-0.084-0.055-0.087l-4.787-0.414
			c-0.043-0.004-0.077,0.034-0.069,0.077c0.162,0.847,0.086,1.767-0.983,2.815c-0.827,0.811-2.013,1.228-3.126,0.906
			c-1.468-0.424-2.48-1.839-2.343-3.418c0.026-0.298,0.103-0.577,0.204-0.844c0.015-0.041-0.011-0.084-0.055-0.087l-4.787-0.414
			c-0.043-0.004-0.077,0.034-0.069,0.077c0.162,0.847,0.086,1.767-0.983,2.815c-0.827,0.811-2.013,1.228-3.126,0.906
			c-1.468-0.424-2.48-1.839-2.343-3.418c0.026-0.298,0.103-0.577,0.204-0.844c0.015-0.041-0.011-0.084-0.055-0.087l-4.547-0.393
			c-0.036-0.003-0.069,0.024-0.072,0.06l-3.924,38.536l48.891,4.874c0.036,0.003,4.111-39.163,4.111-39.163
			c0.003-0.036-0.024-0.068-0.06-0.072l-4.553-0.394C392.177,164.922,392.143,164.96,392.151,165.003z"/>
		<path style="fill:#EDBF34;" d="M291.012,114.624c0.34,0.792,0.463,1.707-0.355,2.961c-0.633,0.97-1.703,1.631-2.859,1.556
			c-1.525-0.1-2.816-1.264-3.022-2.836c-0.039-0.297-0.024-0.586,0.018-0.868c0.006-0.043-0.029-0.079-0.072-0.074l-4.764,0.623
			c-0.043,0.006-0.068,0.05-0.051,0.09c0.34,0.792,0.463,1.707-0.355,2.961c-0.633,0.97-1.703,1.631-2.859,1.556
			c-1.525-0.099-2.816-1.264-3.022-2.836c-0.039-0.297-0.024-0.586,0.018-0.868c0.006-0.043-0.029-0.079-0.072-0.074l-4.764,0.623
			c-0.043,0.006-0.068,0.05-0.051,0.09c0.34,0.792,0.463,1.707-0.355,2.961c-0.633,0.97-1.703,1.631-2.859,1.556
			c-1.524-0.099-2.816-1.264-3.022-2.836c-0.039-0.297-0.024-0.586,0.018-0.868c0.006-0.043-0.029-0.079-0.072-0.074l-4.764,0.623
			c-0.043,0.006-0.068,0.05-0.051,0.09c0.34,0.792,0.463,1.707-0.355,2.961c-0.633,0.97-1.703,1.631-2.859,1.556
			c-1.524-0.1-2.816-1.264-3.022-2.836c-0.039-0.297-0.024-0.586,0.018-0.868c0.006-0.043-0.029-0.079-0.072-0.074l-4.525,0.591
			c-0.036,0.005-0.062,0.038-0.057,0.074l4.437,38.48l48.798-5.732c0.036-0.005-4.389-39.133-4.389-39.133
			c-0.005-0.036-0.038-0.062-0.074-0.057l-4.531,0.592C291.02,114.54,290.995,114.584,291.012,114.624z"/>
		<path style="fill:#EDBF34;" d="M419.105,114.582c0.336,0.794,0.454,1.71-0.372,2.959c-0.639,0.966-1.712,1.622-2.867,1.54
			c-1.524-0.108-2.81-1.279-3.007-2.852c-0.037-0.297-0.021-0.586,0.022-0.868c0.007-0.043-0.029-0.079-0.072-0.074l-4.768,0.597
			c-0.043,0.005-0.068,0.05-0.051,0.09c0.336,0.794,0.454,1.71-0.371,2.959c-0.639,0.966-1.712,1.622-2.867,1.54
			c-1.524-0.108-2.81-1.279-3.006-2.852c-0.037-0.297-0.021-0.586,0.022-0.868c0.007-0.043-0.029-0.079-0.072-0.074l-4.767,0.597
			c-0.043,0.005-0.068,0.05-0.051,0.09c0.336,0.794,0.454,1.71-0.372,2.959c-0.639,0.966-1.712,1.622-2.867,1.54
			c-1.524-0.108-2.81-1.279-3.007-2.852c-0.037-0.297-0.021-0.586,0.022-0.868c0.007-0.043-0.029-0.079-0.072-0.074l-4.768,0.597
			c-0.043,0.005-0.068,0.05-0.051,0.09c0.336,0.794,0.454,1.71-0.372,2.959c-0.639,0.966-1.712,1.622-2.867,1.54
			c-1.524-0.108-2.81-1.279-3.007-2.852c-0.037-0.297-0.021-0.586,0.022-0.868c0.007-0.043-0.029-0.079-0.072-0.074l-4.528,0.567
			c-0.036,0.005-0.062,0.038-0.057,0.074l4.228,38.504l48.828-5.466c0.036-0.005-4.176-39.156-4.176-39.156
			c-0.005-0.036-0.038-0.062-0.074-0.057l-4.535,0.568C419.113,114.497,419.088,114.541,419.105,114.582z"/>
		<g>
			<rect x="204.051" y="199.872" style="fill:#FFFFFF;" width="24.086" height="19.424"/>
			<rect x="273.979" y="199.872" style="fill:#FFFFFF;" width="20.978" height="19.424"/>
			<rect x="238.238" y="199.872" style="fill:#FFFFFF;" width="25.64" height="19.424"/>
			<rect x="207.158" y="226.29" style="fill:#FFFFFF;" width="24.086" height="20.978"/>
			<rect x="246.007" y="226.29" style="fill:#FFFFFF;" width="20.978" height="20.978"/>
			<rect x="277.086" y="226.29" style="fill:#FFFFFF;" width="20.978" height="20.978"/>
		</g>
		<text transform="matrix(1 0 0 1 99.8278 93.9967)" style="fill:#E09A84; font-family:'Archivo-Medium'; font-size:15px;">to do</text>
		<text transform="matrix(1 0 0 1 350.2445 93.9967)" style="fill:#E09A84; font-family:'Archivo-Medium'; font-size:15px;">done</text>
		<text transform="matrix(1 0 0 1 198.8949 93.9972)" style="fill:#E09A84; font-family:'Archivo-Medium'; font-size:15px;">in progress</text>
		<polyline style="fill:none;stroke:#E09A84;stroke-linecap:round;stroke-linejoin:round;stroke-miterlimit:10;" points="
			252.223,192.103 276.31,164.908 289.518,191.326 		"/>
		
			<line style="fill:none;stroke:#E09A84;stroke-linecap:round;stroke-linejoin:round;stroke-miterlimit:10;" x1="71.188" y1="104.304" x2="429.374" y2="104.304"/>
	</g>
	<g>
		<rect x="44.526" y="416.056" style="fill:#EDCE6F;" width="410.948" height="30.895"/>
		<rect x="63.95" y="393.298" style="fill:#EDCE6F;" width="369.768" height="30.895"/>
		<rect x="92.699" y="365.368" style="fill:#EDCE6F;" width="325.48" height="30.895"/>
	</g>
	<g>
		
			<line style="fill:none;stroke:#000000;stroke-linecap:round;stroke-linejoin:round;stroke-miterlimit:10;" x1="309.45" y1="331.393" x2="305.063" y2="335.896"/>
		<g>
			
				<line style="fill:none;stroke:#000000;stroke-linecap:round;stroke-linejoin:round;stroke-miterlimit:10;" x1="51.021" y1="252.577" x2="46.1" y2="257.628"/>
			<path style="fill:none;stroke:#000000;stroke-linecap:round;stroke-linejoin:round;stroke-miterlimit:10;" d="M46.359,252.577
				c0.958-0.823,1.821-1.758,2.564-2.779"/>
		</g>
		<path style="fill:none;stroke:#000000;stroke-linecap:round;stroke-linejoin:round;stroke-miterlimit:10;" d="M447.02,280.419
			c1.565-1.727,3.131-3.454,4.696-5.181"/>
		<path style="fill:none;stroke:#000000;stroke-linecap:round;stroke-linejoin:round;stroke-miterlimit:10;" d="M435.299,54.044
			c-2.258,1.761-4.338,3.677-6.212,5.721"/>
		<path style="fill:none;stroke:#000000;stroke-linecap:round;stroke-linejoin:round;stroke-miterlimit:10;" d="M305.032,330.491
			c-2.888,2.888-5.775,5.775-8.663,8.663"/>
		<g>
			<path style="fill:none;stroke:#000000;stroke-linecap:round;stroke-linejoin:round;stroke-miterlimit:10;" d="M421.109,430.429
				c-1.032,1.104-2.064,2.209-3.095,3.314"/>
			
				<line style="fill:none;stroke:#000000;stroke-linecap:round;stroke-linejoin:round;stroke-miterlimit:10;" x1="422.465" y1="424.859" x2="414.819" y2="432.594"/>
		</g>
		<circle style="fill:none;stroke:#000000;stroke-linecap:round;stroke-miterlimit:10;" cx="55.426" cy="435.814" r="2.07"/>
		<path style="fill:none;stroke:#000000;stroke-linecap:round;stroke-linejoin:round;stroke-miterlimit:10;" d="M228.828,55.933
			c-1.017,1.174-2.792,1.301-3.966,0.285c-1.174-1.017-1.301-2.792-0.285-3.966"/>
		<path style="fill:none;stroke:#000000;stroke-miterlimit:10;" d="M91.505,334.004c-1.017,1.174-2.792,1.301-3.966,0.285
			c-1.174-1.017-1.301-2.792-0.285-3.966"/>
		<path style="fill:none;stroke:#000000;stroke-miterlimit:10;" d="M448.453,166.781c-1.017,1.174-2.792,1.301-3.966,0.285
			c-1.174-1.017-1.301-2.792-0.285-3.966"/>
		<circle style="fill:none;stroke:#000000;stroke-miterlimit:10;" cx="53.352" cy="153.448" r="2.568"/>
		<path style="fill:none;stroke:#000000;stroke-linecap:round;stroke-linejoin:round;stroke-miterlimit:10;" d="M138.58,407.345
			c1.289-1.215,2.577-2.431,3.866-3.646"/>
	</g>
	<g>
		<path style="fill:none;stroke:#000000;stroke-linecap:round;stroke-linejoin:round;stroke-miterlimit:10;" d="M420.261,447.717
			c16.085-0.041,32.17-0.088,48.255-0.141"/>
		<path style="fill:none;stroke:#000000;stroke-linecap:round;stroke-linejoin:round;stroke-miterlimit:10;" d="M31.485,447.576
			c120.734,0.479,240.734,0.479,361.537,0.205"/>
	</g>
	<path style="fill:none;stroke:#FFFFFF;stroke-linecap:round;stroke-linejoin:round;stroke-miterlimit:10;" d="M68.619,416.497
		c120.734,0.479,197.734,0.479,318.537,0.205"/>
	
		<line style="fill:none;stroke:#FFFFFF;stroke-linecap:round;stroke-linejoin:round;stroke-miterlimit:10;" x1="400.92" y1="393.599" x2="420.862" y2="393.34"/>
	<path style="fill:none;stroke:#FFFFFF;stroke-linecap:round;stroke-linejoin:round;stroke-miterlimit:10;" d="M415.817,416.796
		c5.459-0.049,10.918-0.098,16.376-0.147"/>
	<path style="fill:none;stroke:#FFFFFF;stroke-linecap:round;stroke-linejoin:round;stroke-miterlimit:10;" d="M403.251,416.908
		c2.231-0.02,4.463-0.04,6.694-0.06"/>
	
		<line style="fill:none;stroke:#FFFFFF;stroke-linecap:round;stroke-linejoin:round;stroke-miterlimit:10;" x1="84.431" y1="394.117" x2="386.675" y2="393.599"/>
	<g>
		<path style="fill:#F5B09F;" d="M382.316,311.431c-1.055,0.417-1.975,1.066-2.664,2.036c-1.643,2.31-1.181,5.465-0.496,8.216
			c2.321,9.322,6.394,18.189,8.017,27.658c0.391,2.282,0.693,4.72,2.159,6.511c2.797,3.416,10.784,0.471,14.351-0.242
			c0.347-0.069,0.739-0.174,0.896-0.491c0.086-0.174,0.08-0.376,0.072-0.57c-0.491-11.971-0.152-24.902-4.351-36.222
			c-0.513-1.382-1.043-2.796-2.003-3.914c-1.901-2.216-5.034-2.818-7.919-3.268C387.735,310.733,384.686,310.495,382.316,311.431z"
			/>
		<path style="fill:#111314;" d="M369.977,367.082h17.846c3.878-0.132,7.756-0.201,11.631,0h4.155
			c0.582-0.134,1.112-0.382,1.524-0.824c1.034-1.109,0.866-13.845-0.203-13.725c-6.233,0.763-10.553,1.009-16.351,1.028
			c-0.323,0.001-0.658,0.118-0.891,0.342c-0.29,0.278-0.335,0.715-0.404,1.111c-0.525,3.012-3.301,5.163-6.182,6.189
			c-2.88,1.026-5.989,1.228-8.93,2.066C369.565,364.014,367.54,366.01,369.977,367.082z"/>
		<path style="fill:#F5B09F;" d="M303.401,158.202c0.46,1.71,1.291,3.301,2.218,4.806c1.193,1.938,1.838,3.064-0.873,3.756
			c-1.751,0.447-5.204-0.654-4.928-2.974c0.072-0.606,0.37-1.161,0.505-1.756c0.253-1.116-0.082-2.269-0.224-3.405
			c-0.142-1.136-0.016-2.451,0.882-3.16c0.279-0.221,0.639-0.367,0.99-0.308c0.415,0.07,0.739,0.416,0.911,0.8
			c0.172,0.384,0.222,0.809,0.294,1.224C303.235,157.529,303.311,157.868,303.401,158.202z"/>
		<path d="M352.93,136.489c1.088-0.701,2.431-0.877,3.886-1.002c4.649-0.4,8.037,0.281,10.824,4.503
			c2.891,4.38,3.5,9.928,5.381,14.75c1.22,3.128,2.097,6.39,2.603,9.709c0.236,1.547,0.356,3.259-0.532,4.547
			c-0.771,1.118-2.17,1.666-3.526,1.743c-1.356,0.076-2.697-0.253-4.018-0.566c-5.229-1.238-10.319-2.536-15.613-3.098
			c-1.847-0.196-3.888-0.497-5.067-1.932c-1.061-1.29-1.098-3.152-0.725-4.779c0.373-1.628,1.097-3.164,1.398-4.807
			c0.604-3.303-0.523-6.889,0.804-9.973c0.471-1.094,1.227-2.049,1.683-3.149c0.538-1.299,0.639-2.756,1.255-4.021
			C351.72,137.516,352.279,136.908,352.93,136.489z"/>
		<path style="fill:#F5B09F;" d="M333.465,312.621c-1.094,0.299-2.079,0.844-2.871,1.732c-1.885,2.117-1.771,5.303-1.391,8.113
			c1.289,9.52,4.368,18.779,4.947,28.368c0.139,2.311,0.173,4.767,1.435,6.708c2.407,3.701,10.668,1.646,14.292,1.328
			c0.352-0.031,0.754-0.092,0.944-0.39c0.104-0.163,0.12-0.366,0.134-0.559c0.82-11.953,2.57-24.77-0.367-36.481
			c-0.359-1.43-0.732-2.893-1.564-4.109c-1.648-2.411-4.696-3.352-7.515-4.114C338.927,312.519,335.922,311.949,333.465,312.621z"/>
		<path style="fill:#4764A8;" d="M351.204,341.016c3.21,0.255,5.7,0.422,5.691,0.323c-1.262-13.493-1.774-27.055-1.535-40.605
			c0.166-9.406-1.019-18.894-0.344-28.329c0.754-10.537,0.586-21.497,2.081-31.944c1.266-8.849,2.059-17.255,1.83-26.366
			c-0.135-5.364-0.796-11.338-4.876-14.823c-4.775-4.078-10.163-4.423-14.187,0.713c-4.222,5.389-4.878,11.763-6.167,18.167
			c-3.651,18.138-6.269,36.462-8.887,54.771c-1.888,13.202-3.78,26.529-2.77,39.827c0.347,4.57,1.038,9.106,1.886,13.608
			c0.837,4.445,1.543,8.685,2.788,13.003c4.362,0.145,8.732,0.187,13.057,0.668C343.507,340.445,347.445,341.016,351.204,341.016z"
			/>
		<path style="fill:#4764A8;" d="M406.219,335.343c0.48-0.085,0.94-0.237,1.274-0.579c0.583-0.596,0.566-1.538,0.505-2.37
			c-2.078-28.322-14.077-55.67-22.516-82.699c-3.635-11.642-5.798-27.627-12.805-37.743c-5.561-8.027-13.409-3.119-16.188,4.504
			c-4.515,12.385-3.493,26.115-1.637,38.91c4.079,28.131,13.545,55.025,17.3,83.425c0.049,0.37,0.115,0.774,0.391,1.023
			c-0.012-0.011,8.2-1.819,9.209-1.92c7.946-0.796,15.887-1.646,23.83-2.469C405.791,335.404,406.007,335.38,406.219,335.343z"/>
		<path style="fill:#F5B09F;" d="M350.768,174.024c-0.406-4.092-1.169-9.572-6.427-9.478c-2.301,0.041-4.435,1.177-6.349,2.455
			c-3.71,2.477-7.081,5.49-9.857,8.988c-2.722,3.429-3.903,7.433-6.089,11.002c-2.772-3.444-4.861-7.62-7.205-11.37
			c-2.059-3.007-4.148-5.993-6.266-8.959c-0.754-1.056-1.531-2.129-2.585-2.888c-2.276-1.638-7.674-2.107-10.217-0.88
			c-0.686,0.331-1.16,0.98-1.552,1.633c-1.243,2.07-2.794,5.88-1.824,8.333c0.366,0.925,1.219,1.588,2.145,1.952
			c1.876,0.738,4.506,0.457,6.095,1.873c1.827,1.629,2.571,6.69,3.378,8.977c2.281,6.467,4.563,12.934,6.844,19.4
			c1.757,4.98,5.305,10.171,11.318,9.922c2.976-0.124,5.156-1.856,7.22-3.828c6.036-5.767,11.35-12.289,15.777-19.367
			c2.591-4.142,4.919-8.593,5.562-13.436C350.923,176.951,350.914,175.493,350.768,174.024z"/>
		<g>
			<path style="fill:#522E97;" d="M353.542,160.114c0.012,0.1,0,0.202-0.025,0.3c-0.057-0.028-0.115-0.052-0.174-0.074
				L353.542,160.114z"/>
			<path style="fill:#D16E4F;" d="M353.388,160.217c-4.709,0.319-9.355,1.533-13.502,3.694c-7.093,3.697-12.71,9.824-16.734,16.656
				c-0.567,0.963,14.527,13.169,16.001,14.407c-0.232-0.195,6.909-14.856,7.516-16.316c0.526-1.265,1.148-2.488,1.807-3.688
				c0.572-1.042,1.108-2.293,1.908-3.178c1.421-1.574,2.727-3.211,4.663-4.195c1.851-0.941,3.933-1.296,5.94-1.83
				c2.685-0.714,5.337-1.772,8.115-1.77c0.803,0.001,1.712,0.054,2.288-0.507c-2.025-0.936-4.138-1.681-6.301-2.227
				C361.316,160.308,357.33,159.949,353.388,160.217z"/>
		</g>
		<path style="fill:#D16E4F;" d="M331.883,214.595c-0.207,2.144-0.411,4.274-0.631,6.377c7.983-0.193,17.172-0.813,26.216-0.569
			c6.761,0.183,14.454-0.425,21.038-1.971c-1.269-2.893-1.414-6.585-1.763-9.711c-0.4-3.579-0.778-7.159-1.134-10.742
			c-0.818-8.216-0.958-16.835-4.354-24.505c-1.592-3.597-3.166-10.797-7.052-11.983c-7.107-2.169-10.31-1.538-14.581,0.628
			c-8.118,4.115-10.084,14.811-12.698,22.833C333.872,194.318,332.845,204.611,331.883,214.595z"/>
		<path style="fill:#111314;" d="M347.825,366.487c0.486,0.012,0.972,0.025,1.458,0.039c0.292,0.008,0.598,0.014,0.86-0.116
			c0.367-0.183,0.56-0.589,0.704-0.973c0.335-0.894,1.418-11.53,0.438-11.519c-6.279,0.077-10.6-0.15-16.365-0.765
			c-0.322-0.034-0.667,0.046-0.923,0.243c-0.319,0.244-0.411,0.674-0.523,1.06c-0.851,2.937-3.846,4.771-6.821,5.477
			c-2.975,0.706-6.087,0.566-9.102,1.078c-2.7,0.459-6.243,3.873-2.142,5.551c1.141,0.467,2.42,0.402,3.651,0.337
			C328.638,366.387,338.236,366.249,347.825,366.487z"/>
		<path style="fill:#F5B09F;" d="M352.354,155.819c0.112,0.077,0.231,0.153,0.305,0.267c0.644,0.984,0.146,2.958,0.012,4.008
			c-0.028,0.216-0.059,0.438-0.173,0.623c-0.218,0.353-0.668,0.471-1.073,0.56c-0.111,0.024-0.222,0.048-0.333,0.072
			c1.361,2.049,3.262,3.54,5.884,3.744c2.717,0.211,5.275-0.648,7.328-2.318c-0.823-0.758-1.354-1.81-1.617-2.906
			c-0.293-1.225-0.302-2.498-0.31-3.757c-0.017-2.879,0.319-6.023-0.312-8.824c-0.286-1.273-0.251-2.541-0.709-3.792
			c-0.435-1.189-1.131-2.274-2.097-3.101c-2.43-2.079-6.479-1.435-8.35,1.102c-0.593,0.804-0.948,1.76-1.21,2.724
			c-0.484,1.783-0.671,3.656-0.482,5.497C349.457,152.053,350.338,154.444,352.354,155.819z"/>
		<path d="M358.179,134.891c0.01,0,0.02-0.001,0.03-0.001c1.804-0.047,3.465,0.839,4.376,2.431c0.592,1.034,0.446,2.249,1.112,3.343
			c0.877,1.44,1.473,2.643,1.384,4.399c-0.063,1.233-0.729,4.284-2.362,4.396c-1.739,0.119-1.962-1.652-2.229-2.886
			c-0.399-1.845-1.281-1.885-2.934-2.498c-1.31-0.486-1.919-1.956-2.385-3.274c-1.135,1.955-3.672,2.674-5.017,4.491
			c-0.119,0.161-1.706,1.954-1.703,1.971c-0.202-1.153-0.295-2.325-0.277-3.496c0.011-0.689,0.061-1.387,0.284-2.039
			c0.252-0.738,0.712-1.383,1.166-2.017c0.884-1.233,1.793-2.492,3.045-3.349C354.26,135.275,356.251,134.944,358.179,134.891z"/>
		<path style="fill:#F5B09F;" d="M361.47,150.717c0.919-0.457,1.446-1.843,1.52-2.787c0.028-0.362,0.013-0.737-0.129-1.072
			c-0.283-0.671-1.067-1.06-1.789-0.964c-1.408,0.187-1.758,1.568-1.922,2.737c-0.033,0.234-0.051,0.475,0.012,0.702
			C359.415,150.236,360.541,151.179,361.47,150.717z"/>
		<path style="fill:none;stroke:#000000;stroke-linecap:round;stroke-linejoin:round;stroke-miterlimit:10;" d="M355.999,261.173
			c-1.327-9.082-2.368-18.207-3.12-27.354"/>
		<path style="fill:none;stroke:#000000;stroke-linecap:round;stroke-linejoin:round;stroke-miterlimit:10;" d="M334.763,192.228
			c1.122-2.622,2.64-9.042,3.763-11.664"/>
		<path style="fill:#FFFFFF;" d="M350.307,151.68c0.593,0.953,1.584,1.56,2.599,1.591c1.016,0.031,2.033-0.514,2.668-1.43"/>
		<path style="fill:none;stroke:#222221;stroke-linecap:round;stroke-linejoin:round;stroke-miterlimit:10;" d="M362.083,147.294
			c-0.459-0.032-0.928,0.133-1.266,0.445c-0.337,0.312-0.538,0.767-0.542,1.227"/>
		<path d="M352.067,158.332c0.339,0.076,0.804-0.172,1.092-0.249c0.561-0.151,1.031-0.507,1.507-0.826
			c0.257-0.172,0.539-0.339,0.848-0.343c0.266-0.003,0.525,0.116,0.79,0.095c0.351-0.027,0.634-0.286,0.886-0.531
			c0.048-0.047,0.098-0.096,0.118-0.16c0.041-0.133-0.069-0.274-0.201-0.318c-0.132-0.044-0.276-0.018-0.413,0.007
			c-0.968,0.179-1.966,0.3-2.95,0.192c-0.477-0.052-0.964-0.154-1.406-0.346c-0.285-0.124-0.668-0.556-1.011-0.41
			c-0.231,0.098-0.223,0.431-0.139,0.667c0.165,0.46,0.474,0.881,0.503,1.369c0.013,0.225-0.03,0.473,0.096,0.66
			C351.861,158.249,351.957,158.307,352.067,158.332z"/>
		<g>
			<path style="fill:none;stroke:#000000;stroke-linecap:round;stroke-linejoin:round;stroke-miterlimit:10;" d="M386.031,269.688
				c1.238,4.263,2.148,5.95,3.385,10.213"/>
			<path style="fill:none;stroke:#000000;stroke-linecap:round;stroke-linejoin:round;stroke-miterlimit:10;" d="M390.43,284.648
				c0.319,1.194,0.718,2.366,1.192,3.507"/>
		</g>
		<path style="fill:none;stroke:#000000;stroke-linecap:round;stroke-linejoin:round;stroke-miterlimit:10;" d="M398.838,346.383"/>
		<path style="fill:none;stroke:#000000;stroke-linecap:round;stroke-linejoin:round;stroke-miterlimit:10;" d="M397.28,339.085"/>
		<path style="fill:none;stroke:#000000;stroke-linecap:round;stroke-linejoin:round;stroke-miterlimit:10;" d="M351.64,328.155
			c-0.042,2.456-0.295,4.908-0.753,7.32"/>
		<path style="fill:#F5B09F;" d="M318.856,204.485c0-0.152,0-0.303,0-0.455"/>
		<path style="fill:#F5B09F;" d="M292.248,162.151c-0.6,0.477-0.63,1.111-0.624,1.734c0.005,0.57,0.457,0.838,0.813,1.165
			c-0.393,0.248-0.845,0.11-1.146,0.587c-0.256,0.405-0.236,0.944-0.034,1.378c0.209,0.449,0.578,0.758,0.96,1.054
			c-0.724,0.26-1.506,0.111-1.819,1.074c-0.224,0.69,0.137,1.52,0.795,1.826c-1.067,0.742-1.016,2.152,0.007,2.883
			c0.44,0.315,0.963,0.491,1.478,0.658c1.681,0.544,3.492,1.039,5.188,0.545c0.451-0.131,0.677-0.637,0.616-1.084
			c-0.058-0.428-0.372-0.787-0.743-1.008c-0.371-0.221-0.798-0.325-1.218-0.426c0.46,0.111,1.334-0.442,1.699-0.676
			c0.539-0.346,1.016-0.792,1.381-1.319c0.615-0.887,0.723-1.787,0.778-2.829c0.019-0.365,0.096-0.576-0.109-0.907
			c-0.133-0.215-0.707-0.802-0.995-0.757c0.499-0.079,1.04-0.207,1.344-0.611c0.346-0.458,0.257-1.125-0.02-1.628
			c-0.629-1.142-2.092-1.617-3.29-1.848C295.713,161.655,293.669,161.022,292.248,162.151z"/>
		<path style="fill:none;stroke:#000000;stroke-linecap:round;stroke-linejoin:round;stroke-miterlimit:10;" d="M306.017,165.549
			c0.13,0.821,0.031,1.676-0.283,2.445"/>
		<path style="fill:none;stroke:#000000;stroke-linecap:round;stroke-linejoin:round;stroke-miterlimit:10;" d="M300.124,175.947
			c0.236,0.062,0.47-0.092,0.661-0.245c0.5-0.401,0.963-0.85,1.378-1.338"/>
		<g>
			<path style="fill:none;stroke:#000000;stroke-linecap:round;stroke-linejoin:round;stroke-miterlimit:10;" d="M369.169,222.502
				c0.436,1.641,1.564,3.087,3.05,3.909c1.486,0.822,3.31,1.009,4.932,0.507"/>
			<g>
				<path style="fill:#F5B09F;" d="M387.329,211.48c1.246-0.693,2.489-1.441,3.788-2.204c2.203-1.417,4.459-2.547,6.828-3.691
					c-5.23-3.368-9.949-7.528-13.947-12.294c-2.582-3.079-4.945-6.628-5.227-10.636c-0.283-4.008,2.226-8.446,6.2-9.037
					c2.88-0.428,6.28-0.088,8.699,1.533c9.639,6.458,17.609,15.702,24.757,24.841c1.67,2.135,3.327,4.511,3.434,7.22
					c0.247,6.261-6.599,9.126-11.427,11.084c-7.654,3.104-15.753,5.109-23.971,5.934c-0.934,0.094-1.878,0.174-2.77,0.465
					c-0.941,0.307-1.79,0.839-2.688,1.254c-1.446,0.669-3.005,1.029-4.56,1.346c-0.949,0.193-3.08,1.1-3.92,0.202
					c-0.313-0.335-0.03-0.87,0.254-1.23c-0.791,0.378-1.723,0.45-2.562,0.198c-0.434-0.131-0.869-0.371-1.067-0.779
					c-0.198-0.408-0.045-0.998,0.388-1.134c-0.481-0.04-0.851,0.252-1.342,0.168c-0.396-0.068-0.779-0.296-0.958-0.656
					c-0.245-0.493-0.049-1.114,0.324-1.519c0.373-0.405,0.889-0.643,1.39-0.87c1.406-0.637,3.705-1.184,4.681-2.417
					c-1.398,0.339-2.762,0.854-4.054,1.483c-0.762,0.371-2.169,1.416-2.9,0.378c-0.24-0.341-0.204-0.82-0.01-1.19
					c0.194-0.37,0.519-0.651,0.848-0.907c2.853-2.224,6.417-3.203,9.897-3.942C380.952,214.331,384.156,213.247,387.329,211.48z"/>
			</g>
			<path style="fill:#D16E4F;" d="M378.831,192.361c1.293,1.103,2.654,2.12,4.097,3.025c2.759-2.981,5.961-6.286,7.903-9.879
				c1.781-3.297,3.522-7.144,4.347-10.811c0.025-0.111,0.048-0.229,0.009-0.335c-0.283-0.761-2.227-1.172-2.903-1.521
				c-1.134-0.585-2.201-1.362-3.305-2.005c-2.309-1.346-4.665-2.61-7.074-3.769c-4.743-2.282-9.757-4.264-14.972-5.128
				c-2.022-0.335-0.864,1.275-2.822,1.881c-1.463,0.453,0.207,1.218-0.78,2.39c-2.102,2.497-3.356,5.677-3.611,8.925
				c-0.296,3.773,1.447,6.27,2.886,9.631c1.369,3.203,3.292,6.213,4.529,9.448c1.783,4.663,1.502,11.268,5.322,14.711
				c1.364,1.229,2.809,2.367,4.323,3.404c-0.676-0.463,0.698-10.311,0.734-11.622c0.077-2.838,0.84-6.491,0.298-9.244
				C378.147,191.768,378.487,192.068,378.831,192.361z"/>
			<path style="fill:none;stroke:#000000;stroke-linecap:round;stroke-linejoin:round;stroke-miterlimit:10;" d="M372.472,226.349
				c1.916-0.298,3.79-0.859,5.554-1.663"/>
			<path style="fill:none;stroke:#000000;stroke-linecap:round;stroke-linejoin:round;stroke-miterlimit:10;" d="M369.257,224.641
				c2.505-0.658,4.953-1.535,7.306-2.618"/>
			<path style="fill:none;stroke:#000000;stroke-linecap:round;stroke-linejoin:round;stroke-miterlimit:10;" d="M397.574,205.905
				c2.642-0.227,5.293-0.35,7.945-0.368"/>
			<path style="fill:none;stroke:#000000;stroke-linecap:round;stroke-linejoin:round;stroke-miterlimit:10;" d="M420.186,207.113
				c-0.181,1.068-0.546,2.105-1.076,3.05"/>
			<path style="fill:none;stroke:#000000;stroke-linecap:round;stroke-linejoin:round;stroke-miterlimit:10;" d="M372.811,219.678
				c0.628-0.269,1.256-0.539,1.884-0.808"/>
		</g>
		<path style="fill:none;stroke:#000000;stroke-linecap:round;stroke-linejoin:round;stroke-miterlimit:10;" d="M373.585,203.56
			c0.39,3.142,0.699,6.294,0.929,9.452"/>
		<path style="fill:none;stroke:#000000;stroke-linecap:round;stroke-linejoin:round;stroke-miterlimit:10;" d="M350.632,161.401
			c0.6,0.853,1.222,1.728,2.098,2.294c0.635,0.41,1.371,0.635,2.105,0.814c2.758,0.671,5.808,0.718,8.295-0.65"/>
		<path style="fill:none;stroke:#000000;stroke-linecap:round;stroke-linejoin:round;stroke-miterlimit:10;" d="M364.121,163.204
			c0.25-0.21,0.5-0.42,0.75-0.63"/>
		<path style="fill:none;stroke:#000000;stroke-linecap:round;stroke-linejoin:round;stroke-miterlimit:10;" d="M378.056,191.843
			c-0.379-1.065-0.758-2.13-1.137-3.195"/>
		<path style="fill:none;stroke:#000000;stroke-linecap:round;stroke-linejoin:round;stroke-miterlimit:10;" d="M391.405,183.959
			c-0.816,1.379-1.633,2.758-2.449,4.137"/>
		<path style="fill:none;stroke:#000000;stroke-linecap:round;stroke-linejoin:round;stroke-miterlimit:10;" d="M322.264,186.91
			c0.899,1.887,1.363,3.98,1.346,6.07"/>
		<path style="fill:none;stroke:#000000;stroke-linecap:round;stroke-linejoin:round;stroke-miterlimit:10;" d="M318.77,212.172
			c0.847,0.534,1.826,0.857,2.824,0.931"/>
		<path style="fill:none;stroke:#000000;stroke-linecap:round;stroke-linejoin:round;stroke-miterlimit:10;" d="M292.428,165.114
			c1.361,0.21,2.732,0.358,4.106,0.443c0.365,0.023,0.743,0.039,1.083-0.097c0.781-0.311,1.025-1.492,0.432-2.087"/>
		<path style="fill:none;stroke:#000000;stroke-linecap:round;stroke-linejoin:round;stroke-miterlimit:10;" d="M291.392,171.131
			c1.408,0.108,3.409,0.549,4.774,0.019c0.638-0.248,1.139-0.989,0.873-1.62c-0.232-0.552-0.894-0.76-1.482-0.87
			c-0.586-0.109-1.179-0.185-1.774-0.227c0.847,0.293,1.72,0.589,2.615,0.54c0.895-0.049,1.826-0.53,2.136-1.371
			c0.309-0.841-0.295-1.965-1.191-1.951"/>
		<path style="fill:none;stroke:#000000;stroke-linecap:round;stroke-linejoin:round;stroke-miterlimit:10;" d="M293.575,171.557
			c0.653-0.004,1.318-0.006,1.94,0.188c0.623,0.194,1.209,0.621,1.428,1.236c0.219,0.615-0.041,1.41-0.65,1.645"/>
		<path style="fill:none;stroke:#000000;stroke-linecap:round;stroke-linejoin:round;stroke-miterlimit:10;" d="M332.17,221.086
			c8.456,0.304,16.927,0.227,25.376-0.23"/>
	</g>
	<g>
		<g>
			<path style="fill:#F5B09F;" d="M169.777,358.637c4.959,0.165,10.923,0.479,11.013,1.148c-1.431-10.697,0.276-21.98-2.59-32.466
				c-0.781-2.857-1.635-6.099-4.456-7.524c-2.673-1.351-9.134-2.091-11.444,0.185c-1.277,1.259-1.328,3.269-1.296,5.062
				c0.188,10.424,0.376,20.849,0.564,31.273c0.012,0.692,0.084,1.496,0.661,1.877c0.305,0.201,0.688,0.233,1.053,0.259
				C163.803,358.486,166.581,358.53,169.777,358.637z"/>
			<path style="fill:#161111;" d="M168.905,355.454c3.323-0.119,6.642-0.342,9.951-0.667c0.53-0.052,1.082-0.104,1.579,0.088
				c1.72,0.666,3.085,2.564,4.908,3.39c2.292,1.039,4.692,1.888,7.027,2.828c2.298,0.925,4.62,1.862,6.634,3.248
				c0.484,0.333,0.977,0.731,1.12,1.275c0.62,2.353-5.585,1.633-6.834,1.621c-3.342-0.032-6.649-0.334-9.988-0.372
				c-6.993,0-13.53-0.797-20.457-1.192c-0.397-0.023-0.826-0.057-1.127-0.317c-0.311-0.268-0.404-0.703-0.472-1.108
				c-0.477-2.873-0.527-5.818-0.148-8.706C163.701,355.577,166.304,355.547,168.905,355.454z"/>
			<path style="fill:#F5B09F;" d="M116.02,343.396c-0.133-1.473-0.527-2.867-0.698-4.377c-0.472-4.175-0.797-8.469,0.316-12.52
				c1.113-4.051,3.934-7.865,7.957-9.078c3.924-1.183,8.866,0.722,10.916,4.32c2.221,3.897,1.227,9.58,1.56,13.911
				c0.633,8.22,0.11,16.045-0.662,23.5c-0.051,0.495-1.008-0.18-1.358,0.174c-0.49,0.496-1.295,0.424-1.987,0.331
				c-5.186-0.698-10.279-0.337-15.459-0.945c-0.106-0.012-0.219-0.027-0.304-0.092c-0.116-0.088-0.153-0.244-0.18-0.387
				c-0.404-2.144-0.341-4.346-0.277-6.527c0.073-2.479,0.247-4.977,0.22-7.456C116.062,343.962,116.046,343.678,116.02,343.396z"/>
			<path style="fill:#4764A8;" d="M106.406,264.08c1.91-15.237,5.345-30.477,8.697-45.348c1.356-6.015,3.348-11.786,4.829-17.759
				c0.672-2.712,1.432-5.58,3.458-7.504c1.399-1.329,3.264-2.059,5.136-2.53c6.391-1.61,13.115-0.534,19.616,0.549
				c3.638,0.606,7.449,1.286,10.337,3.58c8.098,6.432,11.36,25.081,13.716,34.682c3.46,14.097,5.338,28.528,6.945,42.936
				c2.516,22.555,4.415,45.178,5.695,67.839c0.474,8.466-37.505,4.225-37.488,4.827c-0.44-15.766-0.385-31.546,0.164-47.308
				c0.387-11.112,0.691-21.94-1.13-32.909c-0.779-4.696-0.538-9.291-0.795-14.131c-0.208-3.916-2.867-10.891-2.008-14.474
				c-2.746,11.448-3.585,21.76-4.3,33.34c-1.517,24.535-0.487,49.125-0.303,73.681c0.01,1.378-0.027,2.892-0.938,3.927
				c-1.083,1.23-2.945,1.293-4.584,1.259c-7.386-0.155-14.77-0.395-22.151-0.72c-1.407-0.062-3.02-0.236-3.82-1.393
				c-0.469-0.679-0.539-1.547-0.593-2.371c-1.442-21.783-2.893-43.64-1.799-65.475C105.335,273.886,105.791,268.983,106.406,264.08z
				"/>
			<g>
				<defs>
					<path id="SVGID_00000126283767245664202480000018050967732857271192_" d="M111.831,264.73
						c-0.349-11.726-0.613-23.049,1.376-34.704c0.853-4.996,5.284-22.229,12.008-23.167c0.41-0.057,0.731-0.025,1.021,0.04
						c0.352-1.753,1.073-3.4,2.079-4.907c2.933-4.391,8.255-7.596,13.701-8.798c6.041-1.333,13.406-0.568,16.063,5.92
						c1.361,3.322,1.044,6.702,2.666,9.915c4.582,9.076,5.17,18.086,6.533,28.08c1.611,11.805,3.285,23.603,5.022,35.392
						c3.3,22.402,6.835,44.774,10.589,67.113c-2.495,0.56-5.02,0.999-7.573,1.268c-4.436,0.468-8.892,0.35-13.316-0.13
						c-4.323-20.313-8.94-40.572-13.864-60.766c-2.463-10.103-4.529-19.984-7.074-29.573c-1.729,15.667-3.222,31.359-4.267,47.079
						c-0.533,8.014-0.95,16.034-1.222,24.059c-0.225,6.652-1.56,13.883-1.269,20.399c-5.086,0.841-11.16,0.073-16.372-0.273
						c-0.599-0.04-5.054-0.588-5.104-1.109c-1.364-14.076-1.311-25.389-1.627-40.17C110.965,289.286,112.155,275.626,111.831,264.73
						z"/>
				</defs>
				<clipPath id="SVGID_00000103235713384665517200000015023549046492559491_">
					<use xlink:href="#SVGID_00000126283767245664202480000018050967732857271192_"  style="overflow:visible;"/>
				</clipPath>
			</g>
			<path style="fill:#161111;" d="M131.179,366.251c-3.223,0-6.572,0.553-9.761,0.672c-4.442,0.166-8.885,0.315-13.329,0.431
				c-3.663,0.096-7.097-1.13-10.606-0.858c-0.904,0.07-1.986-0.25-2.253-1.116c-0.339-1.095,0.834-2.04,1.886-2.497
				c2.96-1.286,6.219-1.669,9.341-2.484c3.122-0.815,6.302-2.206,8.119-4.873c0.155-0.228,0.317-0.478,0.574-0.576
				c0.245-0.093,0.519-0.026,0.772,0.042c3.948,1.062,7.938,0.592,12.018,0.602c1.008,0.003,7.401-0.54,7.881,0.718
				c0.89,2.344,1.006,4.9,1.112,7.405c0.023,0.533,0.04,1.093-0.199,1.57c-0.613,1.222-2.34,1.141-3.702,1.033
				C132.422,366.272,131.803,366.251,131.179,366.251z"/>
			<path style="fill:none;stroke:#050504;stroke-linecap:round;stroke-linejoin:round;stroke-miterlimit:10;" d="M143.292,237.705
				c1.013-7.591,1.868-15.202,2.736-22.811"/>
		</g>
		<path d="M143.071,149.126c0.877,0.038,1.788-0.015,2.57-0.414c0.92-0.469,1.727-1.224,2.537-1.84
			c0.913-0.695,2.061-1.008,3.03-1.61c1.682-1.045,3.234-1.226,3.96-3.36c0.417-1.225,0.43-2.545,0.439-3.838
			c0.01-1.422,0.02-2.845-0.046-4.266c-0.003-0.059-0.006-0.119-0.009-0.178c-0.223-4.379-5.109-2.614-7.625-1.576
			c0.388-1.005-0.208-2.275-1.23-2.618c-0.609-0.205-1.29-0.103-1.875,0.163c-1.825,0.83-2.597,2.96-3.187,4.876
			c-0.583-1.036-2.199-1.278-3.059-0.459c-0.835,0.795-0.812,2.112-0.704,3.26C138.222,140.974,137.961,148.904,143.071,149.126z"/>
		<path style="fill:#F5B09F;" d="M171.64,183.819c-6.592-2.026-14.124-6.865-14.805-14.47c-0.33-3.683,3.001-7.197,6.677-7.309
			c1.593-0.048,3.093,0.695,4.487,1.467c3.212,1.78,6.368,3.867,9.971,4.771c3.299,0.828,6.571,1.411,9.993,1.624
			c7.341,0.457,14.729-0.367,21.886-2.005c1.696-0.388,3.409-0.823,5.148-0.755c1.739,0.068,3.545,0.72,4.579,2.12
			c1.103,1.494,1.123,3.575,0.514,5.33c-0.545,1.569-0.536,2.044-2.003,2.9c-10.808,6.314-23.488,9.958-35.998,8.516
			C178.598,185.604,175.105,184.884,171.64,183.819z"/>
		<path style="fill:#522E97;" d="M148.962,154.804c-0.031,0.102-0.037,0.211-0.027,0.317c0.067-0.018,0.136-0.032,0.205-0.044
			L148.962,154.804z"/>
		<path style="fill:#FFFFFF;" d="M232.44,180.448v-41.882c0-0.041-0.033-0.075-0.075-0.075h-5.154c-0.049,0-0.083,0.046-0.07,0.093
			c0.265,0.935,0.269,1.977-0.83,3.259c-0.85,0.992-2.143,1.575-3.424,1.322c-1.69-0.334-2.965-1.825-2.965-3.613
			c0-0.338,0.059-0.659,0.147-0.968c0.013-0.047-0.021-0.093-0.07-0.093h-5.419c-0.049,0-0.083,0.046-0.07,0.093
			c0.265,0.935,0.268,1.977-0.83,3.259c-0.85,0.992-2.143,1.575-3.424,1.322c-1.69-0.334-2.965-1.825-2.965-3.613
			c0-0.338,0.059-0.659,0.147-0.968c0.013-0.047-0.021-0.093-0.07-0.093h-5.419c-0.049,0-0.083,0.046-0.07,0.093
			c0.265,0.935,0.269,1.977-0.83,3.259c-0.85,0.992-2.143,1.575-3.424,1.322c-1.69-0.334-2.965-1.825-2.965-3.613
			c0-0.338,0.059-0.659,0.147-0.968c0.013-0.047-0.021-0.093-0.07-0.093h-5.419c-0.049,0-0.083,0.046-0.07,0.093
			c0.265,0.935,0.268,1.977-0.83,3.259c-0.85,0.992-2.143,1.575-3.424,1.322c-1.69-0.334-2.965-1.825-2.965-3.613
			c0-0.338,0.059-0.659,0.147-0.968c0.013-0.047-0.021-0.093-0.07-0.093h-5.147c-0.041,0-0.075,0.033-0.075,0.075l0.064,41.882
			H232.44z"/>
		<path style="fill:#D16E4F;" d="M118.27,198.941c2.053,0.697,4.09,1.355,6.192,1.906c4.601,1.206,9.234,2.01,13.907,2.862
			c3.254,0.593,6.484,1.312,9.746,1.862c5.182,0.874,12.622,1.293,17.726-0.26c-0.395-8.051-2.488-14.937-2.883-22.988
			c0.252,0.28,3.891,1.712,5.318,2.347c0.31,0.138,0.668-0.024,0.768-0.348c1.079-3.508,6.12-20.163,4.729-20.893
			c-0.732-0.384-1.439-0.823-2.148-1.243c-5.1-3.028-10.719-5.247-16.546-6.557c-5.324-1.197-11.535-2.617-16.991-2.396
			c-10.352,0.418-12.136,9.017-13.878,17.278c-0.626,2.969-1.239,5.941-1.844,8.915c-0.855,4.204-1.695,8.412-2.535,12.619
			C119.732,192.539,119.046,196.964,118.27,198.941z"/>
		<path style="fill:#F5B09F;" d="M150.199,152.414c0.017-0.321,0.042-0.638,0.079-0.949c0.057-0.479,0.139-0.984,0.466-1.349
			c0.347-0.388,0.897-0.539,1.379-0.765c1.665-0.778,2.278-2.494,2.759-4.088c0.539-1.785,0.685-3.709,0.472-5.566
			c-0.235-2.037-0.072-5.171-1.631-6.658c-1.298-1.238-4.047-0.844-5.835-0.384c-1.034,0.266-1.946,0.843-2.718,1.531
			c-0.899,0.802-2.207,2.125-2.541,3.282c-0.24,0.831-0.464,1.667-0.671,2.507c-0.531,2.161-0.144,4.442-0.393,6.655
			c-0.22,1.953-0.717,4.108-1.376,5.973c-0.13,0.368-0.424,0.675-0.787,0.82c0.556,1.131,1.112,2.263,1.669,3.394
			c0.814,1.656,1.942,3.735,3.66,4.591c1.723,0.859,3.415,0.014,4.322-1.452C150.422,157.744,150.065,154.954,150.199,152.414z"/>
		<path d="M154.276,130.56c-0.292,0.097-0.588,0.177-0.891,0.216c-0.07-1.225-0.714-1.751-2.026-1.722
			c-1.783,0.04-3.518,1.024-4.467,2.535c-0.588-0.639-1.557-0.897-2.385-0.636c-0.828,0.261-1.473,1.028-1.589,1.889
			c-0.139,1.035,0.352,2.318-0.442,2.996c-0.264,0.225-0.614,0.314-0.946,0.415c-1.668,0.51-3.467,2.058-2.116,3.779
			c0.552,0.703,1.489,1.542,2.384,1.738c0.631,0.139,0.753-0.262,1.1-0.695c0.361-0.45,0.85-0.671,1.42-0.715
			c0.531-0.041,1.143-0.063,1.471-0.483c0.177-0.226,0.229-0.524,0.264-0.809c0.215-1.749,0.445-3.402,2.497-3.825
			c1.156-0.238,2.353,0.068,3.462,0.47c2.424,0.878,4.942-0.429,6.445-2.478c0.404-0.55,0.74-1.221,0.613-1.891
			c-0.198-1.04-1.434-1.571-2.488-1.474C155.77,129.943,155.033,130.309,154.276,130.56z"/>
		<path style="fill:#F5B09F;" d="M145.665,141.212c-0.009-0.608-0.108-1.222-0.375-1.758c-0.267-0.535-0.715-0.986-1.27-1.157
			c-0.45-0.139-0.939-0.09-1.393,0.048c-1.758,0.532-2.741,2.401-2.235,4.224c0.188,0.677,0.791,1.251,1.413,1.49
			c0.49,0.188,1.02,0.234,1.543,0.279"/>
		<path style="fill:#FFFFFF;" d="M153.71,143.572l-4.888,0.596C149.092,145.231,152.442,147.553,153.71,143.572z"/>
		<path d="M151.394,149.407c-0.987,0.063-1.952-0.071-2.911-0.28c0.293,0.491,0.499,1.014,0.793,1.494
			c0.331,0.541,0.767,0.989,0.939,1.598c0.049-0.401,0.095-0.801,0.183-1.197c0.075-0.337,0.175-0.677,0.389-0.952
			c0.298-0.385,0.779-0.598,1.26-0.743c0.016-0.005,0.033-0.01,0.049-0.015C151.864,149.352,151.631,149.391,151.394,149.407z"/>
		<path style="fill:#F5B09F;" d="M126.928,168.427c0.443-2.284,1.654-4.4,3.616-5.78c4.886-3.438,8.127-1.215,12.384,1.488
			c2.131,1.353,4.353,2.741,6.871,3.113c2.914,0.431,5.873-0.582,8.256-2.18c3.44-2.307,6.172-5.738,8.864-8.785
			c2.787-3.155,5.575-6.309,8.363-9.464c1.729-1.957,3.179-3.855,5.283-5.435c1.72-1.292,3.802-2.511,5.93-2.958
			c1.521-0.32,3.927-0.447,4.908,1.05c0.968,1.477,0.19,3.781-0.793,5.038c-1.015,1.296-2.447,2.185-3.83,3.078
			c-1.394,0.9-2.937,1.941-3.854,3.361c-1.117,1.729-1.777,3.967-2.591,5.855c-3.32,7.705-7.219,14.985-13.466,20.712
			c-2.634,2.415-5.599,4.56-8.983,5.711c-6.549,2.227-13.739,0.492-20.311-1.667c-3.124-1.026-6.359-2.24-8.523-4.715
			C127.056,174.563,126.36,171.357,126.928,168.427z"/>
		<path style="fill:#D16E4F;" d="M136.755,153.301c-11.046,0.226-19.302,6.666-18.732,16.12c0.353,5.847,3.455,11.094,7.987,14.955
			c0.409,0.349,10.172-9.906,11.057-10.908c0.578-0.655,8.606-10.275,8.606-10.275s-1.674-0.91-2.495-1.458
			c-2.109-1.407-3.535-3.301-5.275-5.109"/>
		<path style="fill:none;stroke:#222221;stroke-width:0.5;stroke-miterlimit:10;" d="M143.127,139.725
			c0.452,0.15,0.934,0.321,1.209,0.694c0.332,0.45,0.263,1.049,0.18,1.587"/>
		<path style="fill:none;stroke:#222221;stroke-linecap:round;stroke-linejoin:round;stroke-miterlimit:10;" d="M154.387,182.515
			c2.141-0.395,4.225-1.103,6.163-2.096"/>
		<path style="fill:none;stroke:#222221;stroke-linecap:round;stroke-linejoin:round;stroke-miterlimit:10;" d="M190.041,138.477
			c-2.309,0.662-4.375,1.965-6.392,3.27"/>
		<path style="fill:none;stroke:#222221;stroke-linecap:round;stroke-linejoin:round;stroke-miterlimit:10;" d="M184.81,143.119
			c2.231-1.051,4.39-2.254,6.457-3.6"/>
		<path style="fill:none;stroke:#222221;stroke-linecap:round;stroke-linejoin:round;stroke-miterlimit:10;" d="M191.846,141.228
			c-1.684,1.7-3.662,3.108-5.82,4.143"/>
		<path style="fill:none;stroke:#222221;stroke-linecap:round;stroke-linejoin:round;stroke-miterlimit:10;" d="M140.174,159.751
			c1.409,1.66,2.818,3.32,4.226,4.98"/>
		<path style="fill:none;stroke:#222221;stroke-linecap:round;stroke-linejoin:round;stroke-miterlimit:10;" d="M132.015,178.852
			c-1.354,1.654-2.75,3.272-4.186,4.854c-0.138,0.152-0.292,0.312-0.495,0.343c-0.132,0.02-0.266-0.02-0.393-0.061
			c-1.36-0.444-2.627-1.172-3.695-2.124"/>
		<path style="fill:none;stroke:#222221;stroke-linecap:round;stroke-linejoin:round;stroke-miterlimit:10;" d="M125.859,201.497
			c2.075,0.327,4.15,0.654,6.224,0.981"/>
		<path style="fill:none;stroke:#222221;stroke-linecap:round;stroke-linejoin:round;stroke-miterlimit:10;" d="M139.33,204.207
			c7.212,0.719,14.511,3.728,21.482,1.743"/>
	</g>
	<g>
		<path style="fill:#61BA89;" d="M108.769,369.976c5.412-2.299,11.701-2.699,17.144-0.85c2.19,0.744,4.618,2.407,4.33,4.702
			c-0.128,1.016-0.783,1.876-1.426,2.673c-3.154,3.907-6.576,7.598-10.232,11.04c-3.417,3.216-6.454,5.22-10.404,7.571
			c-4.949,2.945-5.887,6.75-7.951,11.627c-2.402,5.675-4.871,11.475-5.12,17.723c0.231-5.792-1.588-11.453-2.233-17.213
			c-1.061-9.468,0.977-22.603,6.841-30.367C102.026,373.824,105.208,371.488,108.769,369.976z"/>
		<path style="fill:none;stroke:#111314;stroke-linecap:round;stroke-miterlimit:10;" d="M94.906,443.706
			c1.159-18.316,0.559-34.347,7.136-51.921"/>
		<path style="fill:#61BA89;" d="M66.206,360.733c-0.078-4.638,0.822-9.225,3.167-13.633c0.346-0.65,0.769-1.302,1.416-1.653
			c0.921-0.498,2.057-0.269,3.049,0.064c5.758,1.934,10.12,6.892,12.61,12.432c2.49,5.54,3.335,11.664,3.924,17.71
			c0.835,8.587,1.206,17.29,0.116,25.873c-0.471,3.71-1.743,7.227-2.351,10.827c-0.461,2.732-1.452,9.181-0.623,11.768
			c-2.871-8.952-4.077-17.998-8.194-26.532C74.064,386.695,66.421,373.519,66.206,360.733z"/>
		<path style="fill:none;stroke:#111314;stroke-linecap:round;stroke-miterlimit:10;" d="M75.203,364.421
			c9.213,22.593,13.406,47.217,12.191,71.586"/>
		<path style="fill:#61BA89;" d="M68.656,408.101c-3.586-2.207-6.749-5.285-10.394-7.296c-4.521-2.493-9.916-4.035-14.702-5.984
			c-1.354-0.552-2.752-1.132-3.758-2.194c-1.585-1.672-1.868-4.156-2.07-6.451c-0.042-0.471-0.076-0.979,0.167-1.385
			c0.204-0.342,0.569-0.551,0.921-0.738c6.744-3.577,14.836-4.534,22.229-2.63c2.004,0.516,3.982,1.248,5.665,2.453
			c2.044,1.464,3.552,3.553,4.871,5.693c4.747,7.7,7.521,16.605,7.989,25.639C75.827,412.947,72.059,410.831,68.656,408.101z"/>
		<path style="fill:none;stroke:#111314;stroke-linecap:round;stroke-miterlimit:10;" d="M64.809,391.882
			c3.838,5.011,7.382,10.247,10.607,15.673c1.63,2.742,3.181,5.538,4.459,8.461c2.521,5.77,3.949,12.016,4.186,18.309"/>
		<polygon style="fill:#111314;" points="103.427,447.753 106.297,424.096 72.14,424.096 74.95,447.753 		"/>
	</g>
	<g>
		<path style="fill:#61BA89;" d="M311.783,362.929c-3.724-3.852-8.197-6.969-13.175-8.99c-1.356-0.55-2.913-1.02-4.243-0.409
			c-2.254,1.036-2.238,4.195-1.868,6.648c1.348,8.942,2.777,18.121,7.284,25.961c1.857,3.23,4.196,6.154,6.576,9.02
			c3.7,4.456,9.043,8.791,12.035,13.699c2.53,4.152,3.892,10.785,4.085,15.604c-0.231-5.792,1.588-11.453,2.233-17.213
			c0.688-6.141-0.811-11.878-1.482-17.911c-0.572-5.143-1.309-9.878-3.465-14.653C317.808,370.354,315.091,366.351,311.783,362.929z
			"/>
		<path style="fill:none;stroke:#111314;stroke-linecap:round;stroke-miterlimit:10;" d="M322.678,443.706
			c-1.159-18.316,1.552-37.51-5.025-55.084c-1.64-4.382-4.245-8.183-6.263-12.376"/>
		<path style="fill:#61BA89;" d="M353.367,361.023c0.741-5.263,0.409-10.694-0.987-15.819c-0.336-1.234-6.295-14.768-7.285-13.915
			c-9.882,8.516-16.239,21.004-17.311,34.005c-0.788,9.552,0.636,19.373,1.178,28.867c0.569,9.959,0.386,19.983,1.108,29.961
			c2.871-8.952,4.077-17.998,8.194-26.532c5.213-10.805,12.576-22.928,14.811-34.795
			C353.186,362.207,353.283,361.616,353.367,361.023z"/>
		<path style="fill:none;stroke:#111314;stroke-linecap:round;stroke-miterlimit:10;" d="M342.381,364.421
			c-9.213,22.593-13.406,47.217-12.191,71.586"/>
		<path style="fill:#61BA89;" d="M348.447,406.439c1.308-0.266,2.577-0.617,3.737-1.157c2.731-1.271,5.423-3.018,8.097-4.444
			c6.612-3.297,13.734-7.429,15.945-14.479c0.764-2.437,0.857-5.026,0.944-7.578l0.161-4.728c0.045-1.329-1.308-2.265-2.526-1.732
			c-7.222,3.156-15.621,3.899-21.879,8.696c-2.277,1.745-5.788,4.286-6.903,6.94c-0.747,1.778-1.384,3.603-1.903,5.461
			c-1.14,4.082-1.707,8.323-1.678,12.561c0.003,0.488,0.042,1.039,0.413,1.357C344.664,407.017,346.595,406.815,348.447,406.439z"/>
		<path style="fill:none;stroke:#111314;stroke-linecap:round;stroke-miterlimit:10;" d="M352.776,391.882
			c-3.838,5.011-7.382,10.247-10.607,15.673c-1.63,2.742-3.181,5.538-4.458,8.461c-2.521,5.77-3.949,12.016-4.186,18.309"/>
		<polygon style="fill:#111314;" points="317.157,448.753 314.288,425.096 348.444,425.096 345.634,448.753 		"/>
	</g>
	<g>
		<path style="fill:#050504;" d="M176.776,429.004c-0.868-0.087-1.411,0.896-1.697,1.72c-0.9,2.59-1.663,5.227-2.285,7.898
			c-0.35,1.501-2.048,6.163-1.362,7.544c0.771,1.551,5.646,1.598,7.166,1.668c2.375,0.109,4.753-0.03,7.129-0.019
			c5.15,0.025,10.301,0.05,15.451,0.075c4.938,0.024,4.917-4.077,0.243-4.908c-2.184-0.388-4.34-0.934-6.445-1.632
			c-1.669-0.553-3.48-1.368-4.118-3.007c-0.273-0.701-0.292-1.47-0.307-2.222c-0.035-1.73,0.269-3.85-0.133-5.536
			c-0.201-0.845-1.639-3.446-2.711-3.446c-0.64-0.553-1.464-0.847-2.291-1.024C181.614,425.3,179.029,425.833,176.776,429.004z"/>
		<path style="fill:#050504;" d="M243.251,429.004c-0.868-0.087-1.41,0.896-1.697,1.72c-0.9,2.59-1.663,5.227-2.285,7.898
			c-0.349,1.501-2.048,6.163-1.362,7.544c0.771,1.551,5.646,1.598,7.166,1.668c2.375,0.109,4.753-0.03,7.129-0.019
			c5.15,0.025,10.301,0.05,15.451,0.075c4.938,0.024,4.917-4.077,0.243-4.908c-2.184-0.388-4.34-0.934-6.445-1.632
			c-1.669-0.553-3.48-1.368-4.118-3.007c-0.273-0.701-0.292-1.47-0.307-2.222c-0.035-1.73,0.269-3.85-0.133-5.536
			c-0.202-0.845-1.639-3.446-2.711-3.446c-0.64-0.553-1.464-0.847-2.291-1.024C248.088,425.3,245.504,425.833,243.251,429.004z"/>
		<path style="fill:#050504;" d="M208.99,242.479h-6.091c-0.757,0-1.37-0.613-1.37-1.37v-13.881c0-0.757,0.613-1.37,1.37-1.37h6.091
			c0.757,0,1.37,0.613,1.37,1.37v13.881C210.361,241.866,209.747,242.479,208.99,242.479z"/>
		<path style="fill:#F5B09F;" d="M199.44,241.344c0.014-0.73,0.114-1.46,0.247-2.147c0.155-0.797,0.384-1.579,0.684-2.334
			c0.176-0.443,1.058-1.614,1.02-2.028c0.11,1.193,0.356,2.4,0.972,3.428c0.531,0.886,1.925,2.398,3.049,2.021
			c1.482-0.497,2.411-1.916,3.426-3.106c0.275-0.323,0.655-0.664,1.066-0.561c0.331,0.082,0.532,0.441,0.545,0.782
			c0.013,0.341-0.12,0.668-0.252,0.983c-0.625,1.494-1.309,3.024-1.526,4.643c-0.08,0.593,0.085,1.066,0.072,1.633
			c-0.019,0.829-0.44,1.707-0.666,2.497c-0.362,1.269-0.569,2.613-0.644,3.929c-0.075,1.33-0.555,3.986-2.116,4.419
			c-0.528,0.146-1.089,0.054-1.628-0.047c-0.946-0.178-1.903-0.389-2.747-0.854c-0.844-0.464-1.572-1.221-1.792-2.158
			c-0.295-1.257,0.348-2.514,0.729-3.747C200.739,245.909,199.39,243.93,199.44,241.344z"/>
		<g id="XMLID_14_">
			<path id="XMLID_15_" style="fill:#4764A8;" d="M189.333,275.669c2.943-4.4,6.435-8.49,10.748-11.359
				c3.929-2.613,14.358-13.538,18.062-16.525c7.297-5.885,9.133-4.346,18.861-2.531c5.187,0.969,2.48,5.241,1.358,8.844
				c-4.312,13.834-9.505,30.287-23.382,37.499c-4.295,2.232-9.127,3.243-13.941,3.744c-3.65,0.38-7.472,0.455-10.839-1.007
				c-3.366-1.462-6.143-4.826-5.873-8.486c0.137-1.862,1.018-3.58,1.944-5.201C187.225,278.977,188.241,277.302,189.333,275.669z"/>
		</g>
		<g id="XMLID_10_">
			<path style="fill:#F5B09F;" d="M231.233,251.58c-0.634-0.725-1.088-1.621-1.283-2.723c-0.139-0.786-0.01-1.591,0.12-2.378
				c0.78-4.74,1.738-9.294,1.528-14.093c-0.191-4.381-0.925-8.983,0.774-13.175c0.438-1.081,1.04-2.111,1.882-2.918
				c0.973-0.934,2.219-1.529,3.477-2.015c2.742-1.061,5.653-1.68,8.589-1.826c0.721-0.036,1.487-0.033,2.107,0.338
				c1.159,0.694,1.675,3.848,1.928,5.054c0.53,2.527,1.063,5.076,1.055,7.658c-0.006,1.877-0.223,3.91-1.012,5.633
				c-0.901,1.968-2.88,1.715-3.734,3.368c-0.312,0.604-0.352,1.307-0.366,1.986c-0.08,3.9,0.506,7.785,0.375,11.686
				c-0.123,3.667-0.788,5.675-4.798,6.089C238.576,254.606,233.624,254.314,231.233,251.58z"/>
		</g>
		<g id="XMLID_9_">
			<path style="fill:#D16E4F;" d="M215.647,406.895c1.646-3.487,3.402-6.927,5.365-10.281c3.221-5.503,6.716-10.872,9.317-16.694
				c3.687-8.254,3.99-17.415,5.345-26.246c1.574-10.253,3.394-20.468,5.458-30.634c0.994-4.894,2.05-9.857,1.673-14.837
				c-0.431-5.693-3.552-13.863-10.197-14.09c-8.311-0.284-16.976,6.306-20.447,13.595c-3.439,7.222-3.889,15.443-4.582,23.411
				c-0.697,8.008-1.696,15.991-2.996,23.924c-0.631,3.854-1.34,7.721-2.706,11.379c-1.74,4.66-4.498,8.858-7.172,13.052
				c-9.98,15.656-21.683,32.607-23.554,51.497c-0.036,0.361-0.048,0.773,0.206,1.033c0.179,0.184,0.448,0.242,0.7,0.292
				c5.139,1.015,10.277,2.029,15.416,3.044c4.172,0.824,8.397,1.652,12.643,1.41c0.745-0.042,1.533-0.135,2.121-0.594
				c0.467-0.365,0.746-0.914,1.008-1.445C207.768,425.548,211.324,416.056,215.647,406.895z"/>
		</g>
		<g id="XMLID_8_">
			<path style="fill:#D16E4F;" d="M268.761,395.981c0.169-6.731-0.253-13.468-0.675-20.19c-0.53-8.433-1.059-16.868-1.891-25.277
				c-0.234-2.367-0.989-4.487-1.206-6.832c-0.251-2.712-0.501-5.424-0.8-8.131c-1.247-11.255-3.167-22.491-6.945-33.2
				c-2.558-7.252-7.797-19.265-17.691-16.738c-3.248,0.829-5.813,3.456-7.29,6.466c-1.477,3.009-2.004,6.388-2.354,9.721
				c-0.969,9.242-0.376,18.54,0.891,27.722c0.567,4.107,0.89,8.069,2.828,11.701c2.097,3.93,2.735,8.879,3.444,13.216
				c1.7,10.398,2.807,20.936,2.391,31.463c-0.284,7.186-1.281,14.34-1.21,21.54c0.064,6.473-1.458,12.826-1.74,19.362
				c-0.098,2.265-0.798,6.048,1.398,7.559c0.958,0.66,2.144,0.882,3.294,1.053c4.848,0.717,9.793,0.773,14.657,0.176
				c2.637-0.324,7.23-0.159,8.624-2.931c0.39-0.775,0.513-1.652,0.631-2.511c0.793-5.812,1.536-11.63,2.231-17.454
				c0.596-4.993,1.156-9.996,1.359-15.021C268.729,397.109,268.747,396.545,268.761,395.981z"/>
		</g>
		<g id="XMLID_7_">
			<path style="fill:#4764A8;" d="M263.815,255.699c-0.13-1.019-0.281-2.033-0.456-3.042c-1.553-8.973-13.063-10.998-20.592-11.426
				c-5.717-0.326-11.558-0.018-16.963,1.872c-5.405,1.889-10.365,5.498-13.032,10.565c-0.198,0.376-0.385,0.768-0.427,1.191
				c-0.059,0.596,0.177,1.176,0.376,1.74c2.338,6.622-0.675,12.845-1.665,19.375c-1.105,7.292-1.066,14.693-1.122,22.048
				c-0.024,3.077-0.061,6.154-0.184,9.229c-0.153,3.822,1.356,3.558,4.999,4.26c5.903,1.138,11.949,1.209,17.94,1.285
				c8.219,0.105,16.45,0.209,24.646-0.404c1.444-0.108,2.983-0.276,4.098-1.2c1.251-1.037,1.654-2.76,1.919-4.363
				c1.425-8.653,1.03-17.964,1.139-26.73C264.589,272.064,264.842,263.728,263.815,255.699z"/>
		</g>
		<path style="fill:#F5B09F;" d="M318.813,258.651c2.132-2.392,4.309-4.765,6.327-7.222c2.084-2.537,4.858-4.591,6.913-7.155
			c0.184-0.229,0.363-0.468,0.617-0.64c0.255-0.173,0.606-0.269,0.91-0.169c0.545,0.179,0.605,0.826,0.45,1.308
			c-0.268,0.835-0.901,1.752-1.554,2.409c-0.617,0.621-1.366,1.28-1.779,2.013c0.859,0.382,1.875,0.405,2.761,0.923
			c3.441,2.01,2.83,5.306,0.828,8.223c-0.422,0.615-0.928,1.203-1.602,1.523c-0.675,0.321-1.457,0.344-2.145,0.637
			c-0.758,0.324-1.341,0.948-1.899,1.556c-1.371,1.491-2.741,2.982-4.112,4.474c-0.432,0.47-0.886,0.956-1.482,1.186
			c-0.492,0.19-1.036,0.186-1.561,0.136c-1.606-0.153-3.233-0.772-4.269-2.008c-1.528-1.824-1.027-4.214,0.418-5.86
			C318.024,259.538,318.418,259.094,318.813,258.651z"/>
		<g id="XMLID_5_">
			<defs>
				<path id="SVGID_00000083090347930794203160000012718708387387273403_" d="M225.866,251.099
					c0.454-3.548,0.833-14.831,1.195-17.002c-0.16-0.741,0.34-3.63,0.348-4.375c0.043-4.263,1.057-8.077,5.558-10.051
					c4.461-1.957,10.256-1.245,13.447,2.214c0.067,0.073,0.125,0.152,0.189,0.226c1.509,1.135,2.686,2.626,3.349,4.321
					c1.396,3.571,0.619,8.604-2.175,11.413c0.867,3.466,1.771,8.018,2.415,9.84c0.343,0.969,1.559,2.28,1.007,3.291
					c-3.75,6.868-13.691,7.403-20.851,4.487C227.051,254.123,225.39,254.821,225.866,251.099z"/>
			</defs>
			<clipPath id="SVGID_00000105394380857477992200000012088031560249553026_">
				<use xlink:href="#SVGID_00000083090347930794203160000012718708387387273403_"  style="overflow:visible;"/>
			</clipPath>
		</g>
		<g id="XMLID_3_">
			<path style="fill:#4764A8;" d="M249.049,241.915c-8.575-0.994-11.656,9.642-10.08,16.728c2.025,9.104,9.66,16.589,17.286,21.398
				c3.807,2.401,8.017,3.858,11.941,6.017c4.083,2.246,7.949,4.972,12.427,6.405c6.559,2.099,13.796,1.181,20.226-1.286
				c6.43-2.467,12.185-6.392,17.776-10.412c4.069-2.926,8.424-6.473,9.044-11.446c0.601-4.825-2.538-9.234-5.513-13.081
				c-0.5-0.647-1.067-1.337-1.866-1.511c-0.457-0.1-0.934-0.013-1.389,0.095c-4.976,1.184-9.159,4.761-14.102,6.161
				c-4.643,1.315-9.442,2.09-14.255,2.401c-7.763,0.502-13.524-0.531-19.049-6.533C266.125,251.017,260.963,243.297,249.049,241.915
				z"/>
		</g>
		<path style="fill:none;stroke:#050504;stroke-miterlimit:10;" d="M283.278,273.823"/>
		<g id="XMLID_1_">
			<path id="XMLID_2_" style="fill:#050504;" d="M233.08,210.962c0.317-0.124,0.637-0.238,0.958-0.344
				c4.108-1.358,8.497-1.552,12.82-1.733c1.287-0.054,2.616-0.102,3.819,0.358c2.57,0.981,3.753,4.646,2.029,6.79
				c-2.258,2.809-5.786,1.344-7.227,5.176c-1.131,3.008-0.759,6.352-2.566,9.149c-1.91,2.955-4.973,4.94-8.514,5.127
				c-2.621,0.138-6.034-2.175-6.53-4.831c-0.257-1.375,0.26-2.64,0.061-3.968c-0.284-1.892,0.334-3.415,0.29-5.35
				c-0.026-1.145-0.572-2.217-0.703-3.354c-0.204-1.766,0.634-3.541,1.905-4.785C230.45,212.188,231.733,211.488,233.08,210.962z"/>
		</g>
		<path style="fill:#4764A8;" d="M203.591,249.276c3.715,0.545,7.04,1.775,7.955,4.359c0.46,1.298,0.113,2.728-0.237,4.06
			c-2.4,9.139-2.919,18.488-5.601,27.63c-0.559,1.905-1.205,3.872-2.59,5.295c-1.852,1.902-4.666,2.471-7.314,2.663
			c-2.923,0.213-6.015,0.041-8.527-1.47c-3.254-1.956-4.934-5.86-5.179-9.649c-0.245-3.789,0.729-7.539,1.694-11.211
			c1.596-6.071,3.193-12.143,4.789-18.214c0.294-1.117,0.648-2.325,1.587-2.997c0.704-0.504,1.611-0.608,2.475-0.669
			C195.007,248.905,199.532,248.682,203.591,249.276z"/>
		<path style="fill:#F5B09F;" d="M246.346,224.347c-0.147-0.794-1.05-1.243-1.857-1.227c-1.065,0.021-2.095,0.67-2.573,1.623
			c-0.477,0.953-0.381,2.167,0.24,3.032c0.351,0.489,0.878,0.874,1.475,0.948c1.029,0.127,1.98-0.712,2.338-1.685
			c0.358-0.973,0.266-2.047,0.168-3.079"/>
		<path style="fill:#050504;" d="M244.301,224.479c-0.662-0.096-1.35,0.436-1.424,1.101c-0.074,0.665,0.481,1.334,1.148,1.386"/>
		<path style="fill:none;stroke:#050504;stroke-miterlimit:10;" d="M210.481,255.831c-5.471,5.551-10.223,11.811-14.098,18.573"/>
		<path style="fill:none;stroke:#050504;stroke-linecap:round;stroke-linejoin:round;stroke-miterlimit:10;" d="M209.588,290.975
			c0.959-8.443,1.832-20.687,4.127-28.868"/>
		<path style="fill:none;stroke:#050504;stroke-linecap:round;stroke-linejoin:round;stroke-miterlimit:10;" d="M236.273,350.52
			c-0.863-3.108-4.249-10.628-5.353-17.439c-0.7-4.32-0.611-5.991-0.345-10.36"/>
		<path style="fill:none;stroke:#050504;stroke-linecap:round;stroke-linejoin:round;stroke-miterlimit:10;" d="M264.387,283.772
			c-6.359-2.608-11.388-8.261-13.239-14.88"/>
		<path style="fill:none;stroke:#050504;stroke-linecap:round;stroke-linejoin:round;stroke-miterlimit:10;" d="M214.775,311.506
			c7.726,0.977,15.523,1.398,23.31,1.258"/>
		<path style="fill:none;stroke:#050504;stroke-linecap:round;stroke-linejoin:round;stroke-miterlimit:10;" d="M245.33,313.234
			c2.069-0.187,4.158-0.149,6.218,0.115"/>
	</g>
	<path style="fill:none;stroke:#000000;stroke-linecap:round;stroke-linejoin:round;stroke-miterlimit:10;" d="M266.344,360.176
		c0.482,3.976,0.964,7.951,1.446,11.927"/>
	<path style="fill:none;stroke:#000000;stroke-linecap:round;stroke-linejoin:round;stroke-miterlimit:10;" d="M227.395,384.534
		c-0.518,0.863-1.036,1.727-1.554,2.59"/>
	<path style="fill:none;stroke:#000000;stroke-linecap:round;stroke-linejoin:round;stroke-miterlimit:10;" d="M221.663,392.798
		c-1.207,1.728-2.413,3.456-3.62,5.184"/>
</g>
</svg>
