<?xml version="1.0" encoding="utf-8"?>
<!-- Generator: Adobe Illustrator 27.5.0, SVG Export Plug-In . SVG Version: 6.00 Build 0)  -->
<svg version="1.1" xmlns="http://www.w3.org/2000/svg" xmlns:xlink="http://www.w3.org/1999/xlink" x="0px" y="0px"
	 viewBox="0 0 500 500" style="enable-background:new 0 0 500 500;" xml:space="preserve">
<g id="BACKGROUND">
	<rect style="fill:#FFFFFF;" width="500" height="500"/>
</g>
<g id="OBJECTS">
	<g>
		<path style="fill:#F5DEDA;" d="M100.454,221.21c-3.733-0.311-7.481-0.28-11.211,0.096c-5.038,0.508-9.866,2.866-13.457,7.947
			c-3.293,4.659-4.942,11.439-4.353,17.899c0.59,6.459,3.406,12.463,7.433,15.847c9.332,7.842,23.958,5.651,34.149,3.254
			c2.342-0.551,4.759-1.293,6.627-3.32c1.705-1.851,2.772-4.582,3.701-7.288c2.461-7.165,4.232-15.938,1.282-22.742
			c-2.546-5.872-7.771-8.273-12.63-9.622C108.19,222.224,104.33,221.533,100.454,221.21z"/>
		<path style="fill:#F5DEDA;" d="M437.708,230.301c-5.629-4.8-13.156-6.803-19.578-10.536c-9.657-5.613-13.686-16.073-5.078-24.701
			c3.218-3.225,7.245-5.589,10.506-8.772c9.939-9.703,10.532-27.051,1.278-37.381c-6.672-7.448-16.891-10.798-26.798-12.87
			c-36.489-7.63-74.389-2.111-111.655-3.995c-8.644-0.437-17.475-1.329-25.285-4.972c-1.596-0.745-3.202-1.657-4.156-3.112
			c-2.321-3.544,0.356-8.326,3.842-10.796c3.487-2.47,7.82-3.827,10.771-6.892c5.859-6.085,3.562-16.651-2.613-22.429
			c-6.176-5.778-14.93-7.937-23.302-9.643c-24.055-4.903-49.207-7.859-73.053-2.065c-6.354,1.544-12.764,3.823-17.467,8.272
			c-4.703,4.449-7.301,11.514-4.854,17.445c2.046,4.958,7.305,8.821,7.174,14.165c-0.106,4.322-3.83,7.735-7.701,9.832
			c-21.117,11.443-49.438-1.523-70.883,9.324c-16.31,8.249-27.516,37.308-9.536,49.752c5.806,4.018,13.346,4.507,20.455,4.79
			c17.416,0.695,34.922,0.468,52.232,1.76c13.618,1.016,27.76,3.218,33.204,17.669c0.919,2.441,1.444,5.122,0.796,7.644
			c-1.155,4.498-5.702,7.385-10.219,8.814s-9.364,1.876-13.677,3.817c-5.957,2.68-10.455,8.26-11.725,14.544
			c-1.84,9.104,3.338,24.239,12.613,27.955c9.474,3.796,21.905,1.01,29.728,8.624c5.05,4.915,5.528,13.097,2.68,19.48
			c-2.848,6.383-8.413,11.228-14.296,15.16c-11.049,7.384-23.658,12.241-35.056,19.099c-11.399,6.858-22.02,16.463-25.454,29.101
			c-3.413,12.562,1.076,26.394,9.755,36.247c8.678,9.853,21.073,16.055,33.923,19.434c13.078,3.439,26.723,4.168,40.253,4.752
			c45.797,1.979,91.658,2.517,137.491,1.611c24.16-0.477,60.312,2.939,79.786-13.796c8.965-7.704,13.334-21.859,6.261-31.255
			c-8.952-11.891-27.537-8.563-42.315-11.647c-18.025-3.762-32.552-19.944-34.013-37.889c-0.436-5.35,0.242-10.945,3.025-15.573
			c5.265-8.757,16.452-11.987,26.677-13.833c13.206-2.385,26.69-3.734,39.427-7.894c12.737-4.16,24.989-11.606,31.44-23.11
			C448.762,254.921,447.825,238.928,437.708,230.301z"/>
	</g>
	<g>
		<g>
			<polygon style="fill:#8CC9DE;" points="370.902,291.039 358.267,346.719 345.365,344.369 358,288.69 			"/>
			<polygon style="fill:#4764A8;" points="392.017,286.008 377.488,350.19 364.586,347.84 379.115,283.659 			"/>
			<polygon style="fill:#EDBF34;" points="350.592,296.72 340.004,343.377 327.103,341.027 337.69,294.371 			"/>
			<polygon style="fill:#D16E4F;" points="329.736,304.927 321.742,340.035 308.841,337.686 316.834,302.577 			"/>
			<polygon style="fill:#D16E4F;" points="307.228,318.526 303.107,336.629 290.205,334.279 294.327,316.177 			"/>
		</g>
		<line style="fill:none;stroke:#1B2258;stroke-miterlimit:10;" x1="283.362" y1="333.449" x2="383.664" y2="351.314"/>
	</g>
	<g>
		<defs>
			<path id="SVGID_1_" d="M350.177,264.9c-3.055,15.983-18.544,26.5-34.526,23.445c-15.983-3.055-26.5-18.544-23.445-34.526
				c3.055-15.983,18.544-26.5,34.526-23.445C342.714,233.429,353.232,248.917,350.177,264.9z M305.383,256.338
				c-1.666,8.717,4.07,17.164,12.787,18.83c8.717,1.666,17.164-4.07,18.83-12.787c1.666-8.717-4.07-17.164-12.787-18.83
				C315.496,241.885,307.049,247.621,305.383,256.338z"/>
		</defs>
		<clipPath id="SVGID_00000183245710356762487920000005761011537585799302_">
			<use xlink:href="#SVGID_1_"  style="overflow:visible;"/>
		</clipPath>
		<g style="clip-path:url(#SVGID_00000183245710356762487920000005761011537585799302_);">
			<g>
				<path style="fill:#D16E4F;" d="M350.177,264.9c-3.055,15.983-18.544,26.5-34.526,23.445
					c-15.983-3.055-26.5-18.544-23.445-34.526c3.055-15.983,18.544-26.5,34.526-23.445
					C342.714,233.429,353.232,248.917,350.177,264.9z M305.383,256.338c-1.666,8.717,4.07,17.164,12.787,18.83
					c8.717,1.666,17.164-4.07,18.83-12.787c1.666-8.717-4.07-17.164-12.787-18.83C315.496,241.885,307.049,247.621,305.383,256.338z
					"/>
			</g>
			<g>
				<defs>
					<path id="SVGID_00000178185819604370716160000015032548559523653504_" d="M350.177,264.9
						c-3.055,15.983-18.544,26.5-34.526,23.445c-15.983-3.055-26.5-18.544-23.445-34.526c3.055-15.983,18.544-26.5,34.526-23.445
						C342.714,233.429,353.232,248.917,350.177,264.9z M305.681,256.395c-1.635,8.552,3.993,16.84,12.546,18.475
						c8.552,1.635,16.84-3.993,18.475-12.546c1.635-8.552-3.993-16.84-12.545-18.475
						C315.603,242.214,307.315,247.842,305.681,256.395z"/>
				</defs>
				<clipPath id="SVGID_00000163755163317348762560000017922033548163513239_">
					<use xlink:href="#SVGID_00000178185819604370716160000015032548559523653504_"  style="overflow:visible;"/>
				</clipPath>
				<polygon style="clip-path:url(#SVGID_00000163755163317348762560000017922033548163513239_);fill:#8CC9DE;" points="
					280.56,251.233 321.438,259.723 298.659,224.133 				"/>
				<polygon style="clip-path:url(#SVGID_00000163755163317348762560000017922033548163513239_);fill:#EDBF34;" points="
					291.231,233.347 324.643,258.381 320.763,219.584 				"/>
				<polygon style="clip-path:url(#SVGID_00000163755163317348762560000017922033548163513239_);fill:#4764A8;" points="
					319.4,220.749 321.061,259.601 352.783,234.721 				"/>
				<polygon style="clip-path:url(#SVGID_00000163755163317348762560000017922033548163513239_);" points="335.51,295.304 
					322.048,259.839 301.597,290.719 				"/>
			</g>
		</g>
	</g>
	<g>
		<polygon style="fill:#EDBF34;" points="346.294,164.275 332.433,154.944 331.835,171.642 324.496,156.631 315.629,170.793 
			316.779,154.124 302.019,161.955 311.35,148.094 294.652,147.496 309.663,140.157 295.501,131.29 312.17,132.44 304.339,117.68 
			318.2,127.011 318.798,110.313 326.137,125.324 335.004,111.162 333.853,127.831 348.614,120 339.283,133.861 355.981,134.459 
			340.97,141.798 355.132,150.665 338.462,149.515 		"/>
		<g>
			<g>
				<path style="fill:#050504;" d="M325.988,148.376v2.34h-2.24v-2.34H325.988z M325.938,133.352l-0.352,12.432h-1.409
					l-0.353-12.432H325.938z"/>
			</g>
		</g>
	</g>
	<g>
		<g>
			<path style="fill:#FFFFFF;stroke:#222221;stroke-miterlimit:10;" d="M328.052,214.059c-10.828-7.503-12.822-23.376-12.822-23.376
				s15.562-3.708,26.39,3.795c10.828,7.503,12.822,23.376,12.822,23.376S338.88,221.562,328.052,214.059z"/>
			<path d="M327.965,214.036c-4.723-3.273-5.511-10.315-1.76-15.729c3.752-5.414,10.622-7.15,15.346-3.877
				c4.723,3.273,5.512,10.315,1.76,15.73C339.559,215.573,332.688,217.309,327.965,214.036z"/>
		</g>
	</g>
	<g>
		<path style="fill:#EBA08D;" d="M246.116,356.531c-1.412,0.558-2.644,1.427-3.568,2.726c-2.2,3.094-1.582,7.319-0.664,11.003
			c3.108,12.483,8.563,24.358,10.736,37.038c0.524,3.055,0.928,6.321,2.892,8.719c3.745,4.575,14.441,0.63,19.218-0.323
			c0.464-0.093,0.99-0.233,1.2-0.657c0.115-0.233,0.107-0.504,0.096-0.763c-0.658-16.03-0.204-33.348-5.827-48.507
			c-0.686-1.85-1.397-3.743-2.682-5.242c-2.546-2.968-6.741-3.774-10.605-4.377C253.373,355.596,249.289,355.277,246.116,356.531z"
			/>
		<path style="fill:#D16E4F;" d="M229.592,431.056h23.899c5.193-0.177,10.386-0.269,15.576,0h5.564
			c0.779-0.18,1.489-0.512,2.041-1.104c1.384-1.486,1.16-18.54-0.272-18.379c-8.347,1.022-14.132,1.351-21.896,1.377
			c-0.433,0.001-0.881,0.159-1.194,0.458c-0.388,0.372-0.449,0.958-0.541,1.488c-0.703,4.034-4.421,6.914-8.278,8.288
			c-3.857,1.375-8.02,1.645-11.958,2.767C229.041,426.946,226.329,429.62,229.592,431.056z"/>
		<path style="fill:#EBA08D;" d="M141.762,150.853c0.679,3.188,1.359,6.376,2.038,9.563c0.073,0.341,0.145,0.694,0.073,1.035
			c-0.155,0.729-0.914,1.165-1.636,1.349c-2.291,0.585-4.822-0.534-6.225-2.437s-1.762-4.447-1.304-6.767
			C135.555,149.302,140.172,143.391,141.762,150.853z"/>
		<path d="M207.416,123.259c5.303-4.061,17.28-4.305,21.868,0.828c2.357,2.636,3.583,6.062,4.835,9.369
			c0.236,0.623,0.485,1.262,0.94,1.747c0.673,0.717,1.679,0.987,2.603,1.325c5.619,2.056,8.619,10.984,8.26,16.956
			c-16.39,3.555-32.516,1.115-49.089-1.46c-0.376-0.07,2.874-11.954,3.099-12.766C201.592,133.269,202.27,127.2,207.416,123.259z"/>
		<path style="fill:#EBA08D;" d="M180.697,358.124c-1.465,0.4-2.784,1.13-3.844,2.32c-2.525,2.835-2.372,7.102-1.863,10.864
			c1.726,12.748,5.85,25.148,6.624,37.989c0.187,3.094,0.232,6.384,1.921,8.983c3.223,4.957,14.286,2.205,19.138,1.779
			c0.472-0.041,1.01-0.123,1.264-0.522c0.139-0.219,0.161-0.489,0.179-0.748c1.098-16.006,3.441-33.171-0.492-48.853
			c-0.48-1.914-0.98-3.874-2.094-5.503c-2.206-3.228-6.289-4.488-10.063-5.509C188.012,357.987,183.988,357.224,180.697,358.124z"/>
		<path style="fill:#4764A8;" d="M204.453,396.149c4.299,0.342,7.633,0.565,7.621,0.432c-1.69-18.068-2.376-36.231-2.056-54.375
			c0.222-12.596-1.365-25.302-0.461-37.937c1.01-14.11,0.785-28.787,2.786-42.777c1.695-11.85,2.758-23.107,2.451-35.308
			c-0.181-7.183-1.066-15.184-6.529-19.85c-6.395-5.461-13.609-5.923-18.999,0.955c-5.654,7.216-6.533,15.752-8.259,24.329
			c-4.889,24.29-8.395,48.828-11.901,73.347c-2.528,17.679-5.062,35.527-3.71,53.334c0.465,6.12,1.391,12.194,2.526,18.223
			c1.121,5.953,2.067,11.63,3.734,17.413c5.842,0.194,11.694,0.25,17.485,0.894C194.145,395.385,199.419,396.149,204.453,396.149z"
			/>
		<path style="fill:#4764A8;" d="M278.125,388.551c0.642-0.114,1.259-0.317,1.707-0.775c0.78-0.799,0.758-2.06,0.676-3.173
			c-2.783-37.927-18.851-74.551-30.152-110.746c-4.868-15.591-7.764-36.996-17.148-50.543c-7.447-10.749-17.957-4.177-21.678,6.031
			c-6.046,16.586-4.677,34.972-2.193,52.105c5.463,37.672,18.139,73.687,23.168,111.718c0.066,0.496,0.153,1.036,0.523,1.37
			c-0.016-0.015,10.981-2.435,12.332-2.571c10.641-1.066,21.275-2.204,31.912-3.306
			C277.553,388.634,277.841,388.602,278.125,388.551z"/>
		<path style="fill:#EBA08D;" d="M203.869,172.523c-0.544-5.48-1.566-12.818-8.607-12.693c-3.081,0.055-5.939,1.576-8.502,3.288
			c-4.968,3.318-9.483,7.351-13.2,12.036c-3.645,4.592-5.226,9.953-8.154,14.733c-3.711-4.612-6.51-10.205-9.648-15.227
			c-2.758-4.026-5.555-8.026-8.391-11.997c-1.01-1.415-2.051-2.852-3.462-3.867c-3.048-2.193-10.276-2.822-13.682-1.178
			c-0.919,0.444-1.553,1.312-2.079,2.187c-1.425,2.374-2.329,5.06-2.644,7.81c-0.209,1.824-1.531,4.708,0.509,5.801
			c0.637,0.341,1.367,0.46,2.084,0.554c2.143,0.282,6.992,0.644,8.643,2.116c2.447,2.181,3.443,8.959,4.524,12.022
			c3.055,8.66,6.11,17.32,9.166,25.98c2.353,6.669,7.104,13.621,15.157,13.286c3.985-0.165,6.904-2.486,9.669-5.127
			c8.083-7.722,15.199-16.457,21.128-25.935c3.469-5.546,6.588-11.507,7.449-17.993C204.076,176.443,204.064,174.49,203.869,172.523
			z"/>
		<g>
			<path style="fill:#522E97;" d="M207.583,153.896c0.015,0.134,0,0.271-0.033,0.402c-0.076-0.037-0.154-0.069-0.233-0.1
				L207.583,153.896z"/>
			<path style="fill:#D16E4F;" d="M207.377,154.033c-6.306,0.428-12.528,2.053-18.081,4.947
				c-9.499,4.951-17.021,13.155-22.41,22.305c-0.76,1.29,19.453,17.635,21.428,19.292c-0.311-0.261,9.252-19.894,10.066-21.849
				c0.705-1.694,1.537-3.332,2.42-4.939c0.766-1.395,1.484-3.07,2.555-4.257c1.903-2.108,3.652-4.299,6.245-5.618
				c2.479-1.26,5.267-1.736,7.955-2.45c3.596-0.956,7.146-2.373,10.867-2.37c1.075,0.001,2.293,0.072,3.064-0.678
				c-2.712-1.254-5.542-2.251-8.438-2.983C217.994,154.156,212.656,153.675,207.377,154.033z"/>
		</g>
		<path style="fill:#D16E4F;" d="M178.578,226.853c-0.277,2.871-0.55,5.723-0.845,8.54c10.69-0.259,22.995-1.089,35.108-0.762
			c9.054,0.244,19.355-0.569,28.173-2.64c-1.699-3.873-1.894-8.818-2.361-13.004c-0.535-4.792-1.041-9.587-1.519-14.385
			c-1.095-11.002-1.283-22.544-5.83-32.816c-2.132-4.817-4.24-14.458-9.444-16.047c-9.518-2.905-13.806-2.06-19.526,0.84
			c-10.871,5.511-13.504,19.834-17.004,30.577C181.243,199.7,179.868,213.483,178.578,226.853z"/>
		<path style="fill:#D16E4F;" d="M199.928,430.259c0.651,0.016,1.302,0.034,1.953,0.052c0.391,0.011,0.801,0.019,1.151-0.156
			c0.492-0.245,0.75-0.788,0.943-1.303c0.449-1.197,1.899-15.44,0.587-15.426c-8.409,0.103-14.195-0.201-21.916-1.024
			c-0.431-0.046-0.893,0.062-1.237,0.325c-0.426,0.327-0.551,0.903-0.701,1.419c-1.14,3.933-5.15,6.389-9.134,7.334
			c-3.984,0.945-8.152,0.758-12.189,1.444c-3.616,0.614-8.36,5.187-2.869,7.433c1.528,0.625,3.241,0.539,4.889,0.451
			C174.234,430.124,187.087,429.94,199.928,430.259z"/>
		<path style="fill:#EBA08D;" d="M205.993,148.144c0.151,0.103,0.309,0.205,0.409,0.358c0.862,1.318,0.196,3.961,0.016,5.367
			c-0.037,0.289-0.079,0.587-0.232,0.834c-0.292,0.473-0.894,0.631-1.437,0.749c-0.149,0.032-0.297,0.065-0.446,0.097
			c1.822,2.744,4.368,4.741,7.879,5.013c3.639,0.282,7.063-0.868,9.813-3.104c-1.103-1.016-1.814-2.423-2.165-3.891
			c-0.392-1.641-0.404-3.345-0.414-5.032c-0.023-3.855,0.427-8.065-0.417-11.817c-0.383-1.704-0.337-3.403-0.95-5.078
			c-0.583-1.593-1.515-3.045-2.809-4.152c-3.254-2.784-8.676-1.921-11.182,1.475c-0.794,1.077-1.269,2.356-1.62,3.648
			c-0.648,2.388-0.898,4.896-0.645,7.361C202.113,143.1,203.293,146.303,205.993,148.144z"/>
		<path d="M213.804,120.488c2.461,0.191,4.846,1.063,5.889,2.885c0.793,1.385,0.597,3.011,1.49,4.478
			c1.174,1.928,1.973,3.539,1.853,5.89c-0.085,1.651-0.976,5.736-3.163,5.886c-1.585,0.109-2.403-1.206-2.898-2.519
			c-0.337-0.893-0.647-1.726-0.772-2.665c-0.068-0.508-0.158-0.988-0.162-1.505c-0.002-0.283-0.11-1.19,0.061-1.41
			c-0.465,0.6-0.93,1.199-1.395,1.799c-0.07,0.091-0.144,0.184-0.245,0.238c-0.123,0.066-0.27,0.064-0.41,0.06
			c-3.568,0-6.951-0.776-10.486-0.905c-1.088-0.04-4.468-0.198-4.07-1.886c0.506-2.149,2.098-3.85,3.628-5.442
			c1.474-1.533,2.989-3.097,4.901-4.028C209.445,120.673,211.653,120.32,213.804,120.488z"/>
		<path style="fill:#EBA08D;" d="M218.2,141.312c1.231-0.612,1.936-2.468,2.035-3.732c0.038-0.485,0.017-0.987-0.172-1.435
			c-0.379-0.898-1.429-1.419-2.395-1.291c-1.886,0.25-2.354,2.099-2.573,3.665c-0.044,0.313-0.068,0.636,0.017,0.941
			C215.448,140.667,216.956,141.93,218.2,141.312z"/>
		<path style="fill:none;stroke:#000000;stroke-linecap:round;stroke-linejoin:round;stroke-miterlimit:10;" d="M210.874,289.228
			c-1.778-12.163-3.171-24.381-4.178-36.631"/>
		<path style="fill:none;stroke:#000000;stroke-linecap:round;stroke-linejoin:round;stroke-miterlimit:10;" d="M182.436,196.9
			c1.503-3.511,3.536-12.109,5.039-15.62"/>
		<path style="fill:#FFFFFF;" d="M203.251,142.601c0.794,1.277,2.121,2.089,3.481,2.13c1.36,0.042,2.723-0.688,3.573-1.915"/>
		<path style="fill:none;stroke:#222221;stroke-linecap:round;stroke-linejoin:round;stroke-miterlimit:10;" d="M219.021,136.728
			c-0.614-0.043-1.243,0.178-1.695,0.596c-0.452,0.418-0.721,1.028-0.725,1.643"/>
		<path d="M205.048,151.61c2.504-0.466,4.878-1.621,6.78-3.317c-1.739,0.686-3.733,0.701-5.481,0.04
			c-0.523-0.198-1.05-0.444-1.6-0.475C204.863,149.107,205.001,150.357,205.048,151.61z"/>
		<g>
			<path style="fill:none;stroke:#000000;stroke-linecap:round;stroke-linejoin:round;stroke-miterlimit:10;" d="M251.091,300.63
				c1.657,5.709,3.314,11.418,4.971,17.127"/>
			<path style="fill:none;stroke:#000000;stroke-linecap:round;stroke-linejoin:round;stroke-miterlimit:10;" d="M256.982,320.665
				c0.428,1.599,0.961,3.169,1.596,4.697"/>
		</g>
		<path style="fill:none;stroke:#000000;stroke-linecap:round;stroke-linejoin:round;stroke-miterlimit:10;" d="M268.241,403.336"/>
		<path style="fill:none;stroke:#000000;stroke-linecap:round;stroke-linejoin:round;stroke-miterlimit:10;" d="M266.155,393.564"/>
		<path style="fill:none;stroke:#000000;stroke-linecap:round;stroke-linejoin:round;stroke-miterlimit:10;" d="M205.036,378.926
			c-0.057,3.289-0.395,6.572-1.009,9.803"/>
		<path style="fill:none;stroke:#000000;stroke-linecap:round;stroke-linejoin:round;stroke-miterlimit:10;" d="M202.943,377.117
			c-0.071,1.421-0.273,2.836-0.603,4.22"/>
		<path style="fill:#EBA08D;" d="M161.134,213.315c0-0.203,0-0.406,0-0.609"/>
		<g>
			<path style="fill:#1A2732;" d="M145.575,149.917L145.575,149.917c2.206,1.016,4.818,0.052,5.834-2.153l1.131-2.454
				c1.016-2.205,0.052-4.817-2.153-5.834l0,0c-2.206-1.016-4.817-0.052-5.834,2.153l-1.131,2.454
				C142.406,146.289,143.37,148.901,145.575,149.917z"/>
			<path style="fill:#1A2732;" d="M131.014,171.712c-0.288,1.011-0.638,2.939-0.771,4.557c-0.067,0.812-0.733,1.536-1.371,1.462
				c-2.238-0.262-4.515-2.237-4.317-3.79c-0.137-8.666,4.032-17.759,7.826-24.034c1.079-1.785,3.287-2.339,4.674-3.694
				c1.407-1.375,2.407-3.212,4.324-3.269c0.919-0.027,1.726,0.392,2.298,1.115c0.503,0.637,1.329,1.41,1.27,2.568
				c-0.043,0.84-0.459,1.755-1.031,2.395C134.279,159.806,132.212,167.503,131.014,171.712z"/>
			<path style="fill:#8CC9DE;" d="M122.872,128.751c1.899-4.685,1.546-4.697,2.056-9.669c-4.638-4.452-13.702-18.354-18.185-23.154
				l-23.577,51.161c5.735,0.249,23.209-3.659,28.896-3.112C113.737,142.237,120.114,135.556,122.872,128.751z"/>
			<path style="fill:#8CC9DE;" d="M117.391,115.505c-0.609,0.152-5.842,17.106-14.388,26.493c13.04,1.458,20.244,6.775,33.04,9.745
				l5.938-22.077C132.107,122.578,117.834,115.394,117.391,115.505z"/>
			<path style="fill:#D16E4F;" d="M102.167,125.02c-6.511,14.127-15.094,24.057-19.171,22.178
				c-4.077-1.879-2.105-14.855,4.406-28.982c6.511-14.128,15.094-24.057,19.171-22.178
				C110.65,97.917,108.678,110.893,102.167,125.02z"/>
			<path style="fill:#4764A8;" d="M131.635,151.071l0.767,0.354c6.041,2.784,13.194,0.143,15.978-5.897l0,0
				c2.784-6.041,0.143-13.195-5.897-15.978l-0.767-0.354L131.635,151.071z"/>
			<g>
				<defs>
					<path id="SVGID_00000048502111780042737820000015005498225479293626_" d="M102.167,125.02
						c-6.511,14.127-15.094,24.057-19.171,22.178c-4.077-1.879-2.105-14.855,4.406-28.982c6.511-14.128,15.094-24.057,19.171-22.178
						C110.65,97.917,108.678,110.893,102.167,125.02z"/>
				</defs>
				<clipPath id="SVGID_00000117641886432267379890000018190409226769900722_">
					<use xlink:href="#SVGID_00000048502111780042737820000015005498225479293626_"  style="overflow:visible;"/>
				</clipPath>
				<path style="clip-path:url(#SVGID_00000117641886432267379890000018190409226769900722_);" d="M92.363,120.643
					c-1.993,4.325-0.27,9.369,3.849,11.267c4.119,1.898,9.073-0.069,11.066-4.394c1.993-4.325,0.27-9.369-3.849-11.267
					C99.311,114.351,94.356,116.318,92.363,120.643z"/>
			</g>
			<path style="fill:#222540;" d="M84.084,148.031c-0.478-0.001-0.924-0.097-1.339-0.289c-4.962-2.287-1.806-16.936,4.113-29.777
				c3.172-6.882,6.933-13.002,10.589-17.232c3.867-4.473,7.109-6.284,9.378-5.238c2.268,1.045,2.998,4.687,2.109,10.532
				c-0.84,5.528-3.05,12.363-6.222,19.245l0,0c-3.172,6.882-6.933,13.002-10.589,17.233
				C88.963,146.159,86.218,148.037,84.084,148.031z M105.504,96.412c-1.729-0.005-4.311,1.82-7.15,5.104
				c-3.586,4.148-7.282,10.167-10.407,16.95c-6.903,14.975-8.003,26.665-4.7,28.187c1.662,0.76,4.638-1.08,7.969-4.934
				c3.586-4.148,7.282-10.167,10.407-16.95l0,0c3.127-6.783,5.303-13.504,6.126-18.924c0.766-5.036,0.232-8.499-1.426-9.263
				C106.077,96.469,105.803,96.413,105.504,96.412z"/>
			<path style="fill:none;stroke:#222221;stroke-linecap:round;stroke-linejoin:round;stroke-miterlimit:10;" d="M111.488,143.882
				c5.222-4.095,8.222-10.326,11.046-16.33"/>
			<path style="fill:none;stroke:#222221;stroke-linecap:round;stroke-linejoin:round;stroke-miterlimit:10;" d="M125.387,119.616
				c-0.229,1.218-0.457,2.436-0.686,3.654"/>
		</g>
		<path style="fill:#EBA08D;" d="M125.503,156.623c-0.803,0.638-0.843,1.488-0.836,2.322c0.007,0.764,0.613,1.122,1.089,1.56
			c-0.526,0.333-1.132,0.148-1.535,0.786c-0.342,0.543-0.316,1.264-0.046,1.846c0.28,0.601,0.774,1.015,1.286,1.411
			c-0.97,0.348-2.017,0.149-2.436,1.439c-0.3,0.924,0.183,2.035,1.064,2.445c-1.428,0.994-1.36,2.881,0.009,3.861
			c0.59,0.422,1.29,0.658,1.98,0.881c2.25,0.728,4.676,1.391,6.947,0.73c0.603-0.176,0.906-0.852,0.825-1.451
			c-0.078-0.573-0.498-1.054-0.995-1.35c-0.497-0.296-1.069-0.435-1.631-0.571c0.617,0.149,1.786-0.592,2.275-0.906
			c0.722-0.464,1.36-1.06,1.849-1.766c0.824-1.188,0.969-2.393,1.042-3.788c0.026-0.489,0.129-0.771-0.146-1.215
			c-0.178-0.288-0.947-1.074-1.332-1.014c0.668-0.105,1.393-0.278,1.8-0.818c0.463-0.614,0.344-1.507-0.027-2.181
			c-0.842-1.529-2.802-2.165-4.406-2.474C130.142,155.959,127.405,155.111,125.503,156.623z"/>
		<path style="fill:none;stroke:#000000;stroke-linecap:round;stroke-linejoin:round;stroke-miterlimit:10;" d="M135.265,157.01
			c0.954,0.684,1.496,1.883,1.44,3.049c-0.055,1.132-1.377,1.901-2.492,1.479c0.619,0.234,1.25,0.475,1.767,0.889
			c0.517,0.414,0.911,1.036,0.883,1.698c-0.036,0.842-0.751,1.531-1.546,1.807c-0.796,0.276-1.663,0.225-2.503,0.172
			c0.693,0.359,1.451,0.792,1.679,1.539c0.548,1.797-1.804,2.693-3.139,2.895c0.35-0.053,1.248,0.859,1.375,1.162
			c0.965,2.322-2.381,2.693-3.764,2.416"/>
		<path style="fill:none;stroke:#000000;stroke-linecap:round;stroke-linejoin:round;stroke-miterlimit:10;" d="M132.813,166.134
			c-2.144-0.804-4.368-1.396-6.628-1.764"/>
		<path style="fill:none;stroke:#000000;stroke-linecap:round;stroke-linejoin:round;stroke-miterlimit:10;" d="M134.469,161.566
			c-2.107-0.745-4.337-1.143-6.572-1.174"/>
		<path style="fill:none;stroke:#000000;stroke-linecap:round;stroke-linejoin:round;stroke-miterlimit:10;" d="M131.607,170.663
			c-2.225-0.747-4.49-1.375-6.782-1.883"/>
		<path style="fill:none;stroke:#000000;stroke-linecap:round;stroke-linejoin:round;stroke-miterlimit:10;" d="M143.94,161.173
			c0.174,1.099,0.041,2.245-0.379,3.275"/>
		<path style="fill:none;stroke:#000000;stroke-linecap:round;stroke-linejoin:round;stroke-miterlimit:10;" d="M136.049,175.098
			c0.316,0.083,0.63-0.123,0.885-0.328c0.67-0.537,1.289-1.138,1.846-1.792"/>
		<g>
			<path style="fill:none;stroke:#000000;stroke-linecap:round;stroke-linejoin:round;stroke-miterlimit:10;" d="M228.51,237.442
				c0.584,2.198,2.094,4.133,4.084,5.234c1.99,1.101,4.432,1.352,6.604,0.679"/>
			<g>
				<path style="fill:#EBA08D;" d="M252.829,222.682c1.668-0.929,3.333-1.93,5.072-2.952c2.951-1.898,5.971-3.41,9.143-4.942
					c-7.004-4.51-13.323-10.081-18.676-16.464c-3.458-4.123-6.622-8.876-7-14.243c-0.379-5.368,2.981-11.31,8.303-12.102
					c3.857-0.574,8.409-0.118,11.649,2.053c12.908,8.648,23.581,21.027,33.153,33.265c2.237,2.859,4.455,6.041,4.598,9.668
					c0.331,8.384-8.837,12.22-15.302,14.843c-10.249,4.157-21.095,6.842-32.1,7.946c-1.25,0.125-2.515,0.233-3.709,0.623
					c-1.26,0.412-2.397,1.123-3.6,1.68c-1.937,0.896-4.025,1.379-6.106,1.803c-1.271,0.259-4.125,1.473-5.249,0.271
					c-0.419-0.448-0.041-1.165,0.34-1.647c-1.059,0.506-2.307,0.602-3.431,0.265c-0.581-0.175-1.164-0.497-1.429-1.043
					c-0.265-0.546-0.06-1.337,0.519-1.518c-0.644-0.053-1.14,0.337-1.796,0.225c-0.53-0.091-1.044-0.397-1.283-0.879
					c-0.328-0.66-0.066-1.491,0.434-2.034c0.499-0.542,1.19-0.86,1.862-1.165c1.882-0.853,4.962-1.586,6.268-3.237
					c-1.871,0.453-3.699,1.144-5.429,1.987c-1.021,0.497-2.905,1.896-3.884,0.507c-0.322-0.457-0.273-1.098-0.014-1.593
					c0.259-0.495,0.695-0.872,1.135-1.215c3.821-2.978,8.594-4.289,13.254-5.279C244.289,226.499,248.58,225.048,252.829,222.682z"
					/>
			</g>
			<path style="fill:#D16E4F;" d="M241.449,197.079c1.732,1.477,3.554,2.839,5.487,4.051c3.695-3.992,7.983-8.418,10.583-13.23
				c0.934-1.728,5.607-13.371,7.369-13.371c-9.545-6.662-25.683-15.924-39.371-18.191c-2.708-0.449-1.157,1.707-3.779,2.519
				c-1.96,0.607,0.277,1.631-1.044,3.201c-2.814,3.344-4.494,7.603-4.836,11.952c-0.397,5.053,1.938,8.396,3.864,12.897
				c1.833,4.289,4.409,8.32,6.065,12.652c2.388,6.245,2.011,15.089,7.127,19.7c1.826,1.646,3.762,3.17,5.79,4.559
				c-0.905-0.62,0.935-13.808,0.983-15.564c0.103-3.801,1.125-8.693,0.399-12.379C240.533,196.285,240.988,196.686,241.449,197.079z
				"/>
			<path style="fill:none;stroke:#000000;stroke-linecap:round;stroke-linejoin:round;stroke-miterlimit:10;" d="M232.933,242.594
				c2.565-0.399,5.075-1.15,7.438-2.227"/>
			<path style="fill:none;stroke:#000000;stroke-linecap:round;stroke-linejoin:round;stroke-miterlimit:10;" d="M228.627,240.307
				c3.355-0.881,6.633-2.055,9.784-3.506"/>
			<path style="fill:none;stroke:#000000;stroke-linecap:round;stroke-linejoin:round;stroke-miterlimit:10;" d="M266.548,215.217
				c3.538-0.304,7.088-0.468,10.64-0.493"/>
			<path style="fill:none;stroke:#000000;stroke-linecap:round;stroke-linejoin:round;stroke-miterlimit:10;" d="M296.829,216.833
				c-0.242,1.43-0.732,2.818-1.44,4.084"/>
			<path style="fill:none;stroke:#000000;stroke-linecap:round;stroke-linejoin:round;stroke-miterlimit:10;" d="M233.388,233.661
				c0.841-0.361,1.682-0.722,2.523-1.082"/>
		</g>
		<path style="fill:none;stroke:#000000;stroke-linecap:round;stroke-linejoin:round;stroke-miterlimit:10;" d="M234.424,212.076
			c0.522,4.208,0.937,8.428,1.244,12.657"/>
		<path style="fill:none;stroke:#000000;stroke-linecap:round;stroke-linejoin:round;stroke-miterlimit:10;" d="M203.686,155.619
			c0.804,1.143,1.637,2.314,2.81,3.072c0.85,0.549,1.836,0.85,2.819,1.09c3.694,0.899,7.777,0.962,11.108-0.871"/>
		<path style="fill:none;stroke:#000000;stroke-linecap:round;stroke-linejoin:round;stroke-miterlimit:10;" d="M221.75,158.034
			c0.335-0.281,0.669-0.563,1.004-0.844"/>
		<path style="fill:none;stroke:#000000;stroke-linecap:round;stroke-linejoin:round;stroke-miterlimit:10;" d="M240.411,196.385
			c-0.508-1.426-1.015-2.853-1.523-4.279"/>
		<path style="fill:none;stroke:#000000;stroke-linecap:round;stroke-linejoin:round;stroke-miterlimit:10;" d="M258.287,185.827
			c-1.093,1.847-2.187,3.693-3.28,5.54"/>
		<path style="fill:none;stroke:#000000;stroke-linecap:round;stroke-linejoin:round;stroke-miterlimit:10;" d="M165.698,189.778
			c1.204,2.527,1.825,5.33,1.802,8.129"/>
		<path style="fill:none;stroke:#000000;stroke-linecap:round;stroke-linejoin:round;stroke-miterlimit:10;" d="M161.019,223.609
			c1.134,0.715,2.445,1.147,3.782,1.246"/>
	</g>
	<path style="fill:none;stroke:#000000;stroke-linecap:round;stroke-linejoin:round;stroke-miterlimit:10;" d="M31.655,430.72
		c90.501,0.024,181.938,0.024,272.295,0"/>
	<g>
		<g>
			<g>
				
					<ellipse style="fill:none;stroke:#222221;stroke-width:2;stroke-linecap:round;stroke-linejoin:round;stroke-miterlimit:10;" cx="115.167" cy="262.029" rx="16.889" ry="18.588"/>
				<polygon style="fill:#222221;" points="160.843,333.724 148.663,333.724 87.762,333.724 93.852,259.373 148.663,259.373 				"/>
				<polygon style="fill:#8CC9DE;" points="148.663,333.724 75.582,333.724 81.672,259.373 144.458,259.373 				"/>
			</g>
			<g>
				<polygon style="fill:#FFFFFF;" points="104.224,282.815 100.074,282.815 108.188,272.484 112.338,272.484 				"/>
				<polygon style="fill:#D16E4F;" points="112.376,282.815 108.226,282.815 116.34,272.484 120.49,272.484 				"/>
				<polygon points="120.528,282.815 116.378,282.815 124.492,272.484 128.642,272.484 				"/>
			</g>
		</g>
		<g>
			<path style="fill:none;stroke:#000000;stroke-width:4;stroke-linecap:round;stroke-linejoin:round;stroke-miterlimit:10;" d="
				M42.264,332.97c2.752,0,153.175,0,153.175,0"/>
			<polyline style="fill:none;stroke:#000000;stroke-width:4;stroke-linejoin:round;stroke-miterlimit:10;" points="53.271,430.552 
				69.525,333.724 91.794,430.552 			"/>
			<polyline style="fill:none;stroke:#000000;stroke-width:4;stroke-linejoin:round;stroke-miterlimit:10;" points="
				144.228,430.552 161.247,333.724 184.127,430.552 			"/>
		</g>
	</g>
	<path style="fill:#D16E4F;" d="M71.359,210.843c-0.482-2.539,0.407-5.533,2.719-6.686c1.787-0.891,4.028-0.471,5.672,0.664
		c1.644,1.135,2.77,2.88,3.615,4.69c0.826-2.374,2.069-4.729,4.151-6.136s5.161-1.568,6.962,0.185
		c2.269,2.209,1.515,6.018,0.163,8.882c-1.947,4.126-6.874,12.497-12.277,12.142C77.602,224.272,72.158,215.051,71.359,210.843z"/>
	<path style="fill:#D16E4F;" d="M167.842,105.838c-0.454-2.39,0.383-5.208,2.56-6.293c1.683-0.839,3.792-0.443,5.339,0.625
		c1.547,1.068,2.607,2.711,3.403,4.415c0.777-2.234,1.948-4.451,3.908-5.776c1.96-1.325,4.858-1.476,6.554,0.174
		c2.136,2.08,1.426,5.665,0.153,8.361c-1.833,3.884-6.471,11.764-11.557,11.43C173.719,118.479,168.593,109.799,167.842,105.838z"/>
	<path style="fill:#D16E4F;" d="M364.608,178.344c-0.482-2.539,0.407-5.533,2.719-6.686c1.787-0.891,4.028-0.471,5.672,0.664
		s2.77,2.88,3.615,4.69c0.825-2.374,2.069-4.729,4.151-6.136c2.082-1.407,5.161-1.569,6.962,0.185
		c2.269,2.209,1.514,6.018,0.163,8.882c-1.947,4.126-6.874,12.497-12.277,12.142C370.851,191.773,365.407,182.552,364.608,178.344z"
		/>
	<path style="fill:#D16E4F;" d="M372.143,147.614c-0.393-2.073,0.332-4.517,2.22-5.458c1.459-0.728,3.289-0.384,4.63,0.542
		s2.261,2.351,2.951,3.829c0.674-1.938,1.689-3.86,3.389-5.009c1.7-1.149,4.213-1.281,5.683,0.151
		c1.853,1.803,1.236,4.913,0.133,7.251c-1.59,3.368-5.612,10.202-10.023,9.912C377.239,158.577,372.795,151.05,372.143,147.614z"/>
	<g>
		<g>
			
				<ellipse transform="matrix(0.9768 -0.214 0.214 0.9768 -44.5931 89.7822)" style="fill:#8CC9DE;" cx="392.354" cy="250.84" rx="24.804" ry="25.445"/>
			
				<ellipse transform="matrix(0.9768 -0.214 0.214 0.9768 -44.5828 89.7543)" style="fill:none;stroke:#000000;stroke-linecap:round;stroke-linejoin:round;stroke-miterlimit:10;" cx="392.354" cy="250.84" rx="18.828" ry="25.445"/>
			<path style="fill:none;stroke:#000000;stroke-linecap:round;stroke-linejoin:round;stroke-miterlimit:10;" d="M386.91,225.984
				c3.742-0.819,9.212,9.645,12.219,23.372c3.007,13.727,2.411,25.52-1.331,26.34c-3.742,0.82-9.212-9.645-12.219-23.372
				C382.572,238.596,383.168,226.804,386.91,225.984z"/>
		</g>
		<g>
			<defs>
				
					<ellipse id="SVGID_00000180350243578106351300000002820998301191498905_" transform="matrix(0.9768 -0.214 0.214 0.9768 -44.5931 89.7822)" cx="392.354" cy="250.84" rx="24.804" ry="25.445"/>
			</defs>
			<clipPath id="SVGID_00000034799146804994360580000008939251248096150185_">
				<use xlink:href="#SVGID_00000180350243578106351300000002820998301191498905_"  style="overflow:visible;"/>
			</clipPath>
			
				<ellipse transform="matrix(0.9768 -0.214 0.214 0.9768 -50.5406 91.7529)" style="clip-path:url(#SVGID_00000034799146804994360580000008939251248096150185_);fill:none;stroke:#000000;stroke-linecap:round;stroke-linejoin:round;stroke-miterlimit:10;" cx="398.601" cy="279.359" rx="24.804" ry="17.769"/>
			
				<path style="clip-path:url(#SVGID_00000034799146804994360580000008939251248096150185_);fill:none;stroke:#000000;stroke-linecap:round;stroke-linejoin:round;stroke-miterlimit:10;" d="
				M410.473,217.633c2.1,9.586-7.046,19.734-20.428,22.665c-13.382,2.931-25.932-2.464-28.032-12.051
				c-2.1-9.586,7.046-19.734,20.428-22.665C395.823,202.652,408.373,208.047,410.473,217.633z"/>
			
				<line style="clip-path:url(#SVGID_00000034799146804994360580000008939251248096150185_);fill:none;stroke:#000000;stroke-linecap:round;stroke-linejoin:round;stroke-miterlimit:10;" x1="364.858" y1="258.354" x2="419.362" y2="246.416"/>
		</g>
	</g>
	<g>
		<g>
			
				<ellipse transform="matrix(0.9869 -0.1611 0.1611 0.9869 -50.5146 72.3673)" style="fill:none;stroke:#222221;stroke-width:2;stroke-linecap:round;stroke-linejoin:round;stroke-miterlimit:10;" cx="421.014" cy="347.695" rx="18.328" ry="18.328"/>
			<polygon style="fill:#222221;" points="462.907,430.737 452.434,430.737 400.068,426.928 405.304,345.077 452.434,345.077 			"/>
			<path style="fill:#98CCE3;" d="M452.434,430.737h-59.917c-1.584,0-2.84-1.335-2.744-2.917l0.666-82.744h56.759L452.434,430.737z"
				/>
			<g>
				<defs>
					<path id="SVGID_00000081644285370827528340000000979303280527260824_" d="M452.434,430.737h-59.917
						c-1.584,0-2.84-1.335-2.744-2.917l0.666-82.744h56.759L452.434,430.737z"/>
				</defs>
				<clipPath id="SVGID_00000170989212206472368890000017051015636975218858_">
					<use xlink:href="#SVGID_00000081644285370827528340000000979303280527260824_"  style="overflow:visible;"/>
				</clipPath>
			</g>
		</g>
		<g>
			<polygon style="fill:#FFFFFF;" points="408.384,377.058 404.234,377.058 412.348,366.728 416.499,366.728 			"/>
			<polygon style="fill:#D16E4F;" points="416.536,377.058 412.386,377.058 420.5,366.728 424.65,366.728 			"/>
			<polygon style="fill:#222221;" points="424.688,377.058 420.538,377.058 428.652,366.728 432.802,366.728 			"/>
		</g>
		<path style="fill:none;stroke:#222221;stroke-linecap:round;stroke-linejoin:round;stroke-miterlimit:10;" d="M379.38,430.624
			c30.278,0.003,59.374,0.003,88.965,0.113"/>
		<g>
			<g>
				<rect x="363.526" y="377.19" style="fill:#FFFFFF;" width="23.785" height="5.243"/>
				<g>
					<g>
						
							<ellipse style="fill:none;stroke:#222221;stroke-width:2;stroke-linecap:round;stroke-linejoin:round;stroke-miterlimit:10;" cx="349.987" cy="375.503" rx="19.526" ry="18.332"/>
					</g>
					<polygon style="fill:#222221;" points="405.594,430.268 308.306,430.268 308.306,372.892 403.081,372.892 					"/>
					<rect x="299.659" y="372.892" style="fill:#98CCE3;" width="97.287" height="57.375"/>
				</g>
			</g>
			<g>
				<polygon style="fill:#D16E4F;" points="346.334,402.427 342.124,402.427 350.356,391.948 354.566,391.948 				"/>
				<polygon style="fill:#FFFFFF;" points="338.021,402.427 333.81,402.427 342.042,391.948 346.252,391.948 				"/>
				<polygon style="fill:#222221;" points="354.604,402.427 350.394,402.427 358.626,391.948 362.836,391.948 				"/>
			</g>
			<path style="fill:none;stroke:#000000;stroke-linecap:round;stroke-linejoin:round;stroke-miterlimit:10;" d="M375.555,430.639
				c12.326,0.019,24.651,0.049,36.977,0.098"/>
			<path style="fill:none;stroke:#000000;stroke-linecap:round;stroke-linejoin:round;stroke-miterlimit:10;" d="M314.904,430.605
				c14.933,0.002,29.865,0.002,44.798,0.015"/>
			<path style="fill:none;stroke:#222221;stroke-linecap:round;stroke-linejoin:round;stroke-miterlimit:10;" d="M290.714,430.737
				c5.783-0.039,11.567-0.073,17.35-0.101"/>
		</g>
	</g>
</g>
</svg>
