<?xml version="1.0" encoding="utf-8"?>
<!-- Generator: Adobe Illustrator 27.5.0, SVG Export Plug-In . SVG Version: 6.00 Build 0)  -->
<svg version="1.1" xmlns="http://www.w3.org/2000/svg" xmlns:xlink="http://www.w3.org/1999/xlink" x="0px" y="0px"
	 viewBox="0 0 500 500" style="enable-background:new 0 0 500 500;" xml:space="preserve">
<g id="BACKGROUND">
	<rect style="fill:#FFFFFF;" width="500" height="500"/>
</g>
<g id="OBJECTS">
	<path style="fill:#F5DEDA;" d="M85.781,365.208c-18.732-18.573-42.405-45.893-45.992-73.218
		c-3.68-28.036,0.328-54.345,11.157-80.453c16.114-38.85,18.845-84.577,46.425-116.331c17.542-20.197,43.691-32.037,70.339-34.398
		c20.734-1.837,42.574,2.087,59.401,14.339c14.557,10.599,24.408,26.681,30.397,43.662c10.282,29.15,9.837,61.952-1.232,90.812
		c-13.034,33.984-39.542,61.176-54.776,94.233c-5.682,12.329-9.796,26.003-7.555,39.392c1.934,11.559,8.523,22.841,6.006,34.288
		c-1.775,8.073-7.961,14.616-15.122,18.746c-8.39,4.839-22.342,10.922-32.099,9.105C126.787,400.555,104.081,383.352,85.781,365.208
		z"/>
	<path style="fill:#F5DEDA;" d="M300.961,233.03c-29.678-17.934-17.963-64.975-7.278-90.281
		c10.297-24.385,25.14-47.746,47.064-62.577c18.376-12.431,41.187-18.153,63.255-15.867c13.649,1.414,27.268,5.981,37.719,14.873
		c11.666,9.926,18.545,24.463,22.473,39.269c5.068,19.101,5.65,39.83-1.317,58.323c-12.368,32.834-44.403,42.564-75.686,49.931
		c-20.242,4.767-40.825,8.087-61.54,9.927c-5.983,0.531-12.116,0.927-17.906-0.669C305.318,235.292,303.054,234.295,300.961,233.03z
		"/>
	<path style="fill:#F5DEDA;" d="M319.386,269.685c-4.211,2.122-8.456,4.098-12.798,5.699c-11.64,4.293-24.13,6.13-35.487,11.124
		c-23.238,10.22-39.912,34.889-38.817,60.252c0.571,13.225,5.562,25.859,11.428,37.726c9.727,19.677,23.035,38.937,42.89,48.296
		c21.153,9.971,45.863,7.048,68.998,3.627c17.65-2.61,35.499-5.451,51.864-12.56c30.453-13.228,45.489-58.222,48.724-89.036
		c3.196-30.44-15.414-52.815-39.151-70.507c-13.788-10.277-37.585-14.28-54.405-12.242
		C347.029,253.954,333.394,262.627,319.386,269.685z"/>
	<g>
		<g>
			<g>
				<path d="M326.196,296.36c-2.173,6.748-6.313,12.728-8.505,19.47c-1.176,3.615-1.49,8.232,1.497,10.583
					c1.249,0.983,2.869,1.365,4.451,1.506c8.535,0.761,17.127-5.605,18.884-13.992c3.639,1.24,5.727,4.92,8.062,7.975
					c2.195,2.871,4.915,5.422,8.206,6.914c3.291,1.492,7.201,1.834,10.523,0.414c3.323-1.42,5.882-4.762,5.883-8.376
					c0.001-1.756-0.564-3.456-1.111-5.124c-2.772-8.466-5.215-17.041-7.322-25.697c-1.869-7.678-3.792-15.976-9.75-21.168
					c-4.387-3.822-10.67-5.349-16.321-3.967c-4.906,1.2-11.154,5.298-12.126,10.647C327.304,282.502,328.432,289.417,326.196,296.36
					z"/>
				<path style="fill:#EBA08D;" d="M263.189,388.632c2.326-0.26,4.588-0.73,6.646-1.329c13.355-3.891,25.916-14.778,34.689-25.238
					c4.087-4.874,7.828-10.493,8.275-16.838c0.448-6.345-3.524-13.37-9.815-14.306c-4.56-0.678-8.935,1.836-12.765,4.402
					c-15.259,10.223-28.882,22.881-40.198,37.349c-3.826,4.892-7.953,10.923-0.662,14.274
					C253.447,388.824,258.451,389.163,263.189,388.632z"/>
				<path style="fill:#D16E4F;" d="M313.759,363.75c-2.979,2.538-6.075,4.938-9.276,7.19c-3.278-2.684-6.651-4.956-9.851-7.722
					c-2.604-2.25-5.404-4.208-8.142-6.283c-4.56-3.456-9.094-7.34-12.695-11.873c5.399-3.049,19.212-12.844,20.857-13.835
					c5.232-3.148,10.754-5.709,16.466-7.678c13.872-4.78,28.861-6.059,43.524-3.723c1.516,0.241,3.337,0.809,3.636,2.315
					c0.253,1.27-0.769,2.408-1.729,3.277c-3.245,2.936-6.758,5.582-9.817,8.712c-4.109,4.204-6.081,9.151-8.344,14.438
					c-2.186,5.107-4.742,10.081-7.38,14.968c-1.921,3.559-3.141,8.445-6.15,11.192c-2.23,2.036-6.121,2.581-8.127,0.324
					c-1.722-1.937-1.363-4.892-0.899-7.442c0.411-2.26,0.822-4.519,1.232-6.779C315.98,361.824,314.878,362.797,313.759,363.75z"/>
				<path style="fill:none;stroke:#000000;stroke-linecap:round;stroke-linejoin:round;stroke-miterlimit:10;" d="M366.232,407.48
					c0.69,2.598,2.476,4.886,4.828,6.188c2.352,1.301,5.24,1.598,7.807,0.802"/>
				<path style="fill:#D16E4F;" d="M317.816,398.858h58.843c0.323-0.253,0.632-0.523,0.915-0.823
					c1.444-1.526,2.182-3.579,2.746-5.603c0.391-1.403,0.717-2.824,0.977-4.257c0.784-4.319,0.63-8.562,0.76-12.912
					c0.132-4.377,0.226-8.757,0.141-13.136c-0.167-8.607-1.009-17.312-3.753-25.516c-0.691-2.066-1.56-3.957-2.582-5.677
					c-4.169-7.018-8.549-11.227-16.591-12.537h-17.377c-3.341,0.51-6.659,1.035-10.086,1.175c-1.596,0.065-3.384,0.168-4.458,1.351
					c-0.505,0.557-0.775,1.282-1.033,1.988c-2.205,6.033-4.413,12.073-6.124,18.265c-3.543,12.827-4.909,26.14-6.261,39.379
					c-0.255,2.496-0.396,5.035-0.768,7.516c-0.572,3.821,0.321,6.814,3.152,9.519C316.792,398.041,317.294,398.463,317.816,398.858z
					"/>
				
					<line style="fill:none;stroke:#000000;stroke-width:3;stroke-linecap:round;stroke-linejoin:round;stroke-miterlimit:10;" x1="232.936" y1="399.715" x2="444.955" y2="399.715"/>
				<g>
					<defs>
						<path id="SVGID_1_" d="M375.863,330.935c-4.352-7.326-8.923-11.6-17.661-12.701c-4.025-0.507-8.313-0.928-12.319-0.411
							c-4.72,0.609-9.29,1.554-14.074,1.749c-1.596,0.065-3.384,0.168-4.458,1.351c-0.505,0.557-0.775,1.282-1.033,1.988
							c-2.205,6.033-4.413,12.073-6.124,18.264c-1.496,5.417-1.718,11.324-2.601,16.871c-1.208,7.59-2.674,9.102-3.66,22.508
							c-0.263,3.575-0.728,7.132-1.092,10.697c-0.091,0.89-0.179,1.807,0.079,2.663c0.207,0.686,0.624,1.288,1.07,1.849
							c7.258,9.131,21.666,9.136,32.275,9.442c7.357,0.212,14.902,0.055,21.785-2.551c6.768-2.562,13.502-7.878,13.656-15.57
							c0.332-16.565,2.036-34.639-3.261-50.474C377.754,334.545,376.885,332.655,375.863,330.935z"/>
					</defs>
					<clipPath id="SVGID_00000050647661175732845740000009909464103870764186_">
						<use xlink:href="#SVGID_1_"  style="overflow:visible;"/>
					</clipPath>
				</g>
				<path style="fill:none;stroke:#000000;stroke-linecap:round;stroke-linejoin:round;stroke-miterlimit:10;" d="M316.609,362.187
					c1.141-4.811,2.619-9.613,5.017-13.96"/>
				<path style="fill:none;stroke:#000000;stroke-linecap:round;stroke-linejoin:round;stroke-miterlimit:10;" d="M319.667,352.395
					c1.148-0.766,2.224-1.64,3.207-2.608"/>
				<g>
					<path style="fill:#EBA08D;" d="M394.982,390.033c1.972-1.098,3.94-2.282,5.996-3.489c3.488-2.244,7.059-4.032,10.809-5.842
						c-8.28-5.331-15.75-11.917-22.078-19.462c-4.087-4.874-7.828-10.493-8.275-16.838c-0.448-6.345,3.524-13.37,9.815-14.306
						c4.56-0.678,8.935,1.836,12.765,4.402c15.259,10.223,28.882,22.881,40.198,37.349c2.644,3.38,5.266,7.141,5.436,11.429
						c0.392,9.911-10.447,14.446-18.09,17.546c-12.116,4.915-24.937,8.088-37.947,9.394c-1.478,0.148-2.973,0.275-4.385,0.737
						c-1.489,0.487-2.834,1.328-4.256,1.986c-2.289,1.059-4.758,1.63-7.218,2.131c-1.502,0.306-4.876,1.741-6.206,0.32
						c-0.496-0.53-0.048-1.378,0.402-1.947c-1.252,0.598-2.727,0.712-4.056,0.313c-0.687-0.206-1.376-0.587-1.689-1.233
						c-0.313-0.646-0.071-1.58,0.614-1.795c-0.761-0.063-1.347,0.399-2.124,0.266c-0.627-0.107-1.234-0.469-1.517-1.039
						c-0.388-0.781-0.078-1.763,0.512-2.404c0.59-0.641,1.407-1.017,2.201-1.377c2.225-1.008,5.866-1.874,7.41-3.827
						c-2.212,0.536-4.372,1.353-6.418,2.349c-1.207,0.587-3.434,2.242-4.592,0.599c-0.38-0.54-0.323-1.298-0.016-1.883
						c0.306-0.585,0.821-1.03,1.342-1.436c4.516-3.521,10.159-5.07,15.668-6.24C384.885,394.545,389.958,392.829,394.982,390.033z"
						/>
				</g>
				<path style="fill:#D16E4F;" d="M381.306,361.947c3.658,2.191,7.394,4.865,11.211,6.699c0.478-0.265,0.944-0.551,1.419-0.822
					c1.792-1.907,3.684-3.721,5.664-5.432c2.604-2.25,5.404-4.207,8.142-6.283c4.56-3.456,9.094-7.34,12.695-11.873
					c-5.399-3.049-19.211-12.844-20.857-13.835c-5.232-3.148-10.754-5.709-16.466-7.678c-13.872-4.78-28.861-6.059-43.524-3.723
					c-1.516,0.242-3.337,0.81-3.636,2.315c-0.253,1.27,0.769,2.408,1.729,3.277c3.245,2.936,6.758,5.582,9.817,8.712
					c4.11,4.204,6.081,9.151,8.344,14.438c2.443,5.718,5.424,11.18,8.278,16.697c0.9,1.741,1.644,5.377,2.826,6.763
					c1.98,2.319,8.297,0.328,10.878-0.384c1.898-0.524,2.41,0.225,3.749-1.728C382.343,367.97,382.682,362.766,381.306,361.947z"/>
				<g>
					<path style="fill:#EBA08D;" d="M356.202,321.554c-0.82,0.506-1.696,0.911-2.534,1.208c-3.115,1.102-7.093,1.409-10.305,0.596
						c-1.523-0.385-2.972-1.025-4.304-1.854c-0.66-0.41-1.29-0.866-1.892-1.356c-0.436-0.355-1.014-0.93-1.249-1.452
						c0.854-0.315,1.608-0.382,2.354-0.973c0.614-0.486,1.088-1.142,1.385-1.864c0.502-1.221,0.731-14.489,0.521-14.489
						c0.002,0,15.957,0,15.957,0c-0.05,0,0.043,8.035,0.074,8.846c0.062,1.635-0.242,3.284-0.01,4.904
						c0.131,0.92,0.522,1.863,1.239,2.48c0.372,0.32,0.789,0.502,1.261,0.62c0.643,0.161,0.725,0.043,0.384,0.6
						C358.409,319.921,357.361,320.839,356.202,321.554z"/>
					<path style="fill:#EBA08D;" d="M363.058,298.375c-0.3,2.426-0.734,4.921-2.08,6.961c-2.171,3.291-6.281,4.743-10.195,5.221
						c-4.792,0.585-10.179-0.206-13.384-3.817c-1.722-1.94-2.613-4.469-3.299-6.971c-0.938-3.421-1.567-6.926-1.878-10.46
						c-0.268-3.04-0.282-6.201,0.885-9.02c1.531-3.7,4.973-6.373,8.742-7.725c3.769-1.352,7.859-1.522,11.859-1.349
						c1.905,0.082,3.837,0.245,5.619,0.923c1.802,0.686,4.196,2.325,4.328,4.461c0.063,1.026-0.19,2.137-0.163,3.193
						C363.649,285.995,363.827,292.163,363.058,298.375z"/>
					<path d="M364.435,275.104c-0.444-1.253-1.026-2.463-1.793-3.612c-3.306-4.957-7.535-8.22-13.49-9.636
						c-4.192-0.997-8.753-0.699-12.605,1.232c-5.169,2.59-8.551,8.217-8.794,13.948c-0.079,1.856-0.178,13.078,3.877,11.874
						c0.469-0.139,0.812-0.532,1.116-0.915c1.796-2.263,3.17-4.826,4.534-7.374c0.93-1.736,1.874-3.516,2.164-5.463
						c1.798,1.806,4.612,2.178,7.141,1.858c2.246-0.285,4.432-1.038,6.376-2.198c-1.302,0.579-2.533,1.319-3.656,2.198
						c-0.405,0.316-0.823,0.699-0.889,1.209c-0.073,0.56,0.329,1.099,0.834,1.352c0.505,0.253,1.092,0.277,1.657,0.266
						c3.026-0.06,6.442-0.993,8.809-2.96c1.939,3.492,3.141,7.391,3.504,11.368c0.283-0.213,2.836-1.047,2.872-0.327
						C365.879,283.6,365.865,279.131,364.435,275.104z"/>
					<g>
						<path style="fill:#EBA08D;" d="M327.852,290.224c-0.463,1.365-0.254,2.943,0.451,4.184c0.641,1.128,1.745,2.015,2.978,2.085
							c1.012,0.057,2.026-0.455,2.674-1.288c1.239-1.592,1.055-5.04-0.23-6.628C331.949,286.384,328.662,287.837,327.852,290.224z"
							/>
						<path style="fill:none;stroke:#000000;stroke-linecap:round;stroke-linejoin:round;stroke-miterlimit:10;" d="
							M333.264,292.413c-0.216-0.836-0.852-1.553-1.657-1.865c-0.805-0.313-1.758-0.214-2.482,0.258"/>
					</g>
					<g>
						<path style="fill:#EBA08D;" d="M369.121,290.224c0.463,1.365,0.254,2.943-0.451,4.184c-0.641,1.128-1.745,2.015-2.978,2.085
							c-1.012,0.057-2.026-0.455-2.674-1.288c-1.239-1.592-1.055-5.04,0.23-6.628C365.024,286.384,368.311,287.837,369.121,290.224z
							"/>
						<path style="fill:none;stroke:#000000;stroke-linecap:round;stroke-linejoin:round;stroke-miterlimit:10;" d="
							M363.708,292.413c0.216-0.836,0.852-1.553,1.658-1.865c0.805-0.313,1.758-0.214,2.482,0.258"/>
					</g>
					<path style="fill:#FFFFFF;" d="M343.354,300.115c1.184,3.535,6.116,4.174,8.526,1.528c0.688-0.755,1.135-1.698,1.503-2.651"/>
					<g>
						<defs>
							<path id="SVGID_00000060752085206383833410000014125441895852005772_" d="M356.202,321.554
								c-0.82,0.506-1.696,0.911-2.534,1.208c-3.115,1.102-7.093,1.409-10.305,0.596c-1.523-0.385-2.972-1.025-4.304-1.854
								c-0.66-0.41-1.29-0.866-1.892-1.356c-0.436-0.355-1.014-0.93-1.249-1.452c0.854-0.315,1.608-0.382,2.354-0.973
								c0.614-0.486,1.088-1.142,1.385-1.864c0.502-1.221,0.731-14.489,0.521-14.489c0.002,0,15.957,0,15.957,0
								c-0.05,0,0.043,8.035,0.074,8.846c0.062,1.635-0.242,3.284-0.01,4.904c0.131,0.92,0.522,1.863,1.239,2.48
								c0.372,0.32,0.789,0.502,1.261,0.62c0.643,0.161,0.725,0.043,0.384,0.6C358.409,319.921,357.361,320.839,356.202,321.554z"/>
						</defs>
						<clipPath id="SVGID_00000066502379776330920030000009959399189736437914_">
							<use xlink:href="#SVGID_00000060752085206383833410000014125441895852005772_"  style="overflow:visible;"/>
						</clipPath>
						<path style="clip-path:url(#SVGID_00000066502379776330920030000009959399189736437914_);" d="M337.433,312.833
							c0.055,0.357,0.145,0.736,0.414,0.978c0.287,0.259,0.715,0.296,1.096,0.233c0.972-0.162,1.79-0.408,2.789-0.316
							c0.913,0.084,1.815,0.581,2.733,0.215c0.429-0.171,0.764-0.512,1.148-0.767c1.713-1.138,4.071-0.448,5.995-1.175
							c0.407-0.154,0.828-0.42,0.918-0.845c0.274-1.3-4.113-0.158-4.822-0.171c-1.042-0.018-2.06-0.156-3.083-0.347
							c-0.874-0.163-1.609-0.164-2.457-0.516c-1.106-0.459-2.462-1.758-3.754-1.054C337.26,309.696,337.262,311.731,337.433,312.833
							z"/>
					</g>
					<path style="fill:none;stroke:#5F80BA;stroke-width:2;stroke-linecap:round;stroke-linejoin:round;stroke-miterlimit:10;" d="
						M363.918,287.15c-0.195,2.781-1.279,7.778-3.844,10.914c-1.536,1.878-3.686,3.11-5.865,4.176"/>
				</g>
				<path style="fill:none;stroke:#000000;stroke-linecap:round;stroke-linejoin:round;stroke-miterlimit:10;" d="M359.551,318.103
					c-0.454,1.474-1.53,2.706-2.819,3.554c-1.288,0.848-2.78,1.341-4.288,1.667c-4.82,1.042-10.052,0.384-14.29-2.136
					c-1.043-0.62-2.04-1.364-2.738-2.356"/>
				<path style="fill:none;stroke:#85365F;stroke-linecap:round;stroke-linejoin:round;stroke-miterlimit:10;" d="M350.541,275.979
					c1.249-0.649,2.498-1.298,3.747-1.948"/>
				<path style="fill:none;stroke:#85365F;stroke-linecap:round;stroke-linejoin:round;stroke-miterlimit:10;" d="M359.975,276.643
					c0.228-0.303,0.455-0.607,0.683-0.91"/>
				<path style="fill:none;stroke:#000000;stroke-linecap:round;stroke-linejoin:round;stroke-miterlimit:10;" d="M382.368,362.443
					c-1.12-2.226-1.997-4.574-2.611-6.989"/>
				<path style="fill:none;stroke:#000000;stroke-linecap:round;stroke-linejoin:round;stroke-miterlimit:10;" d="M371.461,413.571
					c3.033-0.471,6-1.36,8.792-2.632"/>
				<path style="fill:none;stroke:#000000;stroke-linecap:round;stroke-linejoin:round;stroke-miterlimit:10;" d="M366.371,410.867
					c3.966-1.041,7.841-2.43,11.566-4.144"/>
				<g>
					<path style="fill:#EBA08D;" d="M331.959,404.237c-0.306-0.585-0.821-1.03-1.342-1.436c-4.517-3.521-10.159-5.07-15.668-6.24
						c-5.602-1.189-10.674-2.905-15.698-5.701c-7.616-4.24-14.745-9.507-22.843-12.854c-6.58-2.72-12.699-8.813-19.696-7.495
						c-2.747,0.517-4.9,1.492-7.026,3.306c-11.735,10.017-0.413,22.731,12.99,27.831c12.22,4.65,24.937,8.088,37.947,9.393
						c1.478,0.148,2.973,0.276,4.385,0.737c1.49,0.487,2.834,1.328,4.256,1.986c2.289,1.059,4.758,1.63,7.218,2.131
						c1.502,0.306,4.876,1.741,6.206,0.32c0.496-0.53,0.048-1.378-0.402-1.947c1.252,0.598,2.727,0.712,4.056,0.313
						c0.687-0.207,1.376-0.587,1.689-1.233c0.313-0.646,0.071-1.58-0.614-1.795c0.761-0.063,1.347,0.398,2.124,0.266
						c0.627-0.107,1.234-0.469,1.517-1.039c0.388-0.781,0.078-1.763-0.513-2.404c-0.59-0.641-1.407-1.017-2.201-1.377
						c-2.225-1.008-5.866-1.875-7.41-3.827c2.212,0.536,4.372,1.353,6.418,2.349c1.207,0.587,3.434,2.242,4.592,0.599
						C332.323,405.58,332.265,404.822,331.959,404.237z"/>
				</g>
				<path style="fill:none;stroke:#000000;stroke-linecap:round;stroke-linejoin:round;stroke-miterlimit:10;" d="M283.987,381.071
					c-3.44-0.323-6.924-0.189-10.329,0.399"/>
				<path style="fill:none;stroke:#000000;stroke-linecap:round;stroke-linejoin:round;stroke-miterlimit:10;" d="M328.827,411.652
					c-4.557-1.083-8.951-2.854-12.986-5.233"/>
				<path style="fill:none;stroke:#000000;stroke-linecap:round;stroke-linejoin:round;stroke-miterlimit:10;" d="M322.821,414.612
					c-3.593-0.754-7.039-2.203-10.091-4.244"/>
				<path style="fill:none;stroke:#000000;stroke-linecap:round;stroke-linejoin:round;stroke-miterlimit:10;" d="M411.199,381.207
					c4.183-0.359,8.38-0.554,12.578-0.583"/>
				<path style="fill:none;stroke:#000000;stroke-linecap:round;stroke-linejoin:round;stroke-miterlimit:10;" d="M446.996,383.118
					c-0.286,1.691-0.865,3.332-1.702,4.828"/>
				<path style="fill:none;stroke:#000000;stroke-linecap:round;stroke-linejoin:round;stroke-miterlimit:10;" d="M247.566,381.701
					c-0.335,2.018,0.309,4.176,1.694,5.68"/>
				<path style="fill:none;stroke:#000000;stroke-linecap:round;stroke-linejoin:round;stroke-miterlimit:10;" d="M371.999,403.011
					c0.994-0.427,1.989-0.853,2.983-1.279"/>
				<path style="fill:none;stroke:#000000;stroke-linecap:round;stroke-linejoin:round;stroke-miterlimit:10;" d="M321.125,403.753
					c-0.877-0.448-1.755-0.897-2.632-1.345"/>
				<path style="fill:none;stroke:#85365F;stroke-linecap:round;stroke-linejoin:round;stroke-miterlimit:10;" d="M339.374,275.333
					c2.061-1.208,3.856-2.869,5.219-4.831"/>
				<circle cx="353.69" cy="302.812" r="3.303"/>
			</g>
			<g>
				<path d="M301.716,419.675l84.683-0.005c1.244,0,2.596-3.828,2.596-3.828c0-1.244-1.071-0.672-2.315-0.672h-84.963
					c-1.244,0-2.253,1.009-2.253,2.253l0,0C299.463,418.666,300.472,419.675,301.716,419.675z"/>
				<path d="M314.32,417.597h74.359l15.445-38.141c0.503-1.242-0.411-2.598-1.751-2.598H332.09c-0.77,0-1.462,0.467-1.751,1.18
					L314.32,417.597z"/>
				<path style="fill:none;stroke:#FFFFFF;stroke-width:0.5;stroke-miterlimit:10;" d="M366.044,396.274
					c-0.615,1.607-2.689,2.91-4.633,2.91c-1.944,0-3.021-1.303-2.406-2.91c0.615-1.607,2.689-2.91,4.633-2.91
					C365.582,393.364,366.659,394.667,366.044,396.274z"/>
			</g>
		</g>
		<g>
			<g>
				<rect x="331.413" y="92.435" style="fill:#EDBF34;" width="91.165" height="117.518"/>
				
					<rect x="341.109" y="118.335" style="fill:none;stroke:#000000;stroke-linecap:round;stroke-linejoin:round;stroke-miterlimit:10;" width="72.809" height="91.165"/>
			</g>
			<g>
				<g>
					<g>
						<polygon style="fill:#D16E4F;" points="452.971,102.355 301.223,102.355 326.387,64.464 427.859,64.464 						"/>
						<g>
							<path style="fill:#8CC9DE;" d="M313.869,102.355c0,5.543-2.831,10.036-6.323,10.036c-3.492,0-6.323-4.493-6.323-10.036"/>
							<path style="fill:#D16E4F;" d="M326.514,102.355c0,5.543-2.831,10.036-6.323,10.036c-3.492,0-6.323-4.493-6.323-10.036"/>
							<path style="fill:#8CC9DE;" d="M339.16,102.355c0,5.543-2.831,10.036-6.323,10.036c-3.492,0-6.323-4.493-6.323-10.036"/>
							<path style="fill:#D16E4F;" d="M351.806,102.355c0,5.543-2.831,10.036-6.323,10.036s-6.323-4.493-6.323-10.036"/>
							<path style="fill:#8CC9DE;" d="M364.451,102.355c0,5.543-2.831,10.036-6.323,10.036c-3.492,0-6.323-4.493-6.323-10.036"/>
							<path style="fill:#D16E4F;" d="M377.097,102.355c0,5.543-2.831,10.036-6.323,10.036c-3.492,0-6.323-4.493-6.323-10.036"/>
							<path style="fill:#8CC9DE;" d="M389.743,102.355c0,5.543-2.831,10.036-6.323,10.036c-3.492,0-6.323-4.493-6.323-10.036"/>
							<path style="fill:#D16E4F;" d="M402.389,102.355c0,5.543-2.831,10.036-6.323,10.036c-3.492,0-6.323-4.493-6.323-10.036"/>
							<path style="fill:#8CC9DE;" d="M415.034,102.355c0,5.543-2.831,10.036-6.323,10.036s-6.323-4.493-6.323-10.036"/>
							<path style="fill:#D16E4F;" d="M427.68,102.355c0,5.543-2.831,10.036-6.323,10.036c-3.492,0-6.323-4.493-6.323-10.036"/>
							<path style="fill:#8CC9DE;" d="M440.326,102.355c0,5.543-2.831,10.036-6.323,10.036c-3.492,0-6.323-4.493-6.323-10.036"/>
							<path style="fill:#D16E4F;" d="M452.971,102.355c0,5.543-2.831,10.036-6.323,10.036c-3.492,0-6.323-4.493-6.323-10.036"/>
						</g>
						<g>
							<polyline style="fill:#8CC9DE;" points="334.843,64.464 313.703,102.602 301.019,102.602 326.387,64.464 							"/>
							<polyline style="fill:#8CC9DE;" points="351.755,64.464 339.071,102.602 326.387,102.602 343.299,64.464 							"/>
							<polyline style="fill:#8CC9DE;" points="360.211,64.464 351.755,102.602 364.439,102.602 368.667,64.464 							"/>
							<polyline style="fill:#8CC9DE;" points="377.123,64.464 377.123,102.602 389.807,102.602 385.579,64.464 							"/>
							<polyline style="fill:#8CC9DE;" points="394.035,64.464 402.491,102.602 415.175,102.602 402.491,64.464 							"/>
							<polyline style="fill:#8CC9DE;" points="410.947,64.464 427.859,102.602 440.543,102.602 419.403,64.464 							"/>
						</g>
					</g>
					<g>
						<defs>
							<path id="SVGID_00000057836307449675432210000002225904623903154857_" d="M427.859,64.464h-8.456h-8.456h-8.456h-8.456
								h-8.456h-8.456h-8.456h-8.456h-8.456h-8.456h-8.456h-8.456l-25.368,38.137h0.212c0.083,5.428,2.876,9.79,6.315,9.79
								c3.492,0,6.323-4.493,6.323-10.036c0,5.543,2.831,10.036,6.323,10.036c3.44,0,6.232-4.362,6.315-9.79h0.016
								c0.083,5.428,2.875,9.79,6.315,9.79c3.492,0,6.323-4.493,6.323-10.036c0,5.543,2.831,10.036,6.323,10.036
								c3.439,0,6.232-4.362,6.315-9.79h0.016c0.083,5.428,2.875,9.79,6.315,9.79c3.452,0,6.252-4.392,6.317-9.846l0.009-0.085
								c0.036,5.494,2.85,9.931,6.319,9.931c3.492,0,6.323-4.493,6.323-10.036c0,5.543,2.831,10.036,6.323,10.036
								c3.44,0,6.232-4.362,6.315-9.79h0.016c0.083,5.428,2.875,9.79,6.315,9.79c3.492,0,6.323-4.493,6.323-10.036
								c0,5.543,2.831,10.036,6.323,10.036c3.44,0,6.232-4.362,6.315-9.79h0.016c0.083,5.428,2.875,9.79,6.315,9.79
								c3.492,0,6.323-4.493,6.323-10.036c0,5.543,2.831,10.036,6.323,10.036c3.439,0,6.232-4.362,6.315-9.79h0.016
								c0.083,5.428,2.875,9.79,6.315,9.79c3.492,0,6.323-4.493,6.323-10.036L427.859,64.464z M351.805,102.376
								c0-0.007,0.001-0.014,0.001-0.021c0,0.005,0,0.011,0,0.016L351.805,102.376z"/>
						</defs>
						<clipPath id="SVGID_00000106841014961359118010000012215934192967563426_">
							<use xlink:href="#SVGID_00000057836307449675432210000002225904623903154857_"  style="overflow:visible;"/>
						</clipPath>
					</g>
				</g>
				
					<line style="fill:none;stroke:#000000;stroke-linecap:round;stroke-linejoin:round;stroke-miterlimit:10;" x1="301.231" y1="102.602" x2="452.522" y2="102.602"/>
			</g>
			<g>
				<path style="fill:#D16E4F;" d="M395.138,157.385c0,10.32-18.143,36.281-18.143,36.281s-18.143-25.962-18.143-36.281
					c0-10.319,8.123-18.685,18.143-18.685C387.015,138.7,395.138,147.066,395.138,157.385z"/>
				<ellipse style="fill:#161111;" cx="376.995" cy="157.613" rx="9.071" ry="9.343"/>
			</g>
			
				<line style="fill:none;stroke:#000000;stroke-width:3;stroke-linecap:round;stroke-linejoin:round;stroke-miterlimit:10;" x1="322.312" y1="208.464" x2="434.269" y2="208.464"/>
		</g>
		<g>
			<g>
				<path d="M133.972,424.463h-59.02c-1.656,0-2.999-1.342-2.999-2.999V293.713c0-1.656,1.342-2.999,2.999-2.999h59.02
					c1.656,0,2.999,1.343,2.999,2.999v127.752C136.97,423.121,135.628,424.463,133.972,424.463z"/>
				<rect x="71.953" y="302.103" style="fill:#9ECEDE;" width="65.017" height="110.972"/>
				<path style="fill:#87C2D6;" d="M104.111,395.974L104.111,395.974c-10.513,0-19.036-8.523-19.036-19.036v0
					c0-10.513,8.523-19.036,19.036-19.036l0,0c10.513,0,19.036,8.523,19.036,19.036v0
					C123.147,387.452,114.625,395.974,104.111,395.974z"/>
				
					<line style="fill:none;stroke:#8CC9DE;stroke-linecap:round;stroke-miterlimit:10;" x1="93.78" y1="295.358" x2="115.143" y2="295.358"/>
				<path style="fill:none;stroke:#000000;stroke-linecap:round;stroke-miterlimit:10;" d="M71.816,357.181
					c0.02-18.359,0.06-36.718,0.138-55.078"/>
				<path style="fill:none;stroke:#000000;stroke-linecap:round;stroke-miterlimit:10;" d="M71.796,400.071
					c0-3.151,0.001-6.302,0.001-9.453"/>
				<path style="fill:none;stroke:#000000;stroke-linecap:round;stroke-miterlimit:10;" d="M136.797,381.876
					c-0.001,5.424-0.001,10.849-0.001,16.273"/>
				<path style="fill:none;stroke:#000000;stroke-linecap:round;stroke-miterlimit:10;" d="M136.97,302.103
					c-0.107,20.002-0.149,40.004-0.165,60.006"/>
			</g>
			<g>
				<path style="fill:#1A2732;" d="M85.419,341.044L85.419,341.044c-2.632,1.045-5.612-0.241-6.657-2.873l-1.163-2.928
					c-1.045-2.632,0.241-5.612,2.873-6.657l0,0c2.632-1.045,5.612,0.241,6.657,2.873l1.163,2.928
					C89.337,337.019,88.05,339.999,85.419,341.044z"/>
				<path style="fill:#1A2732;" d="M101.005,367.335c0.271,1.195,0.558,3.462,0.612,5.354c0.027,0.95,0.757,1.835,1.504,1.788
					c2.622-0.165,5.398-2.321,5.264-4.142c0.704-10.081-3.58-20.93-7.604-28.475c-1.145-2.146-3.68-2.93-5.21-4.595
					c-1.552-1.689-2.601-3.891-4.829-4.078c-1.069-0.09-2.035,0.348-2.745,1.154c-0.626,0.71-1.636,1.559-1.64,2.911
					c-0.003,0.981,0.424,2.072,1.05,2.853C97.951,353.267,99.874,362.358,101.005,367.335z"/>
				<path style="fill:#EDBF34;" d="M113.18,317.825c-1.917-5.574-1.505-5.565-1.786-11.386c5.68-4.893,17.105-20.509,22.627-25.818
					l24.24,61.047c-6.693-0.07-26.793-5.717-33.449-5.437C122.971,334.1,115.965,325.921,113.18,317.825z"/>
				<path style="fill:#EDBF34;" d="M120.394,302.746c0.7,0.215,5.728,20.284,15.09,31.749c-15.275,0.879-23.996,6.618-39.081,9.272
					l-5.528-26.078C102.816,310.058,119.885,302.589,120.394,302.746z"/>
				<path style="fill:#D16E4F;" d="M137.522,314.78c6.694,16.858,16.064,28.957,20.93,27.025c4.865-1.932,3.383-17.164-3.311-34.021
					c-6.694-16.858-16.064-28.958-20.93-27.025C129.346,282.691,130.828,297.923,137.522,314.78z"/>
				<path style="fill:#4764A8;" d="M101.577,343.263l-0.915,0.364c-7.208,2.862-15.371-0.661-18.234-7.869l0,0
					c-2.862-7.208,0.661-15.372,7.869-18.234l0.915-0.363L101.577,343.263z"/>
				<g>
					<defs>
						<path id="SVGID_00000042727638343076210570000010392388882531523733_" d="M137.522,314.78
							c6.694,16.858,16.064,28.957,20.93,27.025c4.865-1.932,3.383-17.164-3.311-34.021c-6.694-16.858-16.064-28.958-20.93-27.025
							C129.346,282.691,130.828,297.923,137.522,314.78z"/>
					</defs>
					<clipPath id="SVGID_00000072975233958996122940000007611258978940136846_">
						<use xlink:href="#SVGID_00000042727638343076210570000010392388882531523733_"  style="overflow:visible;"/>
					</clipPath>
					<path style="clip-path:url(#SVGID_00000072975233958996122940000007611258978940136846_);" d="M149.212,310.299
						c2.049,5.16-0.274,10.926-5.189,12.877c-4.915,1.952-10.56-0.65-12.609-5.81c-2.049-5.16,0.274-10.926,5.189-12.877
						C141.518,302.537,147.163,305.138,149.212,310.299z"/>
				</g>
				<path style="fill:#222540;" d="M148.12,335.767c-3.992-5.155-7.986-12.517-11.247-20.729l0,0
					c-3.261-8.213-5.405-16.309-6.036-22.798c-0.668-6.861,0.41-11.056,3.116-12.13c2.707-1.075,6.369,1.237,10.59,6.688
					c3.992,5.155,7.986,12.517,11.248,20.729c6.085,15.323,8.841,32.577,2.92,34.929c-0.495,0.197-1.021,0.28-1.577,0.252
					C154.647,342.581,151.57,340.221,148.12,335.767z M134.469,281.408c-1.979,0.786-2.817,4.785-2.242,10.696
					c0.618,6.362,2.73,14.324,5.945,22.418l0,0c3.213,8.094,7.138,15.334,11.053,20.389c3.637,4.697,6.986,7.026,8.969,6.245
					c3.941-1.565,3.394-15.245-3.703-33.114c-3.212-8.094-7.138-15.335-11.053-20.389c-3.099-4.002-5.992-6.29-8.005-6.392
					C135.084,281.244,134.762,281.293,134.469,281.408z"/>
				<path style="fill:none;stroke:#222221;stroke-linecap:round;stroke-linejoin:round;stroke-miterlimit:10;" d="M125.486,336.156
					c-5.823-5.095-8.925-12.538-11.836-19.707"/>
				<path style="fill:none;stroke:#222221;stroke-linecap:round;stroke-linejoin:round;stroke-miterlimit:10;" d="M110.826,307.031
					c0.19,1.433,0.38,2.865,0.569,4.298"/>
			</g>
		</g>
		<g>
			<g>
				<rect x="46.263" y="86.135" style="fill:#8CC9DE;" width="106.37" height="65.442"/>
				<path style="fill:#FFFFFF;" d="M93.737,112.85v12.101c0,0.742,0.819,1.192,1.445,0.793l9.067-5.776
					c0.566-0.36,0.583-1.18,0.033-1.564l-9.067-6.325C94.592,111.644,93.737,112.09,93.737,112.85z"/>
				
					<line style="fill:none;stroke:#222221;stroke-linecap:round;stroke-miterlimit:10;" x1="52.645" y1="141.194" x2="147.846" y2="141.194"/>
				<path style="fill:#222221;" d="M63.814,141.194c0,1.762-1.429,3.191-3.191,3.191c-1.762,0-3.191-1.429-3.191-3.191
					c0-1.762,1.429-3.191,3.191-3.191C62.385,138.003,63.814,139.431,63.814,141.194z"/>
			</g>
			<path style="fill:none;stroke:#000000;stroke-linecap:round;stroke-miterlimit:10;" d="M126.319,86.229
				c8.859,0,17.718,0,26.577,0c0,8.458,0.002,16.918-0.264,25.372"/>
			<path style="fill:none;stroke:#000000;stroke-linecap:round;stroke-miterlimit:10;" d="M46.263,100.183
				c0.634-4.954-1.366-8.954,0.634-13.954c7,0,13,0,20.421,0"/>
			<path style="fill:none;stroke:#000000;stroke-linecap:round;stroke-miterlimit:10;" d="M45.897,144.299
				c0.007-9.934,0.056-19.869,0.365-29.798"/>
			<path style="fill:none;stroke:#000000;stroke-linecap:round;stroke-miterlimit:10;" d="M74.98,151.229
				c-6.694,0-13.388,0-20.082,0"/>
			<path style="fill:none;stroke:#000000;stroke-linecap:round;stroke-miterlimit:10;" d="M152.632,128.694
				c0.263,7.509,0.264,15.022,0.264,22.535c-11.99,0-23.98,0-35.97,0"/>
		</g>
		<g>
			<g>
				<g>
					
						<ellipse transform="matrix(0.3827 -0.9239 0.9239 0.3827 -78.3771 274.3862)" style="fill:#4764A8;" cx="166.136" cy="195.843" rx="22.537" ry="22.537"/>
					<path style="fill:#FFFFFF;" d="M165.589,189.597c-0.051,1.434-0.017,2.885-0.017,4.438h5.599
						c-0.239,1.843-0.444,3.55-0.717,5.24c-0.017,0.171-0.444,0.376-0.683,0.393c-1.348,0.034-2.697,0.017-4.165,0.017v18.674
						c-2.065-0.034-4.046-0.358-5.94-0.922v-17.718h-4.899v-5.633h4.796c0.017-0.427,0.051-0.768,0.051-1.092
						c0.034-1.485-0.017-2.97,0.119-4.438c0.307-3.226,2.287-5.496,5.479-5.94c1.98-0.273,4.045-0.051,6.128-0.051v5.121
						c-0.734,0-1.485-0.017-2.219,0c-0.648,0.017-1.331-0.017-1.963,0.137C166.255,188.027,165.623,188.641,165.589,189.597z"/>
				</g>
			</g>
			<path style="fill:none;stroke:#000000;stroke-linecap:round;stroke-miterlimit:10;" d="M158.399,174.669
				c14.468-5.301,30.275,5.794,30.274,21.174"/>
			<path style="fill:none;stroke:#000000;stroke-linecap:round;stroke-miterlimit:10;" d="M145.273,203.847
				c-2.539-6.449-2.014-13.788,1.608-19.723"/>
			<path style="fill:none;stroke:#000000;stroke-linecap:round;stroke-miterlimit:10;" d="M166.136,218.38
				c-4.195-0.001-8.327-1.205-11.856-3.473"/>
		</g>
		<g>
			<g>
				<g>
					
						<ellipse transform="matrix(0.0967 -0.9953 0.9953 0.0967 -32.8748 432.314)" style="fill:#D16E4F;" cx="221.728" cy="234.268" rx="23.922" ry="23.922"/>
					<g>
						<g>
							<path style="fill:#FFFFFF;" d="M235.994,226.386c-0.017-3.883-2.441-6.393-6.29-6.43c-5.325-0.054-10.653-0.057-15.977,0
								c-3.766,0.04-6.207,2.534-6.264,6.293c-0.037,2.658-0.007,5.318-0.007,7.975c0,2.601-0.017,5.204,0.003,7.805
								c0.033,3.969,2.454,6.507,6.383,6.547c5.268,0.057,10.539,0.06,15.807,0c3.853-0.043,6.32-2.578,6.34-6.413
								C236.02,236.906,236.017,231.644,235.994,226.386z M233.447,242.21c-0.027,2.454-1.349,3.813-3.807,3.83
								c-5.268,0.033-10.536,0.033-15.804,0c-2.467-0.013-3.803-1.369-3.816-3.813c-0.023-5.314-0.023-10.629,0-15.943
								c0.01-2.434,1.372-3.833,3.803-3.85c5.268-0.036,10.536-0.036,15.804,0c2.437,0.017,3.793,1.408,3.82,3.836
								c0.03,2.658,0.006,5.315,0.006,7.972C233.453,236.896,233.477,239.553,233.447,242.21z"/>
							<path style="fill:#FFFFFF;" d="M221.745,226.779c-4.063-0.01-7.396,3.29-7.436,7.373c-0.04,4.129,3.157,7.459,7.243,7.539
								c4.185,0.08,7.562-3.18,7.602-7.346C229.197,230.176,225.884,226.79,221.745,226.779z M221.652,239.2
								c-2.654-0.054-4.862-2.275-4.888-4.908c-0.027-2.717,2.215-4.952,4.968-4.952c2.747,0,4.995,2.234,4.971,4.949
								C226.68,236.982,224.346,239.253,221.652,239.2z"/>
							<path style="fill:#FFFFFF;" d="M231.418,226.602c-0.079,1.046-0.749,1.592-1.778,1.542c-1.129-0.053-1.705-0.746-1.622-1.858
								c0.077-1.043,0.756-1.525,1.798-1.585C230.876,224.881,231.502,225.484,231.418,226.602z"/>
						</g>
					</g>
				</g>
			</g>
			<path style="fill:none;stroke:#000000;stroke-linecap:round;stroke-miterlimit:10;" d="M234.255,254.538
				c-3.732,2.381-8.1,3.653-12.526,3.652"/>
			<path style="fill:none;stroke:#000000;stroke-linecap:round;stroke-miterlimit:10;" d="M243.274,223.86
				c2.978,6.145,3.048,13.328,0.361,19.587"/>
			<path style="fill:none;stroke:#000000;stroke-linecap:round;stroke-miterlimit:10;" d="M222.447,210.389
				c2.763,0.059,5.515,0.609,8.085,1.628"/>
			<path style="fill:none;stroke:#000000;stroke-linecap:round;stroke-miterlimit:10;" d="M197.806,234.268
				c0.001-4.53,1.341-8.996,3.821-12.786"/>
		</g>
		<g>
			<g>
				
					<ellipse transform="matrix(0.9732 -0.2298 0.2298 0.9732 -54.1182 34.6596)" style="fill:#8CC9DE;" cx="121.779" cy="249.728" rx="24.002" ry="24.002"/>
				<path style="fill:#FFFFFF;" d="M134.242,246.962c-0.245,0.024-0.492,0.036-0.739,0.038c-2.705,0-5.229-1.363-6.711-3.627v12.35
					c0,5.041-4.087,9.128-9.128,9.128c-5.041,0-9.128-4.087-9.128-9.128c0-5.041,4.087-9.128,9.128-9.128l0,0
					c0.19,0,0.377,0.017,0.564,0.029v4.498c-0.187-0.023-0.372-0.057-0.564-0.057c-2.573,0-4.659,2.086-4.659,4.659
					c0,2.573,2.086,4.659,4.659,4.659c2.573,0,4.846-2.027,4.846-4.601l0.045-20.975h4.303c0.406,3.859,3.517,6.873,7.387,7.156
					v4.999"/>
			</g>
			<path style="fill:none;stroke:#000000;stroke-linecap:round;stroke-miterlimit:10;" d="M112.745,227.485
				c2.866-1.159,5.942-1.757,9.034-1.758"/>
			<path style="fill:none;stroke:#000000;stroke-linecap:round;stroke-miterlimit:10;" d="M102.951,264.577
				c-5.929-7.422-6.791-18.048-2.231-26.375"/>
			<path style="fill:none;stroke:#000000;stroke-linecap:round;stroke-miterlimit:10;" d="M135.786,269.134
				c-2.497,1.839-5.346,3.189-8.36,3.926"/>
			<path style="fill:none;stroke:#000000;stroke-linecap:round;stroke-miterlimit:10;" d="M145.78,249.728
				c-0.006,4.026-1.09,8.02-3.056,11.529"/>
		</g>
		<g>
			<g>
				<circle style="fill:#4764A8;" cx="189.519" cy="294.369" r="26.726"/>
				<g>
					<path style="fill:#FFFFFF;" d="M174.926,306.911c3.555,0.067,6.747-0.797,9.629-2.968c-3.983-1.209-5.57-2.425-6.15-4.69
						c0.893-0.044,1.782-0.088,2.672-0.132c-3.143-1.207-4.99-3.319-5.232-6.768c0.964,0.255,1.856,0.491,2.75,0.728
						c-2.885-3.628-3.468-6.442-1.746-9.069c3.727,4.255,8.365,6.672,14.125,7.064c-0.026-0.451-0.051-0.788-0.064-1.127
						c-0.114-2.974,1.134-5.222,3.784-6.533c2.642-1.306,5.212-0.956,7.504,0.906c0.51,0.414,0.936,0.527,1.514,0.31
						c1.073-0.403,2.151-0.791,3.334-1.224c-0.493,1.432-1.419,2.496-2.622,3.362c0.025,0.065,0.051,0.129,0.075,0.194
						c1.1-0.282,2.202-0.565,3.302-0.848c0.044,0.044,0.088,0.088,0.132,0.131c-0.853,0.859-1.671,1.759-2.574,2.561
						c-0.474,0.422-0.72,0.798-0.718,1.472c0.029,10.082-7.579,18.469-17.587,19.369c-4.04,0.363-7.89-0.366-11.469-2.341
						C175.361,307.186,175.146,307.045,174.926,306.911z"/>
				</g>
			</g>
			<path style="fill:none;stroke:#000000;stroke-linecap:round;stroke-miterlimit:10;" d="M176.428,271.063
				c3.983-2.242,8.521-3.421,13.091-3.42"/>
			<path style="fill:none;stroke:#000000;stroke-linecap:round;stroke-miterlimit:10;" d="M163.647,301.079
				c-1.468-5.718-1.014-11.906,1.338-17.326"/>
			<path style="fill:none;stroke:#000000;stroke-linecap:round;stroke-miterlimit:10;" d="M192.476,320.723
				c-5.742,0.72-11.592-0.493-16.574-3.44"/>
			<path style="fill:none;stroke:#000000;stroke-linecap:round;stroke-miterlimit:10;" d="M216.245,294.369
				c-0.005,6.224-2.252,12.266-6.311,16.982"/>
		</g>
		<g>
			<g>
				<g>
					<g>
						<rect x="192.492" y="119.571" style="fill:#EDBF34;" width="73.158" height="46.044"/>
						<path style="fill:none;stroke:#000000;stroke-linecap:round;stroke-miterlimit:10;" d="M265.65,119.571
							c0,0-33.911,20.844-36.579,23.022l-36.579-23.022"/>
					</g>
				</g>
				<path style="fill:none;stroke:#000000;stroke-linecap:round;stroke-miterlimit:10;" d="M265.65,129.5c0,4.828,0,9.655,0,14.483"
					/>
				<path style="fill:none;stroke:#000000;stroke-linecap:round;stroke-miterlimit:10;" d="M211.063,119.053
					c12.288-0.05,24.567,1.163,36.854,0.517"/>
				<path style="fill:none;stroke:#000000;stroke-linecap:round;stroke-miterlimit:10;" d="M192.241,165.34
					c0-3.278,0-7.648,0-11.118"/>
			</g>
			<path style="fill:none;stroke:#000000;stroke-linecap:round;stroke-miterlimit:10;" d="M265.65,165.615
				c-8.553,0.417-17.11,0.028-25.664-0.133"/>
		</g>
		<g>
			<g>
				<g>
					
						<ellipse transform="matrix(0.7071 -0.7071 0.7071 0.7071 -123.742 101.9811)" style="fill:#D16E4F;" cx="61.231" cy="200.36" rx="29.283" ry="29.283"/>
					
						<ellipse style="fill:none;stroke:#000000;stroke-linecap:round;stroke-miterlimit:10;" cx="61.231" cy="200.36" rx="22.228" ry="29.283"/>
					
						<ellipse style="fill:none;stroke:#000000;stroke-linecap:round;stroke-miterlimit:10;" cx="61.231" cy="200.36" rx="8.188" ry="29.283"/>
				</g>
				<g>
					<defs>
						
							<ellipse id="SVGID_00000077314109739790502750000015404544268642682781_" transform="matrix(0.7071 -0.7071 0.7071 0.7071 -123.742 101.9811)" cx="61.231" cy="200.36" rx="29.283" ry="29.283"/>
					</defs>
					<clipPath id="SVGID_00000069399893409922240420000010958520671934456754_">
						<use xlink:href="#SVGID_00000077314109739790502750000015404544268642682781_"  style="overflow:visible;"/>
					</clipPath>
					
						<ellipse style="clip-path:url(#SVGID_00000069399893409922240420000010958520671934456754_);fill:none;stroke:#000000;stroke-linecap:round;stroke-miterlimit:10;" cx="61.231" cy="233.959" rx="29.283" ry="20.449"/>
					
						<ellipse style="clip-path:url(#SVGID_00000069399893409922240420000010958520671934456754_);fill:none;stroke:#000000;stroke-linecap:round;stroke-miterlimit:10;" cx="61.231" cy="167.491" rx="29.283" ry="20.449"/>
					
						<line style="clip-path:url(#SVGID_00000069399893409922240420000010958520671934456754_);fill:none;stroke:#000000;stroke-linecap:round;stroke-miterlimit:10;" x1="27.623" y1="202.037" x2="93.495" y2="202.037"/>
				</g>
			</g>
			<path style="fill:none;stroke:#000000;stroke-linecap:round;stroke-miterlimit:10;" d="M41.587,222.077
				c-6.098-5.525-9.636-13.487-9.639-21.717"/>
			<path style="fill:none;stroke:#000000;stroke-linecap:round;stroke-miterlimit:10;" d="M53.588,228.621
				c-1.758-0.467-3.471-1.1-5.108-1.892"/>
			<path style="fill:none;stroke:#000000;stroke-linecap:round;stroke-miterlimit:10;" d="M80.305,222.53
				c-4.42,3.854-10.022,6.236-15.84,6.889"/>
			<path style="fill:none;stroke:#000000;stroke-linecap:round;stroke-miterlimit:10;" d="M78.369,176.823
				c10.457,7.86,14.92,22.147,9.979,34.39"/>
		</g>
		<g>
			
				<ellipse transform="matrix(0.7071 -0.7071 0.7071 0.7071 -59.7395 256.9291)" style="fill:#8CC9DE;" cx="280.271" cy="200.577" rx="22.156" ry="22.156"/>
			<g id="_x32_dqxSk.tif_1_">
				<g>
					<path style="fill:#FFFFFF;" d="M271.589,188.962c0.031,0.01,0.061,0.026,0.092,0.028c0.68,0.051,1.267,0.31,1.75,0.791
						c0.432,0.43,0.702,0.948,0.79,1.552c0.15,1.025-0.167,1.889-0.939,2.577c-0.376,0.335-0.824,0.535-1.32,0.628
						c-0.256,0.048-0.515,0.058-0.772,0.034c-1.183-0.108-2.117-0.935-2.417-1.983c-0.055-0.191-0.093-0.384-0.102-0.583
						c-0.002-0.038,0.006-0.084-0.046-0.101c0-0.081,0-0.161,0-0.242c0.049-0.019,0.042-0.063,0.046-0.102
						c0.008-0.08,0.012-0.16,0.025-0.24c0.089-0.547,0.312-1.032,0.688-1.441c0.503-0.545,1.129-0.838,1.868-0.891
						c0.032-0.002,0.063-0.018,0.094-0.028C271.428,188.962,271.509,188.962,271.589,188.962z"/>
					<path style="fill:#FFFFFF;" d="M281.549,198.73c0.023-0.031,0.048-0.061,0.07-0.094c0.237-0.348,0.504-0.671,0.815-0.956
						c0.648-0.597,1.401-1,2.256-1.21c0.412-0.101,0.832-0.146,1.255-0.17c0.286-0.017,0.571-0.011,0.855,0.01
						c0.826,0.062,1.629,0.222,2.379,0.591c0.77,0.38,1.356,0.954,1.782,1.698c0.269,0.47,0.448,0.974,0.591,1.494
						c0.098,0.357,0.169,0.719,0.217,1.084c0.024,0.183,0.035,0.367,0.046,0.551c0.021,0.341,0.038,0.683,0.057,1.025
						c0,0.01,0.001,0.02,0.001,0.03c0.009,0.326,0.022,0.651,0.024,0.977c0.008,1.091,0.014,2.183,0.015,3.274
						c0.003,1.649,0.001,3.299,0.001,4.948c0,0.184-0.008,0.192-0.194,0.192c-0.699,0-1.397,0-2.096,0
						c-0.652,0.001-1.303,0.001-1.955,0.003c-0.104,0-0.208,0.009-0.311,0.014c-0.017,0.001-0.034,0.001-0.051,0
						c-0.231-0.012-0.234-0.066-0.234-0.238c0.001-1.367,0.003-2.734,0.002-4.102c0-1.357,0-2.714-0.005-4.071
						c-0.002-0.515-0.047-1.026-0.199-1.522c-0.089-0.29-0.201-0.57-0.372-0.822c-0.298-0.438-0.714-0.701-1.228-0.812
						c-0.19-0.041-0.383-0.066-0.579-0.061c-0.208,0.005-0.417-0.002-0.623,0.023c-0.913,0.112-1.588,0.561-1.963,1.419
						c-0.161,0.368-0.255,0.755-0.311,1.153c-0.059,0.423-0.079,0.848-0.078,1.275c0,2.486,0,4.972,0,7.457
						c0,0.057,0.003,0.114-0.003,0.171c-0.007,0.077-0.04,0.107-0.116,0.111c-0.043,0.003-0.087,0.002-0.131,0.002
						c-0.793,0-1.585,0-2.378,0c-0.5,0-1.001,0-1.501,0.003c-0.148,0.001-0.295,0.009-0.442,0.014c-0.02,0.001-0.041,0.001-0.06,0
						c-0.196-0.02-0.211-0.07-0.209-0.215c0.001-0.074,0.001-0.148,0.001-0.222c0.001-3.275,0.001-6.55,0.001-9.826
						c0-1.653-0.001-3.305-0.001-4.958c0-0.044-0.001-0.087,0.001-0.131c0.005-0.109,0.044-0.148,0.155-0.155
						c0.027-0.002,0.054-0.001,0.081-0.001c1.391,0,2.781,0,4.172,0c0.027,0,0.054,0,0.081,0.001
						c0.106,0.006,0.147,0.041,0.148,0.149c0.001,0.188-0.008,0.376-0.008,0.564c0,0.275,0.003,0.55,0.005,0.826
						c0.001,0.131,0.002,0.262,0.004,0.393c0,0.035,0.003,0.071,0.004,0.107C281.53,198.724,281.539,198.727,281.549,198.73z"/>
					<path style="fill:#FFFFFF;" d="M269.039,204.421c0-2.506,0-5.012,0-7.518c0-0.043,0-0.087,0.006-0.13
						c0.007-0.052,0.037-0.085,0.094-0.086c0.037,0,0.074-0.003,0.111-0.003c1.468-0.001,2.936-0.001,4.403-0.001
						c0.01,0,0.02,0,0.03,0c0.169,0.002,0.213,0.044,0.213,0.218c0.001,0.568,0,1.135,0,1.703c0,4.434,0,8.868,0,13.302
						c0,0.053-0.003,0.107-0.011,0.16c-0.01,0.062-0.048,0.105-0.114,0.109c-0.113,0.006-0.227,0.009-0.341,0.011
						c-0.043,0.001-0.087-0.008-0.13-0.008c-1.233-0.001-2.465-0.001-3.698,0c-0.097,0-0.194,0.009-0.291,0.014
						c-0.02,0.001-0.041,0.002-0.061,0c-0.163-0.018-0.212-0.036-0.212-0.222C269.039,209.452,269.039,206.936,269.039,204.421
						C269.039,204.421,269.039,204.421,269.039,204.421z"/>
				</g>
			</g>
			<path style="fill:none;stroke:#000000;stroke-linecap:round;stroke-miterlimit:10;" d="M289.267,180.361
				c-7.101-3.244-15.685-2.3-21.994,2.278"/>
			<path style="fill:none;stroke:#000000;stroke-linecap:round;stroke-miterlimit:10;" d="M299.876,210.907
				c2.378-4.518,3.066-9.764,1.98-14.749"/>
			<path style="fill:none;stroke:#000000;stroke-linecap:round;stroke-miterlimit:10;" d="M275.488,222.213
				c5.077,1.121,10.513,0.395,15.113-2.031"/>
			<path style="fill:none;stroke:#000000;stroke-linecap:round;stroke-miterlimit:10;" d="M260.869,210.824
				c1.245,2.408,2.919,4.585,4.933,6.4"/>
			<path style="fill:none;stroke:#000000;stroke-linecap:round;stroke-miterlimit:10;" d="M262.326,187.589
				c-2.544,3.526-3.927,7.803-4.025,12.144"/>
		</g>
	</g>
	<g>
		<g>
			
				<line style="fill:none;stroke:#000000;stroke-linecap:round;stroke-miterlimit:10;" x1="431.569" y1="232.267" x2="418.628" y2="249.893"/>
			
				<line style="fill:none;stroke:#000000;stroke-linecap:round;stroke-miterlimit:10;" x1="219.974" y1="331.044" x2="207.808" y2="344.535"/>
			
				<line style="fill:none;stroke:#000000;stroke-linecap:round;stroke-miterlimit:10;" x1="221.58" y1="335.553" x2="214.516" y2="343.018"/>
			
				<line style="fill:none;stroke:#000000;stroke-linecap:round;stroke-miterlimit:10;" x1="420.283" y1="253.749" x2="425.232" y2="247.042"/>
			
				<line style="fill:none;stroke:#000000;stroke-linecap:round;stroke-miterlimit:10;" x1="48.888" y1="365.835" x2="53.837" y2="359.128"/>
			
				<line style="fill:none;stroke:#000000;stroke-linecap:round;stroke-miterlimit:10;" x1="50.442" y1="369.72" x2="54.687" y2="363.725"/>
			<g>
				
					<line style="fill:none;stroke:#000000;stroke-linecap:round;stroke-miterlimit:10;" x1="300.369" y1="144.195" x2="305.318" y2="137.489"/>
				
					<line style="fill:none;stroke:#000000;stroke-linecap:round;stroke-miterlimit:10;" x1="304.254" y1="144.972" x2="311.592" y2="134.367"/>
			</g>
			<path style="fill:none;stroke:#000000;stroke-linecap:round;stroke-miterlimit:10;" d="M250.499,334.075
				c0-3.144,2.549-5.694,5.693-5.694c3.144,0,5.693,2.549,5.693,5.694"/>
			<path style="fill:none;stroke:#000000;stroke-linecap:round;stroke-miterlimit:10;" d="M309.104,257.931
				c-0.994,1.206-2.777,1.378-3.983,0.384c-1.206-0.994-1.378-2.777-0.384-3.983c0.994-1.206,2.777-1.378,3.983-0.384
				C309.926,254.942,310.098,256.725,309.104,257.931z"/>
			<path style="fill:none;stroke:#000000;stroke-linecap:round;stroke-miterlimit:10;" d="M182.474,379.049
				c-0.951,1.154-2.657,1.318-3.811,0.367c-1.154-0.951-1.319-2.657-0.368-3.811c0.951-1.154,2.657-1.319,3.811-0.367
				C183.261,376.188,183.425,377.895,182.474,379.049z"/>
			<path style="fill:none;stroke:#000000;stroke-miterlimit:10;" d="M185.359,85.729c-1.017,1.174-2.792,1.301-3.966,0.285
				c-1.174-1.017-1.301-2.792-0.285-3.966c1.016-1.174,2.792-1.301,3.966-0.285C186.248,82.78,186.376,84.555,185.359,85.729z"/>
			<path style="fill:none;stroke:#000000;stroke-linecap:round;stroke-miterlimit:10;" d="M55.032,267.255
				c0,1.279-1.036,2.315-2.315,2.315s-2.315-1.036-2.315-2.315s1.037-2.315,2.315-2.315S55.032,265.977,55.032,267.255z"/>
			<path style="fill:none;stroke:#000000;stroke-linecap:round;stroke-miterlimit:10;" d="M417.468,296.731
				c3.031,0,5.488,2.457,5.488,5.488s-2.457,5.488-5.488,5.488"/>
			
				<line style="fill:none;stroke:#7D7D2C;stroke-linecap:round;stroke-miterlimit:10;" x1="111.573" y1="195.103" x2="127.135" y2="179.154"/>
			
				<line style="fill:none;stroke:#7D7D2C;stroke-linecap:round;stroke-miterlimit:10;" x1="113.218" y1="187.771" x2="121.192" y2="179.797"/>
			<path style="fill:none;stroke:#000000;stroke-linecap:round;stroke-miterlimit:10;" d="M181.885,390.418
				c0.447-0.446,0.931-0.88,1.444-1.303c2.577-2.124,5.559-3.836,7.862-6.215c1.923-1.986,3.321-4.405,4.04-6.989
				c0.689-2.477,0.926-5.362,3.094-6.942c1.565-1.141,3.852-1.231,5.65-0.439c4.91,2.162,4.798,9.063,2.986,13.103
				c-0.967,2.156-2.614,3.987-3.785,6.055c-3.6,6.355-4.91,16.56-14.713,17.549c-4.187,0.422-7.85-1.475-9.244-5.216
				C177.81,396.238,179.184,393.111,181.885,390.418z"/>
		</g>
		<g>
			<g>
				<g>
					<path style="fill:none;stroke:#222221;stroke-linecap:round;stroke-miterlimit:10;" d="M252.444,286.477
						c-9.24,0-16.731-8.355-16.731-8.355s7.491-8.355,16.731-8.355c9.241,0,16.732,8.355,16.732,8.355
						S261.684,286.477,252.444,286.477z"/>
					<path d="M252.384,286.499c-4.031,0-7.299-3.745-7.299-8.366s3.268-8.366,7.299-8.366c4.031,0,7.299,3.746,7.299,8.366
						S256.415,286.499,252.384,286.499z"/>
				</g>
			</g>
			<g>
				<g>
					<path style="fill:none;stroke:#222221;stroke-linecap:round;stroke-miterlimit:10;" d="M223.702,103.178
						c-10.175,0-18.424-9.2-18.424-9.2s8.249-9.2,18.424-9.2c10.175,0,18.424,9.2,18.424,9.2S233.877,103.178,223.702,103.178z"/>
					<path d="M223.636,103.201c-4.439,0-8.037-4.124-8.037-9.212c0-5.088,3.598-9.212,8.037-9.212c4.439,0,8.037,4.124,8.037,9.212
						C231.673,99.077,228.075,103.201,223.636,103.201z"/>
				</g>
			</g>
		</g>
	</g>
</g>
</svg>
